<svg width="38" height="23" viewBox="0 0 38 23" fill="none" xmlns="http://www.w3.org/2000/svg">
<g clip-path="url(#clip0_4590_7681)">
<path d="M11.0584 8.12388C11.0584 8.59076 11.1207 8.96427 11.183 9.2444C11.2764 9.52453 11.401 9.80466 11.5879 10.147C11.6502 10.2404 11.6813 10.3338 11.6813 10.4272C11.6813 10.5517 11.619 10.6762 11.4321 10.8007L10.6535 11.3298C10.5289 11.3921 10.4355 11.4543 10.342 11.4543C10.2174 11.4543 10.0928 11.3921 9.96826 11.2676C9.78138 11.0808 9.6568 10.894 9.53221 10.6762C9.40763 10.4583 9.28304 10.2404 9.15846 9.92916C8.19293 11.0808 6.97823 11.6411 5.48321 11.6411C4.42424 11.6411 3.61444 11.3298 2.99151 10.7384C2.36859 10.147 2.05713 9.33777 2.05713 8.34176C2.05713 7.28349 2.43088 6.41198 3.17839 5.78947C3.9259 5.16696 4.95372 4.82458 6.23072 4.82458C6.66676 4.82458 7.10281 4.8557 7.53886 4.91795C8.00605 4.9802 8.47324 5.07358 8.97158 5.19808V4.29544C8.97158 3.36168 8.7847 2.67692 8.3798 2.30341C7.9749 1.92991 7.32083 1.74315 6.3553 1.74315C5.91925 1.74315 5.48321 1.8054 5.01602 1.89878C4.54882 2.02328 4.11278 2.14778 3.67673 2.33454C3.48985 2.39679 3.33412 2.45904 3.24068 2.49016C3.14725 2.49016 3.08495 2.52129 3.05381 2.52129C2.86693 2.52129 2.80464 2.39679 2.80464 2.14778V1.52527C2.80464 1.33852 2.83578 1.18289 2.89808 1.08952C2.96037 0.99614 3.08495 0.902764 3.24068 0.840513C3.67673 0.622635 4.20622 0.435881 4.79799 0.280254C5.42092 0.124626 6.04384 0.03125 6.72906 0.03125C8.22407 0.03125 9.28304 0.373631 9.9994 1.02727C10.6846 1.71203 11.0272 2.70804 11.0272 4.10869L11.0584 8.12388ZM6.01269 10.0225C6.41759 10.0225 6.85364 9.96028 7.28969 9.80466C7.72573 9.64903 8.13063 9.3689 8.47324 8.99539C8.66012 8.74639 8.81585 8.49739 8.90929 8.18613C8.97158 7.87488 9.03387 7.53249 9.03387 7.09674V6.5676C8.66012 6.47423 8.28636 6.41198 7.88146 6.34973C7.47656 6.28747 7.10281 6.28748 6.69791 6.28748C5.85696 6.28748 5.26519 6.4431 4.82914 6.78548C4.42424 7.12786 4.20622 7.59475 4.20622 8.21726C4.20622 8.80864 4.36195 9.2444 4.67341 9.52453C4.98487 9.89803 5.42092 10.0225 6.01269 10.0225ZM16.0106 11.3921C15.7926 11.3921 15.6369 11.3609 15.5434 11.2676C15.45 11.2053 15.3565 11.0186 15.2943 10.7695L12.3665 1.12064C12.3042 0.871638 12.2419 0.716011 12.2419 0.622634C12.2419 0.435881 12.3354 0.311379 12.5534 0.311379H13.7681C14.0173 0.311379 14.173 0.342505 14.2664 0.435881C14.3599 0.498132 14.4533 0.684886 14.5156 0.933889L16.6024 9.18215L18.5335 0.933889C18.5957 0.684886 18.658 0.529258 18.7826 0.435881C18.8761 0.37363 19.0629 0.311379 19.281 0.311379H20.2776C20.5268 0.311379 20.6825 0.342505 20.776 0.435881C20.8694 0.498132 20.9629 0.684886 21.0252 0.933889L22.9874 9.27552L25.1364 0.933889C25.1987 0.684886 25.2922 0.529258 25.3856 0.435881C25.4791 0.37363 25.6348 0.311379 25.884 0.311379H27.0364C27.2232 0.311379 27.3478 0.404756 27.3478 0.622634C27.3478 0.684885 27.3478 0.747136 27.3167 0.809387C27.3167 0.871638 27.2855 0.99614 27.2232 1.12064L24.2021 10.7695C24.1398 11.0186 24.0463 11.1742 23.9529 11.2676C23.8595 11.3298 23.7037 11.3921 23.4857 11.3921H22.4267C22.1776 11.3921 22.0218 11.3609 21.9284 11.2676C21.835 11.1742 21.7415 11.0186 21.6792 10.7695L19.7482 2.73917L17.8171 10.7695C17.7548 11.0186 17.6925 11.1742 17.5679 11.2676C17.4745 11.3609 17.2876 11.3921 17.0696 11.3921H16.0106ZM32.0509 11.7033C31.3968 11.7033 30.7428 11.6411 30.1198 11.4854C29.4969 11.3298 28.9986 11.1742 28.6871 10.9874C28.5002 10.8629 28.3445 10.7384 28.3134 10.645C28.2822 10.5517 28.2199 10.396 28.2199 10.3027V9.68015C28.2199 9.43115 28.3134 9.30665 28.5002 9.30665C28.5625 9.30665 28.656 9.30665 28.7183 9.33777C28.7805 9.3689 28.9051 9.40002 29.0297 9.46228C29.4658 9.64903 29.9018 9.80466 30.4002 9.89803C30.8985 9.99141 31.3968 10.0537 31.8952 10.0537C32.6738 10.0537 33.2967 9.92916 33.7016 9.64903C34.1377 9.3689 34.3557 8.96427 34.3557 8.46626C34.3557 8.12388 34.2311 7.84375 34.0131 7.59475C33.7951 7.34574 33.359 7.15899 32.7673 6.94111L30.9608 6.38085C30.0575 6.10072 29.3723 5.66496 28.9674 5.10471C28.5625 4.54445 28.3445 3.95306 28.3445 3.29943C28.3445 2.77029 28.4691 2.30341 28.6871 1.92991C28.9051 1.5564 29.2166 1.18289 29.5904 0.902764C29.9641 0.622635 30.4002 0.404756 30.8985 0.249128C31.3968 0.093501 31.9263 0.03125 32.4558 0.03125C32.7361 0.03125 33.0164 0.03125 33.2967 0.093501C33.5771 0.124627 33.8574 0.186877 34.1065 0.218003C34.3557 0.280254 34.6049 0.342505 34.8229 0.404756C35.0409 0.467007 35.2278 0.560383 35.3524 0.622634C35.5393 0.716011 35.6639 0.809387 35.7261 0.933889C35.7884 1.02727 35.8507 1.18289 35.8507 1.33852V1.92991C35.8507 2.17891 35.7573 2.33454 35.5704 2.33454C35.477 2.33454 35.3212 2.27229 35.1032 2.17891C34.3869 1.86765 33.6082 1.6809 32.705 1.6809C31.9886 1.6809 31.428 1.8054 31.0542 2.02328C30.6805 2.24116 30.4624 2.61467 30.4624 3.1438C30.4624 3.48618 30.587 3.79744 30.8362 4.01531C31.0854 4.26432 31.5526 4.4822 32.2066 4.70007L33.982 5.26033C34.8852 5.54046 35.5393 5.94509 35.913 6.4431C36.2868 6.94111 36.4737 7.53249 36.4737 8.18613C36.4737 8.71526 36.3491 9.21327 36.1622 9.6179C35.9442 10.0537 35.6327 10.4272 35.259 10.7073C34.8852 11.0186 34.418 11.2364 33.8885 11.3921C33.2656 11.6411 32.6738 11.7033 32.0509 11.7033Z" fill="#252F3E"/>
<path fill-rule="evenodd" clip-rule="evenodd" d="M34.418 17.7692C30.3067 20.7884 24.3266 22.4069 19.2187 22.4069C12.0239 22.4069 5.54548 19.7613 0.655532 15.3414C0.281778 14.9991 0.624386 14.5322 1.09158 14.7812C6.38643 17.8626 12.896 19.699 19.6547 19.699C24.202 19.699 29.2166 18.7652 33.8262 16.8043C34.4803 16.5242 35.0721 17.2712 34.418 17.7692Z" fill="#FF9900"/>
<path fill-rule="evenodd" clip-rule="evenodd" d="M36.1 15.8413C35.5706 15.1565 32.6428 15.53 31.3035 15.6856C30.8986 15.7479 30.8363 15.3744 31.2101 15.1254C33.5461 13.4757 37.4082 13.9426 37.8442 14.5029C38.2803 15.0631 37.7196 18.9227 35.5394 20.7591C35.1968 21.0392 34.8853 20.8836 35.0411 20.5101C35.5394 19.2651 36.6295 16.4949 36.1 15.8413Z" fill="#FF9900"/>
</g>
<defs>
<clipPath id="clip0_4590_7681">
<rect width="37.5" height="22.4104" fill="white" transform="translate(0.5)"/>
</clipPath>
</defs>
</svg>
