<svg width="30" height="30" viewBox="0 0 30 30" fill="none" xmlns="http://www.w3.org/2000/svg">
<path d="M26.3667 7.5C25.9478 7.50014 25.5346 7.59794 25.16 7.78566C24.7854 7.97338 24.4598 8.24584 24.2089 8.58141C23.958 8.91697 23.7888 9.3064 23.7148 9.71878C23.6407 10.1312 23.6638 10.5551 23.7822 10.957L19.6003 15.1383C19.0488 14.9546 18.4526 14.9546 17.9011 15.1383L14.8009 12.0381C14.9029 11.64 14.9126 11.2239 14.8291 10.8215C14.7456 10.4191 14.5713 10.0412 14.3193 9.71651C14.0674 9.39186 13.7445 9.12912 13.3755 8.94837C13.0064 8.76762 12.6009 8.67366 12.19 8.67366C11.779 8.67366 11.3735 8.76762 11.0045 8.94837C10.6354 9.12912 10.3126 9.39186 10.0606 9.71651C9.80871 10.0412 9.63433 10.4191 9.55086 10.8215C9.46739 11.2239 9.47704 11.64 9.57905 12.0381L4.39409 17.2195C3.81845 17.0491 3.20243 17.0754 2.64341 17.2943C2.08439 17.5132 1.61426 17.9121 1.30732 18.428C1.00038 18.944 0.874145 19.5475 0.948563 20.1432C1.02298 20.7389 1.29381 21.2928 1.71824 21.7174C2.14268 22.1419 2.6965 22.4129 3.29218 22.4876C3.88786 22.5622 4.49142 22.4361 5.00745 22.1293C5.52349 21.8226 5.92256 21.3526 6.1416 20.7936C6.36064 20.2347 6.38715 19.6187 6.21694 19.043L11.3363 13.9242C11.8878 14.1081 12.484 14.1081 13.0355 13.9242L16.1363 17.025C16.0343 17.4231 16.0246 17.8392 16.1081 18.2416C16.1916 18.644 16.3659 19.0219 16.6179 19.3466C16.8698 19.6712 17.1927 19.934 17.5617 20.1147C17.9308 20.2955 18.3363 20.3894 18.7472 20.3894C19.1582 20.3894 19.5637 20.2955 19.9327 20.1147C20.3018 19.934 20.6246 19.6712 20.8766 19.3466C21.1285 19.0219 21.3029 18.644 21.3863 18.2416C21.4698 17.8392 21.4602 17.4231 21.3582 17.025L25.605 12.7805C25.9758 12.8898 26.3657 12.9182 26.7484 12.8636C27.1311 12.809 27.4975 12.6727 27.8229 12.464C28.1483 12.2553 28.425 11.9791 28.6342 11.654C28.8434 11.329 28.9802 10.9627 29.0354 10.5801C29.0906 10.1975 29.0628 9.80755 28.954 9.43663C28.8452 9.0657 28.6579 8.72252 28.4048 8.43037C28.1517 8.13822 27.8387 7.90393 27.487 7.7434C27.1354 7.58287 26.7533 7.49986 26.3667 7.5Z" fill="#2664EA"/>
</svg>
