<svg width="24" height="24" viewBox="0 0 24 24" fill="none" xmlns="http://www.w3.org/2000/svg">
<path d="M10.4985 21.3986L10.4865 21.4006L10.4155 21.4356L10.3955 21.4396L10.3815 21.4356L10.3105 21.3996C10.2998 21.3969 10.2918 21.3989 10.2865 21.4056L10.2825 21.4156L10.2655 21.8436L10.2705 21.8636L10.2805 21.8766L10.3845 21.9506L10.3995 21.9546L10.4115 21.9506L10.5155 21.8766L10.5275 21.8606L10.5315 21.8436L10.5145 21.4166C10.5118 21.4059 10.5065 21.3999 10.4985 21.3986ZM10.7625 21.2856L10.7485 21.2876L10.5645 21.3806L10.5545 21.3906L10.5515 21.4016L10.5695 21.8316L10.5745 21.8436L10.5825 21.8516L10.7835 21.9436C10.7961 21.9469 10.8058 21.9442 10.8125 21.9356L10.8165 21.9216L10.7825 21.3076C10.7791 21.2949 10.7725 21.2876 10.7625 21.2856ZM10.0475 21.2876C10.0431 21.2849 10.0378 21.284 10.0328 21.2851C10.0277 21.2863 10.0233 21.2893 10.0205 21.2936L10.0145 21.3076L9.98047 21.9216C9.98114 21.9336 9.9868 21.9416 9.99747 21.9456L10.0125 21.9436L10.2135 21.8506L10.2235 21.8426L10.2265 21.8316L10.2445 21.4016L10.2415 21.3896L10.2315 21.3796L10.0475 21.2876Z" fill="url(#paint0_linear_5249_13126)"/>
<path d="M8.4543 4.15722C9.17526 2.04726 12.0905 1.98336 12.9452 3.96551L13.0176 4.15842L13.9905 7.00385C14.2135 7.65641 14.5738 8.25356 15.0472 8.75502C15.5205 9.25648 16.0959 9.65059 16.7345 9.91077L16.9961 10.0084L19.8414 10.9802C21.9513 11.7012 22.0152 14.6166 20.0343 15.4714L19.8414 15.5437L16.9961 16.5167C16.3434 16.7396 15.746 17.0998 15.2444 17.5732C14.7427 18.0466 14.3485 18.6221 14.0882 19.2609L13.9905 19.5213L13.0188 22.3679C12.2978 24.4779 9.38263 24.5418 8.52904 22.5609L8.4543 22.3679L7.48256 19.5225C7.25974 18.8697 6.89949 18.2724 6.42612 17.7707C5.95276 17.269 5.37729 16.8747 4.73856 16.6144L4.47815 16.5167L1.63287 15.545C-0.478178 14.8239 -0.542076 11.9086 1.43997 11.055L1.63287 10.9802L4.47815 10.0084C5.13067 9.78544 5.72779 9.42511 6.22922 8.95172C6.73066 8.47834 7.12475 7.90292 7.38491 7.26428L7.48256 7.00385L8.4543 4.15722ZM20.3815 2.17853e-07C20.6071 -2.84509e-07 20.8281 0.0632725 21.0195 0.182628C21.2109 0.301983 21.365 0.472633 21.4642 0.675186L21.5221 0.816252L21.944 2.05329L23.1822 2.47528C23.4082 2.55208 23.6064 2.69425 23.7515 2.88379C23.8967 3.07332 23.9823 3.30168 23.9975 3.53993C24.0128 3.77818 23.9569 4.01559 23.8371 4.22207C23.7173 4.42855 23.5389 4.59481 23.3245 4.69978L23.1822 4.75765L21.9452 5.17964L21.5233 6.41788C21.4463 6.64386 21.3041 6.84192 21.1145 6.98696C20.9249 7.132 20.6965 7.21749 20.4583 7.23259C20.22 7.2477 19.9827 7.19175 19.7763 7.07182C19.5699 6.9519 19.4037 6.7734 19.2989 6.55895L19.241 6.41788L18.819 5.18085L17.5809 4.75886C17.3548 4.68206 17.1567 4.53988 17.0115 4.35035C16.8664 4.16082 16.7808 3.93245 16.7655 3.69421C16.7503 3.45596 16.8061 3.21855 16.926 3.01207C17.0458 2.80559 17.2242 2.63933 17.4386 2.53436L17.5809 2.47649L18.8178 2.05449L19.2398 0.816252C19.3211 0.578038 19.4749 0.371242 19.6797 0.22486C19.8844 0.0784771 20.1298 -0.00015105 20.3815 2.17853e-07Z" fill="url(#paint1_linear_5249_13126)"/>
<defs>
<linearGradient id="paint0_linear_5249_13126" x1="10.3985" y1="21.2847" x2="10.3985" y2="21.9546" gradientUnits="userSpaceOnUse">
<stop stop-color="#F96161"/>
<stop offset="0.899117" stop-color="#153884"/>
</linearGradient>
<linearGradient id="paint1_linear_5249_13126" x1="12" y1="0" x2="12" y2="24" gradientUnits="userSpaceOnUse">
<stop stop-color="#F96161"/>
<stop offset="0.899117" stop-color="#153884"/>
</linearGradient>
</defs>
</svg>
