<svg width="38" height="36" viewBox="0 0 38 36" fill="none" xmlns="http://www.w3.org/2000/svg">
<g clip-path="url(#clip0_5249_13079)">
<path fill-rule="evenodd" clip-rule="evenodd" d="M18.8202 0C8.68962 0 0.5 8.25 0.5 18.4564C0.5 26.6149 5.74737 33.5209 13.0269 35.9651C13.937 36.1489 14.2704 35.568 14.2704 35.0794C14.2704 34.6515 14.2404 33.1849 14.2404 31.6567C9.14412 32.757 8.08288 29.4566 8.08288 29.4566C7.26388 27.3176 6.05037 26.7679 6.05037 26.7679C4.38237 25.6372 6.17188 25.6372 6.17188 25.6372C8.02213 25.7595 8.993 27.5317 8.993 27.5317C10.6306 30.3428 13.2695 29.5485 14.3311 29.0595C14.4826 27.8677 14.9683 27.0427 15.4839 26.5845C11.4193 26.1566 7.14275 24.5678 7.14275 17.4784C7.14275 15.4616 7.87025 13.8116 9.023 12.5284C8.84113 12.0701 8.204 10.1753 9.20525 7.63912C9.20525 7.63912 10.7521 7.15013 14.24 9.53362C15.7333 9.12962 17.2733 8.9241 18.8202 8.92237C20.3671 8.92237 21.944 9.1365 23.4001 9.53362C26.8884 7.15013 28.4353 7.63912 28.4353 7.63912C29.4365 10.1753 28.799 12.0701 28.6171 12.5284C29.8002 13.8116 30.4978 15.4616 30.4978 17.4784C30.4978 24.5678 26.2212 26.1259 22.1262 26.5845C22.7937 27.165 23.3698 28.2649 23.3698 30.0067C23.3698 32.4818 23.3397 34.4681 23.3397 35.079C23.3397 35.568 23.6735 36.1489 24.5833 35.9655C31.8628 33.5205 37.1101 26.6149 37.1101 18.4564C37.1401 8.25 28.9205 0 18.8202 0Z" fill="#24292F"/>
</g>
<defs>
<clipPath id="clip0_5249_13079">
<rect width="36.75" height="36" fill="white" transform="translate(0.5)"/>
</clipPath>
</defs>
</svg>
