<svg width="61" height="60" viewBox="0 0 61 60" fill="none" xmlns="http://www.w3.org/2000/svg">
<circle cx="30.3334" cy="30" r="29.5" fill="#F6FBFF" stroke="#00C9B7"/>
<path d="M38.4164 18.75H20.9164C20.2533 18.75 19.6175 19.0134 19.1486 19.4822C18.6798 19.9511 18.4164 20.587 18.4164 21.25V38.75C18.4164 39.413 18.6798 40.0489 19.1486 40.5178C19.6175 40.9866 20.2533 41.25 20.9164 41.25H38.4164C39.0794 41.25 39.7153 40.9866 40.1841 40.5178C40.653 40.0489 40.9164 39.413 40.9164 38.75V21.25C40.9164 20.587 40.653 19.9511 40.1841 19.4822C39.7153 19.0134 39.0794 18.75 38.4164 18.75ZM27.1664 36.25L20.9164 30L22.6789 28.2375L27.1664 32.7125L36.6539 23.225L38.4164 25L27.1664 36.25Z" fill="#2563EB"/>
</svg>
