<svg width="151" height="50" viewBox="0 0 151 50" fill="none" xmlns="http://www.w3.org/2000/svg">
<rect x="0.5" width="150" height="50" rx="8" fill="white"/>
<g clip-path="url(#clip0_3536_911)">
<path fill-rule="evenodd" clip-rule="evenodd" d="M28.8202 8C18.6896 8 10.5 16.25 10.5 26.4564C10.5 34.6149 15.7474 41.5209 23.0269 43.9651C23.937 44.1489 24.2704 43.568 24.2704 43.0794C24.2704 42.6515 24.2404 41.1849 24.2404 39.6567C19.1441 40.757 18.0829 37.4566 18.0829 37.4566C17.2639 35.3176 16.0504 34.7679 16.0504 34.7679C14.3824 33.6372 16.1719 33.6372 16.1719 33.6372C18.0221 33.7595 18.993 35.5317 18.993 35.5317C20.6306 38.3428 23.2695 37.5485 24.3311 37.0595C24.4826 35.8677 24.9683 35.0427 25.4839 34.5845C21.4193 34.1566 17.1428 32.5678 17.1428 25.4784C17.1428 23.4616 17.8703 21.8116 19.023 20.5284C18.8411 20.0701 18.204 18.1753 19.2052 15.6391C19.2052 15.6391 20.7521 15.1501 24.24 17.5336C25.7333 17.1296 27.2733 16.9241 28.8202 16.9224C30.3671 16.9224 31.944 17.1365 33.4001 17.5336C36.8884 15.1501 38.4353 15.6391 38.4353 15.6391C39.4365 18.1753 38.799 20.0701 38.6171 20.5284C39.8002 21.8116 40.4978 23.4616 40.4978 25.4784C40.4978 32.5678 36.2212 34.1259 32.1262 34.5845C32.7937 35.165 33.3698 36.2649 33.3698 38.0067C33.3698 40.4818 33.3397 42.4681 33.3397 43.079C33.3397 43.568 33.6735 44.1489 34.5833 43.9655C41.8628 41.5205 47.1101 34.6149 47.1101 26.4564C47.1401 16.25 38.9205 8 28.8202 8Z" fill="#24292F"/>
</g>
<path d="M63.4318 25.6172C63.3572 25.358 63.2525 25.1289 63.1175 24.93C62.9826 24.7276 62.8175 24.5572 62.6222 24.4187C62.4304 24.2766 62.2102 24.1683 61.9616 24.0938C61.7166 24.0192 61.445 23.9819 61.1467 23.9819C60.5891 23.9819 60.0991 24.1204 59.6765 24.3974C59.2575 24.6744 58.9308 25.0774 58.6964 25.6065C58.462 26.1321 58.3448 26.7749 58.3448 27.5348C58.3448 28.2947 58.4602 28.9411 58.6911 29.4737C58.9219 30.0064 59.2486 30.413 59.6712 30.6935C60.0938 30.9705 60.5927 31.109 61.168 31.109C61.69 31.109 62.1357 31.0167 62.505 30.832C62.8778 30.6438 63.1619 30.3793 63.3572 30.0384C63.5561 29.6974 63.6555 29.2944 63.6555 28.8292L64.1243 28.8984H61.3118V27.1619H65.8768V28.5362C65.8768 29.495 65.6744 30.3189 65.2695 31.0078C64.8647 31.6932 64.3072 32.2223 63.5969 32.5952C62.8867 32.9645 62.0735 33.1491 61.1573 33.1491C60.1346 33.1491 59.2362 32.9237 58.462 32.4727C57.6879 32.0181 57.0842 31.3736 56.6509 30.5391C56.2212 29.701 56.0064 28.7067 56.0064 27.5561C56.0064 26.6719 56.1342 25.8835 56.3899 25.1911C56.6491 24.495 57.0114 23.9055 57.4766 23.4226C57.9418 22.9396 58.4833 22.5721 59.1012 22.32C59.7191 22.0678 60.3885 21.9418 61.1094 21.9418C61.7273 21.9418 62.3026 22.0323 62.8352 22.2134C63.3679 22.391 63.8402 22.6431 64.2521 22.9698C64.6676 23.2965 65.0067 23.6854 65.2695 24.1364C65.5323 24.5838 65.701 25.0774 65.7756 25.6172H63.4318ZM68.0794 33V24.8182H70.3485V33H68.0794ZM69.2193 23.7635C68.8819 23.7635 68.5925 23.6516 68.351 23.4279C68.1131 23.2006 67.9941 22.929 67.9941 22.6129C67.9941 22.3004 68.1131 22.0323 68.351 21.8086C68.5925 21.5813 68.8819 21.4677 69.2193 21.4677C69.5566 21.4677 69.8443 21.5813 70.0822 21.8086C70.3237 22.0323 70.4444 22.3004 70.4444 22.6129C70.4444 22.929 70.3237 23.2006 70.0822 23.4279C69.8443 23.6516 69.5566 23.7635 69.2193 23.7635ZM76.5182 24.8182V26.5227H71.591V24.8182H76.5182ZM72.7096 22.858H74.9788V30.4858C74.9788 30.6953 75.0107 30.8587 75.0747 30.9759C75.1386 31.0895 75.2274 31.1694 75.341 31.2156C75.4582 31.2617 75.5931 31.2848 75.7458 31.2848C75.8524 31.2848 75.9589 31.2759 76.0654 31.2582C76.172 31.2369 76.2536 31.2209 76.3105 31.2102L76.6673 32.8988C76.5537 32.9343 76.3939 32.9751 76.1879 33.0213C75.982 33.071 75.7316 33.1012 75.4369 33.1119C74.89 33.1332 74.4106 33.0604 73.9987 32.8935C73.5903 32.7266 73.2725 32.4673 73.0452 32.1158C72.8179 31.7642 72.7061 31.3203 72.7096 30.7841V22.858ZM80.4413 28.2699V33H78.1721V22.0909H80.3774V26.2617H80.4733C80.6579 25.7788 80.9562 25.4006 81.3682 25.1271C81.7801 24.8501 82.2968 24.7116 82.9182 24.7116C83.4864 24.7116 83.9818 24.8359 84.4044 25.0845C84.8305 25.3295 85.1608 25.6829 85.3952 26.1445C85.6331 26.6026 85.7503 27.1513 85.7467 27.7905V33H83.4775V28.1953C83.4811 27.6911 83.3532 27.2987 83.094 27.0181C82.8383 26.7376 82.4797 26.5973 82.018 26.5973C81.7091 26.5973 81.4356 26.663 81.1977 26.7944C80.9633 26.9258 80.7787 27.1175 80.6437 27.3697C80.5123 27.6183 80.4449 27.9183 80.4413 28.2699ZM92.7793 29.5163V24.8182H95.0485V33H92.8699V31.5138H92.7846C92.6 31.9933 92.2928 32.3786 91.8631 32.6697C91.437 32.9609 90.9167 33.1065 90.3024 33.1065C89.7555 33.1065 89.2743 32.9822 88.8588 32.7337C88.4434 32.4851 88.1184 32.1317 87.8841 31.6737C87.6532 31.2156 87.536 30.6669 87.5325 30.0277V24.8182H89.8017V29.6229C89.8052 30.1058 89.9348 30.4876 90.1905 30.7681C90.4462 31.0487 90.7889 31.1889 91.2186 31.1889C91.492 31.1889 91.7477 31.1268 91.9856 31.0025C92.2235 30.8746 92.4153 30.6864 92.5609 30.4379C92.71 30.1893 92.7828 29.8821 92.7793 29.5163ZM96.9062 33V22.0909H99.1753V26.1925H99.2446C99.344 25.9723 99.4878 25.7486 99.676 25.5213C99.8678 25.2905 100.116 25.0987 100.422 24.946C100.731 24.7898 101.114 24.7116 101.572 24.7116C102.169 24.7116 102.719 24.8679 103.224 25.1804C103.728 25.4893 104.131 25.9563 104.433 26.5813C104.735 27.2028 104.886 27.9822 104.886 28.9197C104.886 29.8324 104.738 30.603 104.443 31.2315C104.152 31.8565 103.755 32.3306 103.25 32.6538C102.75 32.9734 102.188 33.1332 101.567 33.1332C101.127 33.1332 100.752 33.0604 100.443 32.9148C100.138 32.7692 99.8873 32.5863 99.692 32.3661C99.4967 32.1424 99.3476 31.9169 99.2446 31.6896H99.1434V33H96.9062ZM99.1274 28.9091C99.1274 29.3956 99.1949 29.82 99.3298 30.1822C99.4648 30.5444 99.6601 30.8267 99.9157 31.0291C100.171 31.228 100.482 31.3274 100.848 31.3274C101.217 31.3274 101.53 31.2262 101.785 31.0238C102.041 30.8178 102.235 30.5337 102.366 30.1715C102.501 29.8058 102.568 29.3849 102.568 28.9091C102.568 28.4368 102.503 28.0213 102.371 27.6626C102.24 27.304 102.046 27.0234 101.791 26.821C101.535 26.6186 101.221 26.5174 100.848 26.5174C100.479 26.5174 100.166 26.6151 99.9104 26.8104C99.6583 27.0057 99.4648 27.2827 99.3298 27.6413C99.1949 28 99.1274 28.4226 99.1274 28.9091Z" fill="black"/>
<defs>
<clipPath id="clip0_3536_911">
<rect width="36.75" height="36" fill="white" transform="translate(10.5 8)"/>
</clipPath>
</defs>
</svg>
