<svg width="30" height="30" viewBox="0 0 30 30" fill="none" xmlns="http://www.w3.org/2000/svg">
<path d="M25 10L17.5 2.5H7.5C6.83696 2.5 6.20107 2.76339 5.73223 3.23223C5.26339 3.70107 5 4.33696 5 5V25C5 25.663 5.26339 26.2989 5.73223 26.7678C6.20107 27.2366 6.83696 27.5 7.5 27.5H22.5C23.163 27.5 23.7989 27.2366 24.2678 26.7678C24.7366 26.2989 25 25.663 25 25V10ZM11.25 23.75H8.75V12.5H11.25V23.75ZM16.25 23.75H13.75V16.25H16.25V23.75ZM21.25 23.75H18.75V20H21.25V23.75ZM17.5 11.25H16.25V5L22.5 11.25H17.5Z" fill="#2664EA"/>
</svg>
