<svg width="30" height="26" viewBox="0 0 30 26" fill="none" xmlns="http://www.w3.org/2000/svg">
<path d="M17.3438 25.1875C17.1934 25.1874 17.044 25.163 16.9014 25.1154L12.2051 23.5527C11.9258 23.4589 11.6832 23.2794 11.5117 23.0398C11.3403 22.8002 11.2487 22.5126 11.25 22.218V15.233C11.2488 15.2301 11.247 15.2276 11.2447 15.2254L1.3629 3.71523C1.14379 3.45997 1.00252 3.14718 0.95588 2.81402C0.90924 2.48085 0.959183 2.1413 1.09978 1.83567C1.24038 1.53004 1.46573 1.27118 1.74907 1.08982C2.03241 0.908454 2.36184 0.812206 2.69826 0.812501H27.3047C27.6411 0.812206 27.9706 0.908454 28.2539 1.08982C28.5372 1.27118 28.7626 1.53004 28.9032 1.83567C29.0438 2.1413 29.0937 2.48085 29.0471 2.81402C29.0004 3.14718 28.8592 3.45997 28.6401 3.71523L18.7553 15.2266C18.7533 15.229 18.7516 15.2315 18.75 15.2342V23.7812C18.7506 23.9661 18.7146 24.1492 18.6441 24.32C18.5736 24.4909 18.47 24.6461 18.3393 24.7768C18.2087 24.9075 18.0534 25.0111 17.8826 25.0816C17.7117 25.152 17.5286 25.188 17.3438 25.1875Z" fill="#2664EA"/>
</svg>
