<svg width="60" height="60" viewBox="0 0 60 60" fill="none" xmlns="http://www.w3.org/2000/svg">
<circle cx="30" cy="30" r="29.5" fill="#F6FBFF" stroke="#00C9B7"/>
<path d="M30 15C28.0302 15 26.0796 15.388 24.2597 16.1418C22.4399 16.8956 20.7863 18.0005 19.3934 19.3934C16.5804 22.2064 15 26.0218 15 30C15 33.9782 16.5804 37.7936 19.3934 40.6066C20.7863 41.9995 22.4399 43.1044 24.2597 43.8582C26.0796 44.612 28.0302 45 30 45C33.9782 45 37.7936 43.4196 40.6066 40.6066C43.4196 37.7936 45 33.9782 45 30C45 28.0302 44.612 26.0796 43.8582 24.2597C43.1044 22.4399 41.9995 20.7863 40.6066 19.3934C39.2137 18.0005 37.5601 16.8956 35.7403 16.1418C33.9204 15.388 31.9698 15 30 15ZM36.3 36.3L28.5 31.5V22.5H30.75V30.3L37.5 34.35L36.3 36.3Z" fill="#2563EB"/>
</svg>
