<svg width="151" height="50" viewBox="0 0 151 50" fill="none" xmlns="http://www.w3.org/2000/svg">
<rect x="0.5" width="150" height="50" rx="8" fill="white"/>
<g clip-path="url(#clip0_3536_903)">
<path d="M26.4204 23.9179H10.5V8H26.4204V23.9179Z" fill="#F1511B"/>
<path d="M44.0001 23.9179H28.0784V8H43.9988V23.9179H44.0001Z" fill="#80CC28"/>
<path d="M26.4204 41.5004H10.5V25.5825H26.4204V41.5004Z" fill="#00ADEF"/>
<path d="M44.0001 41.5004H28.0784V25.5825H43.9988V41.5004H44.0001Z" fill="#FBBC09"/>
</g>
<path d="M52.9482 20.8409H55.7926L58.7969 28.1705H58.9247L61.929 20.8409H64.7734V31.75H62.5362V24.6495H62.4457L59.6225 31.6967H58.0991L55.2759 24.6229H55.1854V31.75H52.9482V20.8409ZM66.6311 31.75V23.5682H68.9003V31.75H66.6311ZM67.771 22.5135C67.4337 22.5135 67.1443 22.4016 66.9028 22.1779C66.6649 21.9506 66.5459 21.679 66.5459 21.3629C66.5459 21.0504 66.6649 20.7823 66.9028 20.5586C67.1443 20.3313 67.4337 20.2177 67.771 20.2177C68.1084 20.2177 68.396 20.3313 68.634 20.5586C68.8754 20.7823 68.9962 21.0504 68.9962 21.3629C68.9962 21.679 68.8754 21.9506 68.634 22.1779C68.396 22.4016 68.1084 22.5135 67.771 22.5135ZM74.4148 31.9098C73.5767 31.9098 72.8558 31.7322 72.2521 31.3771C71.652 31.0185 71.1903 30.5213 70.8672 29.8857C70.5476 29.25 70.3878 28.5185 70.3878 27.6911C70.3878 26.853 70.5494 26.1179 70.8725 25.4858C71.1992 24.8501 71.6626 24.3548 72.2628 23.9996C72.8629 23.641 73.5767 23.4616 74.4041 23.4616C75.1179 23.4616 75.7429 23.5913 76.2791 23.8505C76.8153 24.1097 77.2397 24.4737 77.5522 24.9425C77.8647 25.4112 78.0369 25.9616 78.0689 26.5938H75.9276C75.8672 26.1854 75.7074 25.8569 75.4482 25.6083C75.1925 25.3562 74.8569 25.2301 74.4414 25.2301C74.0898 25.2301 73.7827 25.326 73.5199 25.5178C73.2607 25.706 73.0582 25.9812 72.9126 26.3434C72.767 26.7056 72.6942 27.1442 72.6942 27.6591C72.6942 28.1811 72.7653 28.625 72.9073 28.9908C73.0529 29.3565 73.2571 29.6353 73.5199 29.8271C73.7827 30.0188 74.0898 30.1147 74.4414 30.1147C74.7006 30.1147 74.9332 30.0614 75.1392 29.9549C75.3487 29.8484 75.521 29.6939 75.6559 29.4915C75.7944 29.2855 75.8849 29.0387 75.9276 28.7511H78.0689C78.0334 29.3761 77.8629 29.9265 77.5575 30.4023C77.2557 30.8746 76.8384 31.244 76.3058 31.5103C75.7731 31.7766 75.1428 31.9098 74.4148 31.9098ZM79.5218 31.75V23.5682H81.7217V24.9957H81.8069C81.9561 24.4879 82.2064 24.1044 82.558 23.8452C82.9095 23.5824 83.3144 23.451 83.7725 23.451C83.8861 23.451 84.0086 23.4581 84.14 23.4723C84.2714 23.4865 84.3868 23.506 84.4862 23.5309V25.5444C84.3797 25.5124 84.2323 25.484 84.0441 25.4592C83.8559 25.4343 83.6837 25.4219 83.5274 25.4219C83.1936 25.4219 82.8953 25.4947 82.6325 25.6403C82.3733 25.7823 82.1673 25.9812 82.0146 26.2369C81.8655 26.4925 81.7909 26.7873 81.7909 27.1211V31.75H79.5218ZM88.9753 31.9098C88.1479 31.9098 87.4324 31.734 86.8287 31.3825C86.2285 31.0273 85.7651 30.5337 85.4384 29.9016C85.1117 29.266 84.9483 28.5291 84.9483 27.6911C84.9483 26.8459 85.1117 26.1072 85.4384 25.4751C85.7651 24.8395 86.2285 24.3459 86.8287 23.9943C87.4324 23.6392 88.1479 23.4616 88.9753 23.4616C89.8027 23.4616 90.5165 23.6392 91.1167 23.9943C91.7203 24.3459 92.1855 24.8395 92.5123 25.4751C92.839 26.1072 93.0023 26.8459 93.0023 27.6911C93.0023 28.5291 92.839 29.266 92.5123 29.9016C92.1855 30.5337 91.7203 31.0273 91.1167 31.3825C90.5165 31.734 89.8027 31.9098 88.9753 31.9098ZM88.986 30.152C89.3624 30.152 89.6767 30.0455 89.9288 29.8324C90.1809 29.6158 90.3709 29.321 90.4988 28.9482C90.6301 28.5753 90.6958 28.1509 90.6958 27.6751C90.6958 27.1992 90.6301 26.7749 90.4988 26.402C90.3709 26.0291 90.1809 25.7344 89.9288 25.5178C89.6767 25.3011 89.3624 25.1928 88.986 25.1928C88.606 25.1928 88.2864 25.3011 88.0272 25.5178C87.7715 25.7344 87.5779 26.0291 87.4466 26.402C87.3187 26.7749 87.2548 27.1992 87.2548 27.6751C87.2548 28.1509 87.3187 28.5753 87.4466 28.9482C87.5779 29.321 87.7715 29.6158 88.0272 29.8324C88.2864 30.0455 88.606 30.152 88.986 30.152ZM101.285 25.9013L99.2079 26.0291C99.1724 25.8516 99.0961 25.6918 98.9789 25.5497C98.8617 25.4041 98.7072 25.2887 98.5154 25.2035C98.3272 25.1147 98.1017 25.0703 97.839 25.0703C97.4874 25.0703 97.1909 25.1449 96.9494 25.294C96.7079 25.4396 96.5872 25.6349 96.5872 25.88C96.5872 26.0753 96.6653 26.2404 96.8216 26.3754C96.9778 26.5103 97.2459 26.6186 97.6259 26.7003L99.1067 26.9986C99.9022 27.1619 100.495 27.4247 100.886 27.7869C101.276 28.1491 101.472 28.625 101.472 29.2145C101.472 29.7507 101.314 30.2212 100.998 30.6261C100.685 31.0309 100.256 31.3469 99.7086 31.5742C99.1653 31.7979 98.5385 31.9098 97.8283 31.9098C96.7452 31.9098 95.8823 31.6843 95.2395 31.2333C94.6003 30.7788 94.2257 30.1609 94.1156 29.3796L96.3475 29.2624C96.415 29.5927 96.5783 29.8448 96.8375 30.0188C97.0968 30.1893 97.4288 30.2745 97.8336 30.2745C98.2314 30.2745 98.551 30.1982 98.7924 30.0455C99.0375 29.8892 99.1618 29.6886 99.1653 29.4435C99.1618 29.2376 99.0748 29.0689 98.9043 28.9375C98.7338 28.8026 98.4711 28.6996 98.1159 28.6286L96.699 28.3462C95.9 28.1864 95.3052 27.9094 94.9146 27.5153C94.5275 27.1211 94.334 26.6186 94.334 26.0078C94.334 25.4822 94.476 25.0295 94.7601 24.6495C95.0478 24.2695 95.4508 23.9766 95.9693 23.7706C96.4913 23.5646 97.1021 23.4616 97.8017 23.4616C98.835 23.4616 99.6483 23.68 100.241 24.1168C100.838 24.5536 101.186 25.1484 101.285 25.9013ZM106.597 31.9098C105.77 31.9098 105.054 31.734 104.451 31.3825C103.851 31.0273 103.387 30.5337 103.06 29.9016C102.734 29.266 102.57 28.5291 102.57 27.6911C102.57 26.8459 102.734 26.1072 103.06 25.4751C103.387 24.8395 103.851 24.3459 104.451 23.9943C105.054 23.6392 105.77 23.4616 106.597 23.4616C107.425 23.4616 108.139 23.6392 108.739 23.9943C109.342 24.3459 109.808 24.8395 110.134 25.4751C110.461 26.1072 110.624 26.8459 110.624 27.6911C110.624 28.5291 110.461 29.266 110.134 29.9016C109.808 30.5337 109.342 31.0273 108.739 31.3825C108.139 31.734 107.425 31.9098 106.597 31.9098ZM106.608 30.152C106.984 30.152 107.299 30.0455 107.551 29.8324C107.803 29.6158 107.993 29.321 108.121 28.9482C108.252 28.5753 108.318 28.1509 108.318 27.6751C108.318 27.1992 108.252 26.7749 108.121 26.402C107.993 26.0291 107.803 25.7344 107.551 25.5178C107.299 25.3011 106.984 25.1928 106.608 25.1928C106.228 25.1928 105.908 25.3011 105.649 25.5178C105.394 25.7344 105.2 26.0291 105.069 26.402C104.941 26.7749 104.877 27.1992 104.877 27.6751C104.877 28.1509 104.941 28.5753 105.069 28.9482C105.2 29.321 105.394 29.6158 105.649 29.8324C105.908 30.0455 106.228 30.152 106.608 30.152ZM116.5 23.5682V25.2727H111.45V23.5682H116.5ZM112.606 31.75V22.9769C112.606 22.3839 112.721 21.892 112.952 21.5014C113.187 21.1108 113.506 20.8178 113.911 20.6225C114.316 20.4272 114.776 20.3295 115.291 20.3295C115.639 20.3295 115.956 20.3562 116.244 20.4094C116.535 20.4627 116.752 20.5107 116.894 20.5533L116.489 22.2578C116.4 22.2294 116.29 22.2028 116.159 22.1779C116.031 22.1531 115.9 22.1406 115.765 22.1406C115.431 22.1406 115.198 22.2188 115.067 22.375C114.935 22.5277 114.87 22.7425 114.87 23.0195V31.75H112.606ZM122.238 23.5682V25.2727H117.311V23.5682H122.238ZM118.429 21.608H120.699V29.2358C120.699 29.4453 120.73 29.6087 120.794 29.7259C120.858 29.8395 120.947 29.9194 121.061 29.9656C121.178 30.0117 121.313 30.0348 121.466 30.0348C121.572 30.0348 121.679 30.0259 121.785 30.0082C121.892 29.9869 121.973 29.9709 122.03 29.9602L122.387 31.6488C122.273 31.6843 122.114 31.7251 121.908 31.7713C121.702 31.821 121.451 31.8512 121.157 31.8619C120.61 31.8832 120.13 31.8104 119.718 31.6435C119.31 31.4766 118.992 31.2173 118.765 30.8658C118.538 30.5142 118.426 30.0703 118.429 29.5341V21.608Z" fill="black"/>
<defs>
<clipPath id="clip0_3536_903">
<rect width="33.5" height="33.5" fill="white" transform="translate(10.5 8)"/>
</clipPath>
</defs>
</svg>
