<svg width="30" height="30" viewBox="0 0 30 30" fill="none" xmlns="http://www.w3.org/2000/svg">
<path d="M4.5 7.5C4.5 6.70435 4.81607 5.94129 5.37868 5.37868C5.94129 4.81607 6.70435 4.5 7.5 4.5H22.5C23.2956 4.5 24.0587 4.81607 24.6213 5.37868C25.1839 5.94129 25.5 6.70435 25.5 7.5V22.5C25.5 23.2956 25.1839 24.0587 24.6213 24.6213C24.0587 25.1839 23.2956 25.5 22.5 25.5H7.5C6.70435 25.5 5.94129 25.1839 5.37868 24.6213C4.81607 24.0587 4.5 23.2956 4.5 22.5V7.5ZM9.4635 9.057C9.37398 9.094 9.29248 9.148 9.2235 9.216L9.216 9.2235C9.07763 9.36381 9.00004 9.55294 9 9.75V12.75C9 12.9489 9.07902 13.1397 9.21967 13.2803C9.36032 13.421 9.55109 13.5 9.75 13.5C9.94891 13.5 10.1397 13.421 10.2803 13.2803C10.421 13.1397 10.5 12.9489 10.5 12.75V11.5605L12.219 13.281C12.3598 13.4218 12.5508 13.5009 12.75 13.5009C12.9492 13.5009 13.1402 13.4218 13.281 13.281C13.4218 13.1402 13.5009 12.9492 13.5009 12.75C13.5009 12.5508 13.4218 12.3598 13.281 12.219L11.5605 10.5H12.75C12.9489 10.5 13.1397 10.421 13.2803 10.2803C13.421 10.1397 13.5 9.94891 13.5 9.75C13.5 9.55109 13.421 9.36032 13.2803 9.21967C13.1397 9.07902 12.9489 9 12.75 9H9.75C9.65169 9.00004 9.55434 9.01941 9.4635 9.057ZM9 17.25V20.25C9.00004 20.4471 9.07763 20.6362 9.216 20.7765L9.2235 20.784C9.3627 20.9213 9.55 20.9988 9.7455 21H12.75C12.9489 21 13.1397 20.921 13.2803 20.7803C13.421 20.6397 13.5 20.4489 13.5 20.25C13.5 20.0511 13.421 19.8603 13.2803 19.7197C13.1397 19.579 12.9489 19.5 12.75 19.5H11.5605L13.281 17.781C13.4218 17.6402 13.5009 17.4492 13.5009 17.25C13.5009 17.0508 13.4218 16.8598 13.281 16.719C13.1402 16.5782 12.9492 16.4991 12.75 16.4991C12.5508 16.4991 12.3598 16.5782 12.219 16.719L10.5 18.4395V17.25C10.5 17.0511 10.421 16.8603 10.2803 16.7197C10.1397 16.579 9.94891 16.5 9.75 16.5C9.55109 16.5 9.36032 16.579 9.21967 16.7197C9.07902 16.8603 9 17.0511 9 17.25ZM20.7765 9.216C20.6362 9.07763 20.4471 9.00004 20.25 9H17.25C17.0511 9 16.8603 9.07902 16.7197 9.21967C16.579 9.36032 16.5 9.55109 16.5 9.75C16.5 9.94891 16.579 10.1397 16.7197 10.2803C16.8603 10.421 17.0511 10.5 17.25 10.5H18.4395L16.719 12.219C16.6493 12.2887 16.594 12.3715 16.5562 12.4626C16.5185 12.5537 16.4991 12.6514 16.4991 12.75C16.4991 12.8486 16.5185 12.9463 16.5562 13.0374C16.594 13.1285 16.6493 13.2113 16.719 13.281C16.7887 13.3507 16.8715 13.406 16.9626 13.4438C17.0537 13.4815 17.1514 13.5009 17.25 13.5009C17.3486 13.5009 17.4463 13.4815 17.5374 13.4438C17.6285 13.406 17.7113 13.3507 17.781 13.281L19.5 11.5605V12.75C19.5 12.9489 19.579 13.1397 19.7197 13.2803C19.8603 13.421 20.0511 13.5 20.25 13.5C20.4489 13.5 20.6397 13.421 20.7803 13.2803C20.921 13.1397 21 12.9489 21 12.75V9.75C21 9.55294 20.9224 9.36381 20.784 9.2235L20.7765 9.216ZM20.5365 20.943C20.626 20.906 20.7075 20.852 20.7765 20.784L20.784 20.7765C20.9224 20.6362 21 20.4471 21 20.25V17.25C21 17.0511 20.921 16.8603 20.7803 16.7197C20.6397 16.579 20.4489 16.5 20.25 16.5C20.0511 16.5 19.8603 16.579 19.7197 16.7197C19.579 16.8603 19.5 17.0511 19.5 17.25V18.4395L17.781 16.719C17.7113 16.6493 17.6285 16.594 17.5374 16.5562C17.4463 16.5185 17.3486 16.4991 17.25 16.4991C17.1514 16.4991 17.0537 16.5185 16.9626 16.5562C16.8715 16.594 16.7887 16.6493 16.719 16.719C16.6493 16.7887 16.594 16.8715 16.5562 16.9626C16.5185 17.0537 16.4991 17.1514 16.4991 17.25C16.4991 17.3486 16.5185 17.4463 16.5562 17.5374C16.594 17.6285 16.6493 17.7113 16.719 17.781L18.4395 19.5H17.25C17.0511 19.5 16.8603 19.579 16.7197 19.7197C16.579 19.8603 16.5 20.0511 16.5 20.25C16.5 20.4489 16.579 20.6397 16.7197 20.7803C16.8603 20.921 17.0511 21 17.25 21H20.25C20.3483 21 20.4457 20.9806 20.5365 20.943Z" fill="#2664EA"/>
</svg>
