<svg width="151" height="50" viewBox="0 0 151 50" fill="none" xmlns="http://www.w3.org/2000/svg">
<rect x="0.5" y="0.634766" width="150" height="49.3652" rx="8" fill="white"/>
<path d="M16.7528 28.6641C16.7528 30.1306 15.3471 31.3287 13.6264 31.3287C11.9057 31.3287 10.5 30.1306 10.5 28.6641C10.5 27.1975 11.9057 25.9995 13.6264 25.9995H16.7528V28.6641Z" fill="#E01E5A"/>
<path d="M18.328 28.6636C18.328 27.197 19.7337 25.999 21.4544 25.999C23.1751 25.999 24.5808 27.197 24.5808 28.6636V35.3354C24.5808 36.8019 23.1751 37.9999 21.4544 37.9999C19.7337 37.9999 18.328 36.8019 18.328 35.3354V28.6636Z" fill="#E01E5A"/>
<path d="M21.4544 17.9639C19.7337 17.9639 18.328 16.7659 18.328 15.2993C18.328 13.8328 19.7337 12.6348 21.4544 12.6348C23.1751 12.6348 24.5808 13.8328 24.5808 15.2993V17.9639H21.4544Z" fill="#36C5F0"/>
<path d="M21.4544 19.3066C23.1752 19.3066 24.5808 20.5047 24.5808 21.9712C24.5808 23.4378 23.1752 24.6358 21.4544 24.6358H13.6264C11.9057 24.6358 10.5 23.4378 10.5 21.9712C10.5 20.5047 11.9057 19.3066 13.6264 19.3066H21.4544Z" fill="#36C5F0"/>
<path d="M34.0084 21.9712C34.0084 20.5047 35.4141 19.3066 37.1348 19.3066C38.8555 19.3066 40.2612 20.5047 40.2612 21.9712C40.2612 23.4378 38.8555 24.6358 37.1348 24.6358H34.0084V21.9712Z" fill="#2EB67D"/>
<path d="M32.4331 21.9711C32.4331 23.4376 31.0274 24.6357 29.3067 24.6357C27.586 24.6357 26.1803 23.4376 26.1803 21.9711V15.2993C26.1803 13.8328 27.586 12.6348 29.3067 12.6348C31.0274 12.6348 32.4331 13.8328 32.4331 15.2993V21.9711Z" fill="#2EB67D"/>
<path d="M29.3068 32.6709C31.0275 32.6709 32.4332 33.8689 32.4332 35.3355C32.4332 36.802 31.0275 38 29.3068 38C27.5861 38 26.1804 36.802 26.1804 35.3355V32.6709H29.3068Z" fill="#ECB22E"/>
<path d="M29.3068 31.3287C27.5861 31.3287 26.1804 30.1306 26.1804 28.6641C26.1804 27.1975 27.5861 25.9995 29.3068 25.9995H37.1349C38.8556 25.9995 40.2612 27.1975 40.2612 28.6641C40.2612 30.1306 38.8556 31.3287 37.1349 31.3287H29.3068Z" fill="#ECB22E"/>
<path d="M55.1271 24.4866C55.0845 24.057 54.9016 23.7231 54.5785 23.4852C54.2553 23.2473 53.8167 23.1283 53.2628 23.1283C52.8863 23.1283 52.5685 23.1816 52.3093 23.2881C52.05 23.3911 51.8512 23.5349 51.7127 23.7196C51.5777 23.9043 51.5103 24.1138 51.5103 24.3481C51.5032 24.5435 51.544 24.7139 51.6328 24.8595C51.7251 25.0051 51.8512 25.1312 52.011 25.2377C52.1708 25.3407 52.3554 25.4312 52.565 25.5094C52.7745 25.5839 52.9982 25.6479 53.2361 25.7011L54.2162 25.9355C54.6921 26.042 55.1289 26.1841 55.5266 26.3616C55.9243 26.5392 56.2688 26.7576 56.56 27.0168C56.8512 27.2761 57.0767 27.5815 57.2365 27.933C57.3998 28.2846 57.4833 28.6876 57.4868 29.1422C57.4833 29.8098 57.3128 30.3886 56.9755 30.8787C56.6417 31.3652 56.1587 31.7434 55.5266 32.0133C54.8981 32.2796 54.1399 32.4128 53.2521 32.4128C52.3714 32.4128 51.6044 32.2778 50.951 32.0079C50.3011 31.7381 49.7933 31.3386 49.4275 30.8094C49.0653 30.2768 48.8753 29.618 48.8576 28.8332H51.0895C51.1143 29.199 51.2191 29.5044 51.4037 29.7494C51.592 29.9909 51.8423 30.1738 52.1548 30.2981C52.4709 30.4188 52.8277 30.4792 53.2255 30.4792C53.6161 30.4792 53.9552 30.4224 54.2429 30.3087C54.5341 30.1951 54.7596 30.0371 54.9194 29.8347C55.0792 29.6322 55.1591 29.3996 55.1591 29.1369C55.1591 28.8918 55.0863 28.6859 54.9407 28.519C54.7986 28.3521 54.5891 28.21 54.3121 28.0928C54.0387 27.9756 53.7031 27.8691 53.3054 27.7732L52.1175 27.4749C51.1978 27.2512 50.4716 26.9014 49.9389 26.4256C49.4062 25.9497 49.1417 25.3087 49.1452 24.5026C49.1417 23.8421 49.3174 23.265 49.6726 22.7714C50.0312 22.2778 50.5231 21.8925 51.1481 21.6155C51.7731 21.3386 52.4833 21.2001 53.2787 21.2001C54.0884 21.2001 54.7951 21.3386 55.3988 21.6155C56.006 21.8925 56.4783 22.2778 56.8157 22.7714C57.153 23.265 57.327 23.8368 57.3377 24.4866H55.1271ZM61.2648 21.3492V32.2583H58.9956V21.3492H61.2648ZM65.4156 32.4128C64.8936 32.4128 64.4284 32.3222 64.02 32.1411C63.6117 31.9565 63.2885 31.6848 63.0506 31.3261C62.8162 30.9639 62.699 30.5129 62.699 29.9731C62.699 29.5186 62.7825 29.1369 62.9494 28.8279C63.1163 28.519 63.3436 28.2704 63.6312 28.0822C63.9188 27.894 64.2455 27.7519 64.6113 27.656C64.9806 27.5601 65.3677 27.4927 65.7725 27.4536C66.2484 27.4039 66.6319 27.3577 66.9231 27.3151C67.2143 27.269 67.4256 27.2015 67.557 27.1127C67.6884 27.0239 67.7541 26.8925 67.7541 26.7185V26.6866C67.7541 26.3492 67.6475 26.0882 67.4345 25.9035C67.2249 25.7189 66.9266 25.6266 66.5396 25.6266C66.1312 25.6266 65.8063 25.7171 65.5648 25.8982C65.3233 26.0758 65.1635 26.2995 65.0854 26.5694L62.9867 26.3989C63.0932 25.9018 63.3027 25.4721 63.6152 25.1099C63.9277 24.7441 64.3308 24.4636 64.8244 24.2682C65.3215 24.0694 65.8968 23.9699 66.5502 23.9699C67.0048 23.9699 67.4398 24.0232 67.8553 24.1297C68.2743 24.2363 68.6454 24.4014 68.9686 24.6251C69.2953 24.8489 69.5527 25.1365 69.7409 25.4881C69.9291 25.8361 70.0232 26.2533 70.0232 26.7398V32.2583H67.8712V31.1237H67.8073C67.6759 31.3794 67.5002 31.6049 67.28 31.8002C67.0598 31.992 66.7953 32.1429 66.4863 32.253C66.1774 32.3595 65.8205 32.4128 65.4156 32.4128ZM66.0655 30.8467C66.3993 30.8467 66.694 30.781 66.9497 30.6496C67.2054 30.5147 67.4061 30.3336 67.5516 30.1063C67.6972 29.879 67.77 29.6216 67.77 29.3339V28.4657C67.699 28.5119 67.6014 28.5545 67.4771 28.5935C67.3563 28.629 67.2196 28.6628 67.0669 28.6947C66.9142 28.7231 66.7615 28.7498 66.6088 28.7746C66.4561 28.7959 66.3176 28.8155 66.1933 28.8332C65.927 28.8723 65.6944 28.9344 65.4955 29.0197C65.2967 29.1049 65.1422 29.2203 65.0321 29.3659C64.922 29.5079 64.867 29.6855 64.867 29.8986C64.867 30.2075 64.9788 30.4437 65.2026 30.607C65.4298 30.7668 65.7175 30.8467 66.0655 30.8467ZM75.4804 32.4181C74.6424 32.4181 73.9215 32.2405 73.3178 31.8854C72.7177 31.5268 72.256 31.0296 71.9329 30.394C71.6133 29.7583 71.4535 29.0268 71.4535 28.1994C71.4535 27.3613 71.615 26.6262 71.9382 25.9941C72.2649 25.3584 72.7283 24.8631 73.3285 24.5079C73.9286 24.1493 74.6424 23.9699 75.4698 23.9699C76.1836 23.9699 76.8086 24.0996 77.3448 24.3588C77.881 24.618 78.3054 24.982 78.6179 25.4508C78.9304 25.9195 79.1026 26.4699 79.1346 27.1021H76.9932C76.9329 26.6937 76.7731 26.3652 76.5138 26.1166C76.2581 25.8645 75.9226 25.7384 75.5071 25.7384C75.1555 25.7384 74.8483 25.8343 74.5856 26.0261C74.3263 26.2143 74.1239 26.4895 73.9783 26.8517C73.8327 27.2139 73.7599 27.6525 73.7599 28.1674C73.7599 28.6894 73.8309 29.1333 73.973 29.4991C74.1186 29.8648 74.3228 30.1436 74.5856 30.3354C74.8483 30.5271 75.1555 30.623 75.5071 30.623C75.7663 30.623 75.9989 30.5697 76.2049 30.4632C76.4144 30.3567 76.5866 30.2022 76.7216 29.9998C76.8601 29.7938 76.9506 29.547 76.9932 29.2594H79.1346C79.0991 29.8844 78.9286 30.4348 78.6232 30.9106C78.3214 31.3829 77.9041 31.7523 77.3714 32.0186C76.8388 32.2849 76.2084 32.4181 75.4804 32.4181ZM82.6435 29.9039L82.6489 27.182H82.9791L85.5999 24.0765H88.2046L84.6837 28.1887H84.1457L82.6435 29.9039ZM80.5874 32.2583V21.3492H82.8566V32.2583H80.5874ZM85.7011 32.2583L83.2934 28.6947L84.8062 27.0914L88.3591 32.2583H85.7011Z" fill="black"/>
</svg>
