<svg width="30" height="30" viewBox="0 0 30 30" fill="none" xmlns="http://www.w3.org/2000/svg">
<path d="M16.6238 3.93555L27.4163 22.628C27.5808 22.9131 27.6675 23.2364 27.6675 23.5655C27.6675 23.8947 27.5808 24.218 27.4163 24.503C27.2517 24.7881 27.015 25.0248 26.73 25.1893C26.445 25.3539 26.1216 25.4405 25.7925 25.4405H4.2075C3.87838 25.4405 3.55505 25.3539 3.27002 25.1893C2.98499 25.0248 2.7483 24.7881 2.58374 24.503C2.41918 24.218 2.33255 23.8947 2.33255 23.5655C2.33255 23.2364 2.41919 22.9131 2.58375 22.628L13.3763 3.93555C14.0975 2.68555 15.9013 2.68555 16.6238 3.93555ZM15 18.7505C14.6685 18.7505 14.3505 18.8822 14.1161 19.1167C13.8817 19.3511 13.75 19.669 13.75 20.0005C13.75 20.3321 13.8817 20.65 14.1161 20.8844C14.3505 21.1189 14.6685 21.2505 15 21.2505C15.3315 21.2505 15.6495 21.1189 15.8839 20.8844C16.1183 20.65 16.25 20.3321 16.25 20.0005C16.25 19.669 16.1183 19.3511 15.8839 19.1167C15.6495 18.8822 15.3315 18.7505 15 18.7505ZM15 10.0005C14.6938 10.0006 14.3983 10.113 14.1695 10.3164C13.9407 10.5199 13.7946 10.8002 13.7588 11.1043L13.75 11.2505V16.2505C13.7504 16.5691 13.8724 16.8756 14.0911 17.1073C14.3098 17.3389 14.6087 17.4783 14.9267 17.497C15.2448 17.5157 15.558 17.4122 15.8023 17.2077C16.0466 17.0032 16.2036 16.7132 16.2413 16.3968L16.25 16.2505V11.2505C16.25 10.919 16.1183 10.6011 15.8839 10.3667C15.6495 10.1322 15.3315 10.0005 15 10.0005Z" fill="#2664EA"/>
</svg>
