<svg width="60" height="60" viewBox="0 0 60 60" fill="none" xmlns="http://www.w3.org/2000/svg">
<circle cx="30" cy="30" r="29.5" fill="#F6FBFF" stroke="#00C9B7"/>
<path d="M41.25 18.75H33.525C33 17.3 31.625 16.25 30 16.25C28.375 16.25 27 17.3 26.475 18.75H18.75V41.25H41.25V18.75ZM28.75 32.7125L26.9875 34.4875L22.5 30L26.9875 25.5125L28.75 27.2875L26.0375 30L28.75 32.7125ZM30 20.3125C29.4875 20.3125 29.0625 19.8875 29.0625 19.375C29.0625 18.8625 29.4875 18.4375 30 18.4375C30.5125 18.4375 30.9375 18.8625 30.9375 19.375C30.9375 19.8875 30.5125 20.3125 30 20.3125ZM33.0125 34.4875L31.25 32.7125L33.9625 30L31.25 27.2875L33.0125 25.5125L37.5 30L33.0125 34.4875Z" fill="#2664EA"/>
</svg>
