<svg width="151" height="50" viewBox="0 0 151 50" fill="none" xmlns="http://www.w3.org/2000/svg">
<g clip-path="url(#clip0_3536_916)">
<rect x="0.5" width="150" height="50" rx="8" fill="white"/>
<g clip-path="url(#clip1_3536_916)">
<path d="M21.0586 22.1239C21.0586 22.5908 21.1209 22.9643 21.1832 23.2444C21.2766 23.5245 21.4012 23.8047 21.5881 24.147C21.6504 24.2404 21.6815 24.3338 21.6815 24.4272C21.6815 24.5517 21.6192 24.6762 21.4324 24.8007L20.6537 25.3298C20.5291 25.3921 20.4357 25.4543 20.3423 25.4543C20.2177 25.4543 20.0931 25.3921 19.9685 25.2676C19.7816 25.0808 19.657 24.894 19.5325 24.6762C19.4079 24.4583 19.2833 24.2404 19.1587 23.9292C18.1932 25.0808 16.9785 25.6411 15.4835 25.6411C14.4245 25.6411 13.6147 25.3298 12.9918 24.7384C12.3688 24.147 12.0574 23.3378 12.0574 22.3418C12.0574 21.2835 12.4311 20.412 13.1786 19.7895C13.9261 19.167 14.954 18.8246 16.231 18.8246C16.667 18.8246 17.1031 18.8557 17.5391 18.918C18.0063 18.9802 18.4735 19.0736 18.9718 19.1981V18.2954C18.9718 17.3617 18.7849 16.6769 18.38 16.3034C17.9751 15.9299 17.3211 15.7432 16.3555 15.7432C15.9195 15.7432 15.4835 15.8054 15.0163 15.8988C14.5491 16.0233 14.113 16.1478 13.677 16.3345C13.4901 16.3968 13.3344 16.459 13.2409 16.4902C13.1475 16.4902 13.0852 16.5213 13.0541 16.5213C12.8672 16.5213 12.8049 16.3968 12.8049 16.1478V15.5253C12.8049 15.3385 12.836 15.1829 12.8983 15.0895C12.9606 14.9961 13.0852 14.9028 13.2409 14.8405C13.677 14.6226 14.2065 14.4359 14.7982 14.2803C15.4212 14.1246 16.0441 14.0312 16.7293 14.0312C18.2243 14.0312 19.2833 14.3736 19.9996 15.0273C20.6849 15.712 21.0275 16.708 21.0275 18.1087L21.0586 22.1239ZM16.0129 24.0225C16.4178 24.0225 16.8539 23.9603 17.2899 23.8047C17.726 23.649 18.1309 23.3689 18.4735 22.9954C18.6604 22.7464 18.8161 22.4974 18.9095 22.1861C18.9718 21.8749 19.0341 21.5325 19.0341 21.0967V20.5676C18.6604 20.4742 18.2866 20.412 17.8817 20.3497C17.4768 20.2875 17.1031 20.2875 16.6982 20.2875C15.8572 20.2875 15.2654 20.4431 14.8294 20.7855C14.4245 21.1279 14.2065 21.5947 14.2065 22.2173C14.2065 22.8086 14.3622 23.2444 14.6737 23.5245C14.9851 23.898 15.4212 24.0225 16.0129 24.0225ZM26.0109 25.3921C25.7928 25.3921 25.6371 25.3609 25.5437 25.2676C25.4502 25.2053 25.3568 25.0186 25.2945 24.7695L22.3668 15.1206C22.3045 14.8716 22.2422 14.716 22.2422 14.6226C22.2422 14.4359 22.3356 14.3114 22.5536 14.3114H23.7683C24.0175 14.3114 24.1732 14.3425 24.2667 14.4359C24.3601 14.4981 24.4536 14.6849 24.5158 14.9339L26.6026 23.1821L28.5337 14.9339C28.596 14.6849 28.6583 14.5293 28.7829 14.4359C28.8763 14.3736 29.0632 14.3114 29.2812 14.3114H30.2779C30.5271 14.3114 30.6828 14.3425 30.7762 14.4359C30.8697 14.4981 30.9631 14.6849 31.0254 14.9339L32.9876 23.2755L35.1367 14.9339C35.199 14.6849 35.2924 14.5293 35.3859 14.4359C35.4793 14.3736 35.635 14.3114 35.8842 14.3114H37.0366C37.2235 14.3114 37.3481 14.4048 37.3481 14.6226C37.3481 14.6849 37.3481 14.7471 37.3169 14.8094C37.3169 14.8716 37.2858 14.9961 37.2235 15.1206L34.2023 24.7695C34.14 25.0186 34.0466 25.1742 33.9531 25.2676C33.8597 25.3298 33.704 25.3921 33.4859 25.3921H32.427C32.1778 25.3921 32.0221 25.3609 31.9286 25.2676C31.8352 25.1742 31.7418 25.0186 31.6795 24.7695L29.7484 16.7392L27.8173 24.7695C27.755 25.0186 27.6928 25.1742 27.5682 25.2676C27.4747 25.3609 27.2879 25.3921 27.0698 25.3921H26.0109ZM42.0511 25.7033C41.3971 25.7033 40.743 25.6411 40.1201 25.4854C39.4972 25.3298 38.9988 25.1742 38.6874 24.9874C38.5005 24.8629 38.3447 24.7384 38.3136 24.645C38.2825 24.5517 38.2202 24.396 38.2202 24.3027V23.6802C38.2202 23.4312 38.3136 23.3066 38.5005 23.3066C38.5628 23.3066 38.6562 23.3066 38.7185 23.3378C38.7808 23.3689 38.9054 23.4 39.03 23.4623C39.466 23.649 39.9021 23.8047 40.4004 23.898C40.8987 23.9914 41.3971 24.0537 41.8954 24.0537C42.6741 24.0537 43.297 23.9292 43.7019 23.649C44.1379 23.3689 44.356 22.9643 44.356 22.4663C44.356 22.1239 44.2314 21.8437 44.0134 21.5947C43.7953 21.3457 43.3593 21.159 42.7675 20.9411L40.961 20.3809C40.0578 20.1007 39.3726 19.665 38.9677 19.1047C38.5628 18.5444 38.3447 17.9531 38.3447 17.2994C38.3447 16.7703 38.4693 16.3034 38.6874 15.9299C38.9054 15.5564 39.2168 15.1829 39.5906 14.9028C39.9643 14.6226 40.4004 14.4048 40.8987 14.2491C41.3971 14.0935 41.9266 14.0312 42.456 14.0312C42.7364 14.0312 43.0167 14.0313 43.297 14.0935C43.5773 14.1246 43.8576 14.1869 44.1068 14.218C44.356 14.2803 44.6051 14.3425 44.8232 14.4048C45.0412 14.467 45.2281 14.5604 45.3526 14.6226C45.5395 14.716 45.6641 14.8094 45.7264 14.9339C45.7887 15.0273 45.851 15.1829 45.851 15.3385V15.9299C45.851 16.1789 45.7575 16.3345 45.5707 16.3345C45.4772 16.3345 45.3215 16.2723 45.1035 16.1789C44.3871 15.8677 43.6085 15.6809 42.7052 15.6809C41.9888 15.6809 41.4282 15.8054 41.0545 16.0233C40.6807 16.2412 40.4627 16.6147 40.4627 17.1438C40.4627 17.4862 40.5873 17.7974 40.8364 18.0153C41.0856 18.2643 41.5528 18.4822 42.2069 18.7001L43.9822 19.2603C44.8854 19.5405 45.5395 19.9451 45.9133 20.4431C46.287 20.9411 46.4739 21.5325 46.4739 22.1861C46.4739 22.7153 46.3493 23.2133 46.1624 23.6179C45.9444 24.0537 45.633 24.4272 45.2592 24.7073C44.8854 25.0186 44.4183 25.2364 43.8888 25.3921C43.2658 25.6411 42.6741 25.7033 42.0511 25.7033Z" fill="#252F3E"/>
<path fill-rule="evenodd" clip-rule="evenodd" d="M44.4182 31.7731C40.3069 34.7923 34.3269 36.4108 29.2189 36.4108C22.0241 36.4108 15.5457 33.7652 10.6558 29.3453C10.282 29.003 10.6246 28.5361 11.0918 28.7851C16.3867 31.8665 22.8962 33.7029 29.6549 33.7029C34.2023 33.7029 39.2168 32.7691 43.8265 30.8082C44.4805 30.5281 45.0723 31.2751 44.4182 31.7731Z" fill="#FF9900"/>
<path fill-rule="evenodd" clip-rule="evenodd" d="M46.1 29.8432C45.5706 29.1585 42.6428 29.532 41.3035 29.6876C40.8986 29.7498 40.8363 29.3763 41.2101 29.1273C43.5461 27.4777 47.4082 27.9446 47.8442 28.5048C48.2803 29.0651 47.7196 32.9246 45.5394 34.7611C45.1968 35.0412 44.8853 34.8856 45.0411 34.5121C45.5394 33.267 46.6295 30.4969 46.1 29.8432Z" fill="#FF9900"/>
</g>
<path d="M58.8285 32.2051H56.3569L60.1229 21.296H63.0952L66.8558 32.2051H64.3842L61.6516 23.7889H61.5664L58.8285 32.2051ZM58.674 27.9171H64.5121V29.7175H58.674V27.9171ZM68.1262 32.2051V24.0233H70.2889V25.4668H70.3848C70.5552 24.9874 70.8393 24.6092 71.237 24.3322C71.6348 24.0552 72.1106 23.9167 72.6646 23.9167C73.2257 23.9167 73.7033 24.057 74.0975 24.3375C74.4917 24.6145 74.7544 24.9909 74.8858 25.4668H74.9711C75.138 24.998 75.4398 24.6234 75.8766 24.3429C76.3169 24.0588 76.8372 23.9167 77.4373 23.9167C78.2008 23.9167 78.8205 24.16 79.2963 24.6465C79.7757 25.1294 80.0154 25.8148 80.0154 26.7026V32.2051H77.7516V27.15C77.7516 26.6955 77.6309 26.3546 77.3894 26.1273C77.1479 25.9 76.8461 25.7864 76.4838 25.7864C76.0719 25.7864 75.7505 25.9178 75.5197 26.1806C75.2889 26.4398 75.1735 26.7825 75.1735 27.2086V32.2051H72.9735V27.1021C72.9735 26.7008 72.8581 26.3812 72.6273 26.1433C72.4 25.9054 72.1 25.7864 71.7271 25.7864C71.475 25.7864 71.2477 25.8503 71.0453 25.9782C70.8464 26.1025 70.6884 26.2782 70.5712 26.5055C70.454 26.7292 70.3954 26.992 70.3954 27.2939V32.2051H68.1262ZM84.141 32.3596C83.619 32.3596 83.1538 32.269 82.7454 32.0879C82.337 31.9032 82.0138 31.6316 81.7759 31.2729C81.5415 30.9107 81.4244 30.4597 81.4244 29.9199C81.4244 29.4654 81.5078 29.0836 81.6747 28.7747C81.8416 28.4657 82.0689 28.2172 82.3565 28.0289C82.6442 27.8407 82.9709 27.6987 83.3366 27.6028C83.706 27.5069 84.093 27.4395 84.4979 27.4004C84.9737 27.3507 85.3572 27.3045 85.6484 27.2619C85.9396 27.2157 86.1509 27.1483 86.2823 27.0595C86.4137 26.9707 86.4794 26.8393 86.4794 26.6653V26.6333C86.4794 26.296 86.3729 26.035 86.1598 25.8503C85.9503 25.6657 85.652 25.5733 85.2649 25.5733C84.8565 25.5733 84.5316 25.6639 84.2901 25.845C84.0487 26.0225 83.8888 26.2463 83.8107 26.5162L81.712 26.3457C81.8185 25.8485 82.0281 25.4189 82.3406 25.0566C82.6531 24.6909 83.0561 24.4103 83.5497 24.215C84.0469 24.0162 84.6222 23.9167 85.2756 23.9167C85.7301 23.9167 86.1651 23.97 86.5806 24.0765C86.9996 24.1831 87.3707 24.3482 87.6939 24.5719C88.0206 24.7956 88.2781 25.0833 88.4663 25.4348C88.6545 25.7828 88.7486 26.2001 88.7486 26.6866V32.2051H86.5966V31.0705H86.5327C86.4013 31.3262 86.2255 31.5517 86.0053 31.747C85.7852 31.9387 85.5206 32.0897 85.2116 32.1998C84.9027 32.3063 84.5458 32.3596 84.141 32.3596ZM84.7908 30.7935C85.1246 30.7935 85.4194 30.7278 85.6751 30.5964C85.9308 30.4615 86.1314 30.2804 86.277 30.0531C86.4226 29.8258 86.4954 29.5684 86.4954 29.2807V28.4125C86.4244 28.4586 86.3267 28.5012 86.2024 28.5403C86.0817 28.5758 85.945 28.6096 85.7923 28.6415C85.6396 28.6699 85.4869 28.6966 85.3342 28.7214C85.1815 28.7427 85.043 28.7623 84.9187 28.78C84.6523 28.8191 84.4197 28.8812 84.2209 28.9664C84.022 29.0517 83.8675 29.1671 83.7575 29.3127C83.6474 29.4547 83.5923 29.6323 83.5923 29.8453C83.5923 30.1543 83.7042 30.3904 83.9279 30.5538C84.1552 30.7136 84.4428 30.7935 84.7908 30.7935ZM90.4664 32.2051V30.8521L94.4721 25.8929V25.8343H90.6049V24.0233H97.2047V25.4988L93.4441 30.3354V30.394H97.3432V32.2051H90.4664ZM102.541 32.3649C101.713 32.3649 100.998 32.1891 100.394 31.8375C99.7939 31.4824 99.3305 30.9888 99.0038 30.3567C98.6771 29.7211 98.5138 28.9842 98.5138 28.1461C98.5138 27.301 98.6771 26.5623 99.0038 25.9302C99.3305 25.2946 99.7939 24.801 100.394 24.4494C100.998 24.0943 101.713 23.9167 102.541 23.9167C103.368 23.9167 104.082 24.0943 104.682 24.4494C105.286 24.801 105.751 25.2946 106.078 25.9302C106.404 26.5623 106.568 27.301 106.568 28.1461C106.568 28.9842 106.404 29.7211 106.078 30.3567C105.751 30.9888 105.286 31.4824 104.682 31.8375C104.082 32.1891 103.368 32.3649 102.541 32.3649ZM102.551 30.6071C102.928 30.6071 103.242 30.5005 103.494 30.2875C103.746 30.0708 103.936 29.7761 104.064 29.4032C104.196 29.0304 104.261 28.606 104.261 28.1301C104.261 27.6543 104.196 27.2299 104.064 26.8571C103.936 26.4842 103.746 26.1895 103.494 25.9728C103.242 25.7562 102.928 25.6479 102.551 25.6479C102.171 25.6479 101.852 25.7562 101.593 25.9728C101.337 26.1895 101.143 26.4842 101.012 26.8571C100.884 27.2299 100.82 27.6543 100.82 28.1301C100.82 28.606 100.884 29.0304 101.012 29.4032C101.143 29.7761 101.337 30.0708 101.593 30.2875C101.852 30.5005 102.171 30.6071 102.551 30.6071ZM110.312 27.475V32.2051H108.043V24.0233H110.206V25.4668H110.302C110.483 24.9909 110.786 24.6145 111.213 24.3375C111.639 24.057 112.155 23.9167 112.763 23.9167C113.331 23.9167 113.826 24.041 114.249 24.2896C114.671 24.5382 115 24.8933 115.234 25.3549C115.469 25.813 115.586 26.3599 115.586 26.9956V32.2051H113.317V27.4004C113.32 26.8997 113.192 26.5091 112.933 26.2285C112.674 25.9444 112.317 25.8024 111.862 25.8024C111.557 25.8024 111.287 25.8681 111.053 25.9995C110.822 26.1309 110.641 26.3226 110.509 26.5748C110.382 26.8233 110.316 27.1234 110.312 27.475Z" fill="black"/>
</g>
<defs>
<clipPath id="clip0_3536_916">
<rect x="0.5" width="150" height="50" rx="8" fill="white"/>
</clipPath>
<clipPath id="clip1_3536_916">
<rect width="37.5" height="22.4104" fill="white" transform="translate(10.5 14)"/>
</clipPath>
</defs>
</svg>
