<svg width="30" height="30" viewBox="0 0 30 30" fill="none" xmlns="http://www.w3.org/2000/svg">
<path d="M11.25 5L3.75 10V25L11.25 20L18.75 25L26.25 20V5L18.75 10L11.25 5Z" fill="#2664EA"/>
<path fill-rule="evenodd" clip-rule="evenodd" d="M26.84 3.89786C27.0395 4.00468 27.2063 4.16365 27.3225 4.35781C27.4387 4.55198 27.5001 4.77406 27.5 5.00036V20.0004C27.5 20.2061 27.4493 20.4087 27.3522 20.5901C27.2552 20.7715 27.1149 20.9262 26.9438 21.0404L19.4438 26.0404C19.2383 26.1774 18.9969 26.2505 18.75 26.2505C18.5031 26.2505 18.2617 26.1774 18.0562 26.0404L11.25 21.5029L4.44375 26.0404C4.2555 26.166 4.03668 26.2381 3.81065 26.2491C3.58461 26.2601 3.35983 26.2095 3.16029 26.1027C2.96076 25.9959 2.79395 25.837 2.67766 25.6429C2.56137 25.4487 2.49997 25.2267 2.5 25.0004V10.0004C2.49997 9.79462 2.55072 9.59205 2.64776 9.41063C2.74479 9.22921 2.8851 9.07455 3.05625 8.96036L10.5562 3.96036C10.7617 3.82331 11.0031 3.75017 11.25 3.75017C11.4969 3.75017 11.7383 3.82331 11.9438 3.96036L18.75 8.49786L25.5562 3.96036C25.7445 3.83468 25.9634 3.76249 26.1895 3.75148C26.4156 3.74047 26.6404 3.79107 26.84 3.89786ZM5 10.6691V22.6641L10.5562 18.9604C10.7617 18.8233 11.0031 18.7502 11.25 18.7502C11.4969 18.7502 11.7383 18.8233 11.9438 18.9604L18.75 23.4979L25 19.3316V7.33661L19.4438 11.0404C19.2383 11.1774 18.9969 11.2505 18.75 11.2505C18.5031 11.2505 18.2617 11.1774 18.0562 11.0404L11.25 6.50286L5 10.6691Z" fill="#2664EA"/>
</svg>
