<svg width="61" height="60" viewBox="0 0 61 60" fill="none" xmlns="http://www.w3.org/2000/svg">
<circle cx="30.6665" cy="30" r="29.5" fill="#F6FBFF" stroke="#00C9B7"/>
<path d="M39.334 29.1875C39.334 28.9389 39.2352 28.7004 39.0594 28.5246C38.8836 28.3488 38.6451 28.25 38.3965 28.25H34.6465C34.3978 28.25 34.1594 28.3488 33.9836 28.5246C33.8078 28.7004 33.709 28.9389 33.709 29.1875V37.625H31.834V17.3125C31.834 16.4025 31.8315 15.8125 31.774 15.38C31.719 14.9737 31.6302 14.8463 31.559 14.775C31.4877 14.7038 31.3602 14.615 30.954 14.56C30.5202 14.5025 29.9315 14.5 29.0215 14.5C28.1115 14.5 27.5215 14.5025 27.089 14.56C26.6827 14.615 26.5552 14.7038 26.484 14.775C26.4127 14.8463 26.324 14.9737 26.269 15.38C26.2115 15.8138 26.209 16.4025 26.209 17.3125V37.625H24.334V22.9375C24.334 22.6889 24.2352 22.4504 24.0594 22.2746C23.8836 22.0988 23.6451 22 23.3965 22H19.6465C19.3978 22 19.1594 22.0988 18.9836 22.2746C18.8078 22.4504 18.709 22.6889 18.709 22.9375V37.625H16.5215C16.2728 37.625 16.0344 37.7238 15.8586 37.8996C15.6828 38.0754 15.584 38.3139 15.584 38.5625C15.584 38.8111 15.6828 39.0496 15.8586 39.2254C16.0344 39.4012 16.2728 39.5 16.5215 39.5H41.5215C41.7701 39.5 42.0086 39.4012 42.1844 39.2254C42.3602 39.0496 42.459 38.8111 42.459 38.5625C42.459 38.3139 42.3602 38.0754 42.1844 37.8996C42.0086 37.7238 41.7701 37.625 41.5215 37.625H39.334V29.1875Z" fill="#2563EB"/>
</svg>
