<svg width="30" height="30" viewBox="0 0 30 30" fill="none" xmlns="http://www.w3.org/2000/svg">
<path d="M22.9688 4.6875H13.5938C12.7238 4.68843 11.8897 5.03443 11.2746 5.64958C10.6594 6.26474 10.3134 7.09879 10.3125 7.96875V14.0625H19.299L16.2123 10.9752C16.0439 10.7979 15.9514 10.5619 15.9545 10.3175C15.9577 10.073 16.0562 9.83944 16.2291 9.66656C16.4019 9.49368 16.6355 9.39518 16.88 9.39205C17.1244 9.38892 17.3604 9.48141 17.5377 9.64981L22.2252 14.3373C22.4009 14.5131 22.4996 14.7515 22.4996 15C22.4996 15.2485 22.4009 15.4869 22.2252 15.6627L17.5377 20.3502C17.3604 20.5186 17.1244 20.6111 16.88 20.608C16.6355 20.6048 16.4019 20.5063 16.2291 20.3334C16.0562 20.1606 15.9577 19.927 15.9545 19.6825C15.9514 19.4381 16.0439 19.2021 16.2123 19.0248L19.299 15.9375H10.3125V22.0312C10.3125 23.9092 12.2924 25.3125 14.0625 25.3125H22.9688C23.8387 25.3116 24.6728 24.9656 25.2879 24.3504C25.9031 23.7353 26.2491 22.9012 26.25 22.0312V7.96875C26.2491 7.09879 25.9031 6.26474 25.2879 5.64958C24.6728 5.03443 23.8387 4.68843 22.9688 4.6875ZM4.6875 14.0625C4.43886 14.0625 4.2004 14.1613 4.02459 14.3371C3.84877 14.5129 3.75 14.7514 3.75 15C3.75 15.2486 3.84877 15.4871 4.02459 15.6629C4.2004 15.8387 4.43886 15.9375 4.6875 15.9375H10.3125V14.0625H4.6875Z" fill="#2664EA"/>
</svg>
