<svg width="30" height="30" viewBox="0 0 30 30" fill="none" xmlns="http://www.w3.org/2000/svg">
<path d="M11.0625 15L12.875 13.1875C13.125 12.9375 13.245 12.6458 13.235 12.3125C13.225 11.9792 13.105 11.6875 12.875 11.4375C12.625 11.1875 12.3283 11.0575 11.985 11.0475C11.6417 11.0375 11.3446 11.1571 11.0938 11.4062L8.375 14.125C8.125 14.375 8 14.6667 8 15C8 15.3333 8.125 15.625 8.375 15.875L11.0938 18.5938C11.3438 18.8438 11.6408 18.9638 11.985 18.9538C12.3292 18.9438 12.6258 18.8133 12.875 18.5625C13.1042 18.3125 13.2242 18.0208 13.235 17.6875C13.2458 17.3542 13.1258 17.0625 12.875 16.8125L11.0625 15ZM18.9375 15L17.125 16.8125C16.875 17.0625 16.755 17.3542 16.765 17.6875C16.775 18.0208 16.895 18.3125 17.125 18.5625C17.375 18.8125 17.6721 18.9425 18.0163 18.9525C18.3604 18.9625 18.6571 18.8429 18.9062 18.5938L21.625 15.875C21.875 15.625 22 15.3333 22 15C22 14.6667 21.875 14.375 21.625 14.125L18.9062 11.4062C18.6562 11.1562 18.3596 11.0363 18.0163 11.0462C17.6729 11.0562 17.3758 11.1867 17.125 11.4375C16.8958 11.6875 16.7762 11.9792 16.7663 12.3125C16.7563 12.6458 16.8758 12.9375 17.125 13.1875L18.9375 15ZM6.25 26.25C5.5625 26.25 4.97417 26.0054 4.485 25.5163C3.99583 25.0271 3.75083 24.4383 3.75 23.75V6.25C3.75 5.5625 3.995 4.97417 4.485 4.485C4.975 3.99583 5.56333 3.75083 6.25 3.75H11.5C11.7708 3 12.2242 2.39583 12.86 1.9375C13.4958 1.47917 14.2092 1.25 15 1.25C15.7908 1.25 16.5046 1.47917 17.1413 1.9375C17.7779 2.39583 18.2308 3 18.5 3.75H23.75C24.4375 3.75 25.0263 3.995 25.5163 4.485C26.0063 4.975 26.2508 5.56333 26.25 6.25V23.75C26.25 24.4375 26.0054 25.0263 25.5163 25.5163C25.0271 26.0063 24.4383 26.2508 23.75 26.25H6.25ZM15 5.3125C15.2708 5.3125 15.495 5.22375 15.6725 5.04625C15.85 4.86875 15.9383 4.645 15.9375 4.375C15.9367 4.105 15.8479 3.88125 15.6712 3.70375C15.4946 3.52625 15.2708 3.4375 15 3.4375C14.7292 3.4375 14.5054 3.52625 14.3288 3.70375C14.1521 3.88125 14.0633 4.105 14.0625 4.375C14.0617 4.645 14.1504 4.86917 14.3288 5.0475C14.5071 5.22583 14.7308 5.31417 15 5.3125Z" fill="#2664EA"/>
</svg>
