<svg width="30" height="30" viewBox="0 0 30 30" fill="none" xmlns="http://www.w3.org/2000/svg">
<path fill-rule="evenodd" clip-rule="evenodd" d="M10 8.75C10 7.42392 10.5268 6.15215 11.4645 5.21447C12.4021 4.27678 13.6739 3.75 15 3.75C16.3261 3.75 17.5979 4.27678 18.5355 5.21447C19.4732 6.15215 20 7.42392 20 8.75V12.5H10V8.75ZM7.5 12.5V8.75C7.5 6.76088 8.29018 4.85322 9.6967 3.4467C11.1032 2.04018 13.0109 1.25 15 1.25C16.9891 1.25 18.8968 2.04018 20.3033 3.4467C21.7098 4.85322 22.5 6.76088 22.5 8.75V12.5H26.25V28.75H3.75V12.5H7.5ZM13.75 23.125V18.125H16.25V23.125H13.75Z" fill="#1F40AE"/>
</svg>
