<svg width="30" height="30" viewBox="0 0 30 30" fill="none" xmlns="http://www.w3.org/2000/svg">
<path d="M3.75 9.37109V20.6211C3.75 21.6157 4.14509 22.5695 4.84835 23.2727C5.55161 23.976 6.50544 24.3711 7.5 24.3711H22.5C23.4946 24.3711 24.4484 23.976 25.1516 23.2727C25.8549 22.5695 26.25 21.6157 26.25 20.6211V9.37109C26.25 8.37653 25.8549 7.4227 25.1516 6.71944C24.4484 6.01618 23.4946 5.62109 22.5 5.62109H7.5C6.50544 5.62109 5.55161 6.01618 4.84835 6.71944C4.14509 7.4227 3.75 8.37653 3.75 9.37109ZM18.0937 18.4836C17.918 18.3078 17.8193 18.0694 17.8193 17.8208C17.8193 17.5722 17.918 17.3338 18.0937 17.158L19.3125 15.9392H16.41C16.1614 15.9392 15.9229 15.8404 15.7471 15.6646C15.5713 15.4888 15.4725 15.2504 15.4725 15.0017C15.4725 14.7531 15.5713 14.5146 15.7471 14.3388C15.9229 14.163 16.1614 14.0642 16.41 14.0642H19.3012L18.0956 12.8586C18.0061 12.7721 17.9347 12.6687 17.8855 12.5543C17.8364 12.4399 17.8105 12.3169 17.8095 12.1924C17.8084 12.0679 17.8321 11.9445 17.8792 11.8293C17.9264 11.714 17.996 11.6094 18.084 11.5213C18.172 11.4333 18.2767 11.3637 18.3919 11.3166C18.5071 11.2694 18.6306 11.2457 18.7551 11.2468C18.8795 11.2479 19.0026 11.2737 19.1169 11.3229C19.2313 11.372 19.3348 11.4434 19.4212 11.533L22.2337 14.3455C22.4095 14.5213 22.5082 14.7597 22.5082 15.0083C22.5082 15.2569 22.4095 15.4953 22.2337 15.6711L19.4212 18.4836C19.2454 18.6593 19.007 18.7581 18.7584 18.7581C18.5098 18.7581 18.2714 18.6593 18.0956 18.4836M11.91 11.533C12.0858 11.7088 12.1845 11.9472 12.1845 12.1958C12.1845 12.4444 12.0858 12.6828 11.91 12.8586L10.7063 14.0623H13.5938C13.8424 14.0623 14.0808 14.1611 14.2567 14.3369C14.4325 14.5127 14.5312 14.7512 14.5312 14.9998C14.5312 15.2485 14.4325 15.4869 14.2567 15.6628C14.0808 15.8386 13.8424 15.9373 13.5938 15.9373H10.6875L11.91 17.158C11.9995 17.2444 12.071 17.3479 12.1201 17.4623C12.1692 17.5767 12.1951 17.6997 12.1962 17.8242C12.1973 17.9486 12.1735 18.0721 12.1264 18.1873C12.0793 18.3025 12.0096 18.4072 11.9216 18.4952C11.8336 18.5832 11.7289 18.6529 11.6137 18.7C11.4985 18.7471 11.375 18.7708 11.2506 18.7698C11.1261 18.7687 11.0031 18.7428 10.8887 18.6937C10.7743 18.6446 10.6709 18.5731 10.5844 18.4836L7.77187 15.6711C7.59612 15.4953 7.49739 15.2569 7.49739 15.0083C7.49739 14.7597 7.59612 14.5213 7.77187 14.3455L10.5844 11.533C10.7602 11.3572 10.9986 11.2585 11.2472 11.2585C11.4958 11.2585 11.7342 11.3572 11.91 11.533Z" fill="#1F40AE"/>
</svg>
