<svg width="31" height="26" viewBox="0 0 31 26" fill="none" xmlns="http://www.w3.org/2000/svg">
<path d="M6.75276 16.6641C6.75276 18.1306 5.3471 19.3287 3.62638 19.3287C1.90566 19.3287 0.5 18.1306 0.5 16.6641C0.5 15.1975 1.90566 13.9995 3.62638 13.9995H6.75276V16.6641Z" fill="#E01E5A"/>
<path d="M8.32812 16.6636C8.32812 15.197 9.73378 13.999 11.4545 13.999C13.1752 13.999 14.5809 15.197 14.5809 16.6636V23.3354C14.5809 24.8019 13.1752 25.9999 11.4545 25.9999C9.73378 25.9999 8.32812 24.8019 8.32812 23.3354V16.6636Z" fill="#E01E5A"/>
<path d="M11.4545 5.96391C9.73378 5.96391 8.32812 4.76589 8.32812 3.29934C8.32812 1.83279 9.73378 0.634766 11.4545 0.634766C13.1752 0.634766 14.5809 1.83279 14.5809 3.29934V5.96391H11.4545Z" fill="#36C5F0"/>
<path d="M11.4544 7.30664C13.1752 7.30664 14.5808 8.50467 14.5808 9.97121C14.5808 11.4378 13.1752 12.6358 11.4544 12.6358H3.62638C1.90566 12.6358 0.5 11.4378 0.5 9.97121C0.5 8.50467 1.90566 7.30664 3.62638 7.30664H11.4544Z" fill="#36C5F0"/>
<path d="M24.0078 9.97121C24.0078 8.50467 25.4135 7.30664 27.1342 7.30664C28.8549 7.30664 30.2606 8.50467 30.2606 9.97121C30.2606 11.4378 28.8549 12.6358 27.1342 12.6358H24.0078V9.97121Z" fill="#2EB67D"/>
<path d="M22.4324 9.9711C22.4324 11.4376 21.0268 12.6357 19.3061 12.6357C17.5853 12.6357 16.1797 11.4376 16.1797 9.9711V3.29934C16.1797 1.83279 17.5853 0.634766 19.3061 0.634766C21.0268 0.634766 22.4324 1.83279 22.4324 3.29934V9.9711Z" fill="#2EB67D"/>
<path d="M19.3061 20.6709C21.0268 20.6709 22.4324 21.8689 22.4324 23.3355C22.4324 24.802 21.0268 26 19.3061 26C17.5853 26 16.1797 24.802 16.1797 23.3355V20.6709H19.3061Z" fill="#ECB22E"/>
<path d="M19.3061 19.3287C17.5853 19.3287 16.1797 18.1306 16.1797 16.6641C16.1797 15.1975 17.5853 13.9995 19.3061 13.9995H27.1341C28.8548 13.9995 30.2605 15.1975 30.2605 16.6641C30.2605 18.1306 28.8548 19.3287 27.1341 19.3287H19.3061Z" fill="#ECB22E"/>
</svg>
