<svg width="489" height="382" viewBox="0 0 489 382" fill="none" xmlns="http://www.w3.org/2000/svg">
<path d="M280.834 195.17C263.233 195.17 245.316 194.457 228.557 189.802C212.112 185.252 197.014 176.425 183.556 166.213C174.745 159.567 166.733 154.283 155.293 155.08C144.1 155.673 133.395 159.841 124.76 166.968C110.208 179.675 112.395 203.2 118.22 219.702C126.968 244.59 153.59 261.909 176.217 273.148C202.355 286.168 231.08 293.717 259.868 298.078C285.102 301.894 317.528 304.683 339.398 288.244C359.48 273.148 364.99 238.677 360.069 215.403C358.876 208.521 355.205 202.311 349.744 197.937C335.634 187.663 314.584 194.52 298.729 194.876C292.841 195.002 286.848 195.128 280.834 195.17Z" fill="#F2F2F2"/>
<path d="M231.5 347C293.632 347 344 345.433 344 343.5C344 341.567 293.632 340 231.5 340C169.368 340 119 341.567 119 343.5C119 345.433 169.368 347 231.5 347Z" fill="#F2F2F2"/>
<path d="M5.72729 185.546L9.11992 189.038" stroke="#D2D8DF" stroke-width="2.921" stroke-linecap="round"/>
<path d="M1.75928 194.841H6.55641" stroke="#D2D8DF" stroke-width="2.921" stroke-linecap="round"/>
<path d="M5.33813 204.305L8.73076 200.812" stroke="#D2D8DF" stroke-width="2.921" stroke-linecap="round"/>
<path d="M15.0522 183.297V187.449" stroke="#D2D8DF" stroke-width="2.921" stroke-linecap="round"/>
<path d="M15.0522 205.44V201.288" stroke="#D2D8DF" stroke-width="2.921" stroke-linecap="round"/>
<path d="M21.9725 202.672L19.2046 199.904" stroke="#D2D8DF" stroke-width="2.921" stroke-linecap="round"/>
<path d="M27.5078 195.752H23.356" stroke="#D2D8DF" stroke-width="2.921" stroke-linecap="round"/>
<path d="M24.74 186.064L21.9722 188.832" stroke="#D2D8DF" stroke-width="2.921" stroke-linecap="round"/>
<path d="M237.867 2V4.76788" stroke="#D2D8DF" stroke-width="2.921" stroke-linecap="round"/>
<path d="M229.563 10.3037H232.331" stroke="#D2D8DF" stroke-width="2.921" stroke-linecap="round"/>
<path d="M237.867 18.6077V15.8398" stroke="#D2D8DF" stroke-width="2.921" stroke-linecap="round"/>
<path d="M244.786 10.3037H242.019" stroke="#D2D8DF" stroke-width="2.921" stroke-linecap="round"/>
<path d="M77.3298 118.251V122.403" stroke="#D2D8DF" stroke-width="2.921" stroke-linecap="round"/>
<path d="M64.8745 130.707H69.0263" stroke="#D2D8DF" stroke-width="2.921" stroke-linecap="round"/>
<path d="M77.3298 141.778V137.626" stroke="#D2D8DF" stroke-width="2.921" stroke-linecap="round"/>
<path d="M88.4013 130.707H84.2495" stroke="#D2D8DF" stroke-width="2.921" stroke-linecap="round"/>
<path d="M375.228 269.155C378.535 269.155 381.218 271.838 381.218 275.147C381.218 278.456 378.535 281.138 375.228 281.138C371.921 281.138 369.238 278.456 369.238 275.147" stroke="#D2D8DF" stroke-width="2.921" stroke-linecap="round"/>
<path fill-rule="evenodd" clip-rule="evenodd" d="M402.639 214.801C406.196 213.691 411.647 209.342 412.909 204.662C414.054 208.799 418.851 213.691 423.179 214.061C418.307 215.787 413.648 220.912 412.909 224.938C412.406 220.834 405.963 215.399 402.639 214.801Z" fill="#EBECEE"/>
<path fill-rule="evenodd" clip-rule="evenodd" d="M37.5713 267.31C39.3501 266.755 42.0747 264.581 42.7056 262.241C43.2778 264.308 45.6758 266.755 47.84 266.941C45.4044 267.802 43.0757 270.365 42.7056 272.379C42.4542 270.327 39.2326 267.608 37.5713 267.31Z" fill="#EBECEE"/>
<path fill-rule="evenodd" clip-rule="evenodd" d="M70.5818 74.795C70.5818 77.3617 68.5022 79.4407 65.9374 79.4407C63.3714 79.4407 61.293 77.3617 61.293 74.795C61.293 72.2295 63.3714 70.1494 65.9374 70.1494C68.5022 70.1494 70.5818 72.2295 70.5818 74.795Z" fill="#D1D8DF"/>
<path fill-rule="evenodd" clip-rule="evenodd" d="M380.716 87.2666C380.716 91.5549 377.239 95.0312 372.953 95.0312C368.665 95.0312 365.189 91.5549 365.189 87.2666C365.189 82.9782 368.665 79.502 372.953 79.502C377.239 79.502 380.716 82.9782 380.716 87.2666Z" fill="#EBECEE"/>
<path fill-rule="evenodd" clip-rule="evenodd" d="M488.24 66.2316C488.24 69.6338 485.484 72.3909 482.084 72.3909C478.682 72.3909 475.926 69.6338 475.926 66.2316C475.926 62.8293 478.682 60.0723 482.084 60.0723C485.484 60.0723 488.24 62.8293 488.24 66.2316Z" fill="#EBECEE"/>
<path fill-rule="evenodd" clip-rule="evenodd" d="M59.5219 375.883C59.5219 378.028 57.7842 379.766 55.64 379.766C53.497 379.766 51.7593 378.028 51.7593 375.883C51.7593 373.738 53.497 372 55.64 372C57.7842 372 59.5219 373.738 59.5219 375.883Z" stroke="#D2D8DF" stroke-width="2.921" stroke-linecap="round"/>
<path fill-rule="evenodd" clip-rule="evenodd" d="M155.072 44.9484C155.072 47.515 152.993 49.594 150.428 49.594C147.863 49.594 145.783 47.515 145.783 44.9484C145.783 42.3829 147.863 40.3027 150.428 40.3027C152.993 40.3027 155.072 42.3829 155.072 44.9484Z" stroke="#D2D8DF" stroke-width="2.921" stroke-linecap="round"/>
<path fill-rule="evenodd" clip-rule="evenodd" d="M448.555 273.127C445.587 274.257 442.266 272.765 441.137 269.798C440.008 266.829 441.497 263.506 444.466 262.378C447.433 261.248 450.754 262.738 451.884 265.707C453.014 268.675 451.523 271.998 448.555 273.127Z" stroke="#D2D8DF" stroke-width="2.921" stroke-linecap="round"/>
<path fill-rule="evenodd" clip-rule="evenodd" d="M304.391 288.985H190.901C182.913 288.985 176.375 282.427 176.375 274.412V112.57C176.375 104.556 182.913 98.001 190.901 98.001H304.391C312.382 98.001 318.921 104.556 318.921 112.57V274.412C318.921 282.427 312.382 288.985 304.391 288.985Z" fill="#CCCCCC"/>
<path fill-rule="evenodd" clip-rule="evenodd" d="M294.703 295.905H181.214C173.226 295.905 166.687 289.347 166.687 281.332V119.49C166.687 111.475 173.226 104.921 181.214 104.921H294.703C302.694 104.921 309.233 111.475 309.233 119.49V281.332C309.233 289.347 302.694 295.905 294.703 295.905Z" fill="#B9C2DB"/>
<path fill-rule="evenodd" clip-rule="evenodd" d="M285.28 301.369H171.556C163.552 301.369 157 294.838 157 286.856V125.685C157 117.703 163.552 111.176 171.556 111.176H285.28C293.288 111.176 299.84 117.703 299.84 125.685V286.856C299.84 294.838 293.288 301.369 285.28 301.369Z" fill="#D8DBEA"/>
<path fill-rule="evenodd" clip-rule="evenodd" d="M285.28 301.369H171.556C163.552 301.369 157 294.838 157 286.856V125.685C157 117.703 163.552 111.176 171.556 111.176H285.28C293.288 111.176 299.84 117.703 299.84 125.685V286.856C299.84 294.838 293.288 301.369 285.28 301.369Z" fill="#E9EBF3"/>
<path fill-rule="evenodd" clip-rule="evenodd" d="M268.983 168.722H184.734C182.328 168.722 180.359 163.097 180.359 156.226C180.359 149.346 182.328 143.722 184.734 143.722H268.983C271.389 143.722 273.359 149.346 273.359 156.226C273.359 163.097 271.389 168.722 268.983 168.722Z" fill="#B9C2DB"/>
<path fill-rule="evenodd" clip-rule="evenodd" d="M268.888 185.189H184.889C182.49 185.189 180.527 183.321 180.527 181.039C180.527 178.754 182.49 176.886 184.889 176.886H268.888C271.287 176.886 273.251 178.754 273.251 181.039C273.251 183.321 271.287 185.189 268.888 185.189Z" fill="#B9C2DB"/>
<path fill-rule="evenodd" clip-rule="evenodd" d="M267.078 207.722H184.64C182.286 207.722 180.359 206.372 180.359 204.723C180.359 203.074 182.286 201.722 184.64 201.722H267.078C269.432 201.722 271.359 203.074 271.359 204.723C271.359 206.372 269.432 207.722 267.078 207.722Z" fill="#B9C2DB"/>
<path fill-rule="evenodd" clip-rule="evenodd" d="M259.454 225.722H184.264C182.117 225.722 180.359 224.372 180.359 222.723C180.359 221.072 182.117 219.722 184.264 219.722H259.454C261.601 219.722 263.359 221.072 263.359 222.723C263.359 224.372 261.601 225.722 259.454 225.722Z" fill="#B9C2DB"/>
<path fill-rule="evenodd" clip-rule="evenodd" d="M268.983 260.722H184.734C182.328 260.722 180.359 259.372 180.359 257.723C180.359 256.072 182.328 254.722 184.734 254.722H268.983C271.389 254.722 273.359 256.072 273.359 257.723C273.359 259.372 271.389 260.722 268.983 260.722Z" fill="#B9C2DB"/>
<path fill-rule="evenodd" clip-rule="evenodd" d="M265.172 277.722H184.546C182.244 277.722 180.359 276.372 180.359 274.723C180.359 273.072 182.244 271.722 184.546 271.722H265.172C267.474 271.722 269.359 273.072 269.359 274.723C269.359 276.372 267.474 277.722 265.172 277.722Z" fill="#B9C2DB"/>
<path fill-rule="evenodd" clip-rule="evenodd" d="M235.36 242.722H185.357C182.609 242.722 180.359 241.372 180.359 239.723C180.359 238.072 182.609 236.722 185.357 236.722H235.36C238.109 236.722 240.359 238.072 240.359 239.723C240.359 241.372 238.109 242.722 235.36 242.722Z" fill="#B9C2DB"/>
<path d="M404.727 352.249L408.12 355.741" stroke="#D2D8DF" stroke-width="2.921" stroke-linecap="round"/>
<path d="M400.759 361.544H405.556" stroke="#D2D8DF" stroke-width="2.921" stroke-linecap="round"/>
<path d="M404.338 371.008L407.731 367.516" stroke="#D2D8DF" stroke-width="2.921" stroke-linecap="round"/>
<path d="M414.052 350V354.152" stroke="#D2D8DF" stroke-width="2.921" stroke-linecap="round"/>
<path d="M414.052 372.143V367.991" stroke="#D2D8DF" stroke-width="2.921" stroke-linecap="round"/>
<path d="M420.972 369.375L418.205 366.607" stroke="#D2D8DF" stroke-width="2.921" stroke-linecap="round"/>
<path d="M426.508 362.455H422.356" stroke="#D2D8DF" stroke-width="2.921" stroke-linecap="round"/>
<path d="M423.74 352.768L420.972 355.535" stroke="#D2D8DF" stroke-width="2.921" stroke-linecap="round"/>
</svg>
