<svg width="419" height="260" viewBox="0 0 419 260" fill="none" xmlns="http://www.w3.org/2000/svg">
<line y1="0.5" x2="419" y2="0.5" stroke="#D6F99E" stroke-opacity="0.3"/>
<line y1="43.668" x2="419" y2="43.668" stroke="#D6F99E" stroke-opacity="0.3"/>
<line y1="86.832" x2="419" y2="86.832" stroke="#D6F99E" stroke-opacity="0.3"/>
<line y1="130" x2="419" y2="130" stroke="#D6F99E" stroke-opacity="0.3"/>
<line y1="173.168" x2="419" y2="173.168" stroke="#D6F99E" stroke-opacity="0.3"/>
<line y1="216.332" x2="419" y2="216.332" stroke="#D6F99E" stroke-opacity="0.3"/>
<line y1="259.5" x2="419" y2="259.5" stroke="#D6F99E" stroke-opacity="0.3"/>
<rect x="13.0703" y="259.5" width="258" height="389.717" transform="rotate(-90 13.0703 259.5)" stroke="#D6F99E" stroke-opacity="0.3"/>
<line x1="12.0703" y1="260" x2="12.0703" y2="1" stroke="#729B89" stroke-opacity="0.3"/>
<line x1="60.9102" y1="260" x2="60.9102" y2="1" stroke="#729B89" stroke-opacity="0.3"/>
<line x1="109.75" y1="260" x2="109.75" y2="1" stroke="#729B89" stroke-opacity="0.3"/>
<line x1="158.59" y1="260" x2="158.59" y2="1" stroke="#729B89" stroke-opacity="0.3"/>
<line x1="207.43" y1="260" x2="207.43" y2="1" stroke="#729B89" stroke-opacity="0.3"/>
<line x1="256.27" y1="260" x2="256.27" y2="1" stroke="#729B89" stroke-opacity="0.3"/>
<line x1="305.109" y1="260" x2="305.109" y2="1" stroke="#729B89" stroke-opacity="0.3"/>
<line x1="353.947" y1="260" x2="353.947" y2="1" stroke="#729B89" stroke-opacity="0.3"/>
<line x1="402.787" y1="260" x2="402.787" y2="1" stroke="#729B89" stroke-opacity="0.3"/>
</svg>
