<svg width="621" height="592" viewBox="0 0 621 592" fill="none" xmlns="http://www.w3.org/2000/svg">
<rect x="0.5" y="0.5" width="620" height="591" rx="15.5" fill="url(#paint0_linear_8829_11448)"/>
<rect x="0.5" y="0.5" width="620" height="591" rx="15.5" stroke="#004B57"/>
<rect x="39.5" y="31.5" width="549" height="528" rx="15.5" fill="white" fill-opacity="0.1"/>
<rect x="39.5" y="31.5" width="549" height="528" rx="15.5" stroke="url(#paint1_linear_8829_11448)"/>
<path d="M76.296 58.632C76.296 59.912 75.812 60.984 74.844 61.848C73.876 62.712 72.732 63.144 71.412 63.144C70.036 63.144 68.884 62.72 67.956 61.872C67.036 61.016 66.576 59.936 66.576 58.632C66.576 57.288 67.048 56.2 67.992 55.368C68.936 54.536 70.076 54.12 71.412 54.12C72.748 54.12 73.896 54.544 74.856 55.392C75.816 56.232 76.296 57.312 76.296 58.632ZM72.648 55.356C72.408 54.684 71.996 54.348 71.412 54.348C71.116 54.348 70.86 54.444 70.644 54.636C70.428 54.828 70.26 55.108 70.14 55.476C70.028 55.836 69.944 56.304 69.888 56.88C69.84 57.448 69.816 58.032 69.816 58.632C69.816 59.456 69.848 60.128 69.912 60.648C69.976 61.168 70.096 61.676 70.272 62.172C70.448 62.668 70.828 62.916 71.412 62.916C71.708 62.916 71.964 62.82 72.18 62.628C72.396 62.436 72.56 62.16 72.672 61.8C72.792 61.432 72.876 60.964 72.924 60.396C72.98 59.82 73.008 59.232 73.008 58.632C73.008 57.92 72.984 57.304 72.936 56.784C72.888 56.256 72.792 55.78 72.648 55.356ZM87.687 54.444C87.583 54.452 87.467 54.46 87.339 54.468C87.219 54.476 87.047 54.5 86.823 54.54C86.599 54.572 86.427 54.664 86.307 54.816C86.195 54.96 86.127 55.16 86.103 55.416L86.079 55.992V63H84.615L78.915 55.704H78.867V61.308L78.891 61.884C78.915 62.148 78.979 62.344 79.083 62.472C79.195 62.6 79.359 62.684 79.575 62.724C79.799 62.756 79.987 62.776 80.139 62.784C80.299 62.792 80.407 62.8 80.463 62.808V63H77.007V62.808C77.111 62.8 77.227 62.792 77.355 62.784C77.483 62.776 77.707 62.748 78.027 62.7C78.355 62.644 78.543 62.372 78.591 61.884L78.615 61.308V55.848L78.591 55.296C78.487 55.128 78.363 54.972 78.219 54.828C78.075 54.684 77.915 54.584 77.739 54.528C77.571 54.472 77.407 54.444 77.247 54.444H76.887V54.252H81.471L85.779 59.772H85.827V55.944L85.803 55.368C85.779 55.112 85.711 54.92 85.599 54.792C85.495 54.656 85.335 54.572 85.119 54.54C84.903 54.5 84.727 54.476 84.591 54.468C84.463 54.46 84.343 54.452 84.231 54.444V54.252H87.687V54.444ZM87.8837 59.16H91.0877V61.02H87.8837V59.16ZM96.5507 63.144C95.1747 63.144 94.0427 62.72 93.1547 61.872C92.2747 61.016 91.8347 59.936 91.8347 58.632C91.8347 57.296 92.2707 56.212 93.1427 55.38C94.0227 54.54 95.1547 54.12 96.5387 54.12C97.1307 54.12 97.6427 54.22 98.0747 54.42L99.3467 55.14C99.5867 55.14 99.7467 55.06 99.8267 54.9C99.9067 54.732 99.9627 54.496 99.9947 54.192H100.235V57.984H100.031C99.6787 57.008 99.4267 56.348 99.2747 56.004C99.1307 55.66 98.8867 55.328 98.5427 55.008C98.1987 54.688 97.7587 54.528 97.2227 54.528C96.5267 54.528 96.0107 54.92 95.6747 55.704C95.3387 56.488 95.1707 57.404 95.1707 58.452C95.1707 59.58 95.3707 60.56 95.7707 61.392C96.1787 62.216 96.7747 62.628 97.5587 62.628C98.2867 62.628 98.8707 62.364 99.3107 61.836C99.7507 61.308 100.043 60.62 100.187 59.772L100.391 59.808C100.279 60.768 99.9147 61.564 99.2987 62.196C98.6827 62.828 97.7667 63.144 96.5507 63.144ZM104.902 60.012L103.846 57.06L102.826 60.012H104.902ZM102.742 60.264L102.37 61.512C102.29 61.8 102.25 62.028 102.25 62.196C102.25 62.38 102.294 62.508 102.382 62.58C102.478 62.652 102.598 62.704 102.742 62.736C102.886 62.76 103.026 62.776 103.162 62.784C103.298 62.792 103.43 62.8 103.558 62.808V63H100.174V62.808L100.882 62.76C101.146 62.728 101.346 62.664 101.482 62.568C101.618 62.464 101.718 62.336 101.782 62.184C101.854 62.032 101.93 61.852 102.01 61.644C102.098 61.436 102.17 61.248 102.226 61.08L104.518 54.216H105.838L108.37 61.08L108.742 62.016C108.854 62.264 108.966 62.444 109.078 62.556C109.198 62.66 109.362 62.728 109.57 62.76L110.062 62.808V63H104.362V62.808C104.458 62.808 104.542 62.808 104.614 62.808C104.694 62.8 104.834 62.78 105.034 62.748C105.234 62.716 105.378 62.676 105.466 62.628C105.554 62.572 105.598 62.46 105.598 62.292C105.598 62.116 105.542 61.864 105.43 61.536L104.998 60.264H102.742ZM115.571 62.724C116.051 62.724 116.527 62.504 116.999 62.064C117.479 61.624 117.899 61.116 118.259 60.54C118.627 59.964 118.959 59.356 119.255 58.716H119.447V63H110.063V62.808C110.127 62.808 110.215 62.808 110.327 62.808C110.447 62.8 110.623 62.784 110.855 62.76C111.095 62.728 111.267 62.66 111.371 62.556C111.475 62.452 111.539 62.276 111.563 62.028L111.587 61.476V55.776L111.563 55.224C111.539 54.968 111.483 54.792 111.395 54.696C111.315 54.592 111.187 54.528 111.011 54.504C110.835 54.48 110.683 54.468 110.555 54.468C110.427 54.46 110.311 54.452 110.207 54.444V54.252H116.015V54.444L115.223 54.48C114.983 54.504 114.819 54.564 114.731 54.66C114.643 54.756 114.587 54.936 114.563 55.2L114.539 55.752V62.76L115.571 62.724ZM125.463 62.724C125.943 62.724 126.419 62.504 126.891 62.064C127.371 61.624 127.791 61.116 128.151 60.54C128.519 59.964 128.851 59.356 129.147 58.716H129.339V63H119.955V62.808C120.019 62.808 120.107 62.808 120.219 62.808C120.339 62.8 120.515 62.784 120.747 62.76C120.987 62.728 121.159 62.66 121.263 62.556C121.367 62.452 121.431 62.276 121.455 62.028L121.479 61.476V55.776L121.455 55.224C121.431 54.968 121.375 54.792 121.287 54.696C121.207 54.592 121.079 54.528 120.903 54.504C120.727 54.48 120.575 54.468 120.447 54.468C120.319 54.46 120.203 54.452 120.099 54.444V54.252H125.907V54.444L125.115 54.48C124.875 54.504 124.711 54.564 124.623 54.66C124.535 54.756 124.479 54.936 124.455 55.2L124.431 55.752V62.76L125.463 62.724Z" fill="#06EEFD"/>
<path d="M75.54 94.54C76.34 94.54 77.1333 94.1733 77.92 93.44C78.72 92.7067 79.42 91.86 80.02 90.9C80.6333 89.94 81.1867 88.9267 81.68 87.86H82V95H66.36V94.68C66.4667 94.68 66.6133 94.68 66.8 94.68C67 94.6667 67.2933 94.64 67.68 94.6C68.08 94.5467 68.3667 94.4333 68.54 94.26C68.7133 94.0867 68.82 93.7933 68.86 93.38L68.9 92.46V82.96L68.86 82.04C68.82 81.6133 68.7267 81.32 68.58 81.16C68.4467 80.9867 68.2333 80.88 67.94 80.84C67.6467 80.8 67.3933 80.78 67.18 80.78C66.9667 80.7667 66.7733 80.7533 66.6 80.74V80.42H76.28V80.74L74.96 80.8C74.56 80.84 74.2867 80.94 74.14 81.1C73.9933 81.26 73.9 81.56 73.86 82L73.82 82.92V94.6L75.54 94.54ZM92.9067 92C92.5334 93 91.9334 93.7867 91.1067 94.36C90.2801 94.92 89.3067 95.2 88.1867 95.2C86.6134 95.2 85.3201 94.7667 84.3067 93.9C83.2934 93.02 82.7867 91.8067 82.7867 90.26C82.7867 88.82 83.3067 87.64 84.3467 86.72C85.4001 85.7867 86.6601 85.32 88.1267 85.32C89.6601 85.32 90.8334 85.7533 91.6467 86.62C92.4601 87.4867 92.8667 88.5467 92.8667 89.8H86.7267C86.7267 90.28 86.7601 90.7733 86.8267 91.28C86.9067 91.7733 87.0467 92.2533 87.2467 92.72C87.4601 93.1867 87.7534 93.5667 88.1267 93.86C88.5134 94.14 88.9934 94.28 89.5667 94.28C90.3801 94.28 91.0201 94.0533 91.4867 93.6C91.9667 93.1333 92.3334 92.5533 92.5867 91.86L92.9067 92ZM89.3867 89.4C89.3734 89.2533 89.3601 89.08 89.3467 88.88C89.3467 88.68 89.3467 88.4267 89.3467 88.12C89.3467 87.3067 89.2467 86.6933 89.0467 86.28C88.8467 85.8533 88.5001 85.64 88.0067 85.64C87.5801 85.64 87.2801 85.8467 87.1067 86.26C86.9467 86.66 86.8334 87.28 86.7667 88.12L86.7267 89.4H89.3867ZM94.5122 86.28H93.1522V85.74C93.6055 85.62 94.0789 85.4 94.5722 85.08C95.0655 84.7467 95.5322 84.3667 95.9722 83.94C96.4255 83.5 96.7989 83.0733 97.0922 82.66C97.3989 82.2467 97.6322 81.8733 97.7922 81.54H98.3522V85.52H100.972L100.692 86.28H98.3522V91.72L98.3922 92.74C98.3922 93.3133 98.5189 93.7467 98.7722 94.04C99.0255 94.3333 99.3455 94.48 99.7322 94.48C100.252 94.48 100.632 94.2667 100.872 93.84C101.112 93.4 101.232 92.9133 101.232 92.38H101.512C101.512 93.1267 101.292 93.7867 100.852 94.36C100.412 94.92 99.4655 95.2 98.0122 95.2C97.0922 95.2 96.2789 94.96 95.5722 94.48C94.8655 94 94.5122 93.3267 94.5122 92.46V86.28ZM119.879 90.72C119.879 92.04 119.319 93.1267 118.199 93.98C117.092 94.82 115.885 95.24 114.579 95.24C113.432 95.24 112.299 94.88 111.179 94.16C110.059 93.4267 109.412 93.06 109.239 93.06C108.799 93.06 108.525 93.2267 108.419 93.56C108.312 93.8933 108.212 94.4533 108.119 95.24H107.779V88.08H108.119C108.199 88.36 108.332 88.82 108.519 89.46C108.719 90.1 109.079 90.8667 109.599 91.76C110.132 92.64 110.825 93.3733 111.679 93.96C112.545 94.5467 113.545 94.84 114.679 94.84C115.332 94.84 115.865 94.6667 116.279 94.32C116.692 93.9733 116.899 93.56 116.899 93.08C116.899 92.5067 116.745 92.0533 116.439 91.72C116.132 91.3867 115.579 91.0667 114.779 90.76C113.979 90.44 113.132 90.1 112.239 89.74C111.345 89.38 110.399 88.8933 109.399 88.28C108.399 87.68 107.899 86.5467 107.899 84.88C107.899 83.5733 108.425 82.4667 109.479 81.56C110.532 80.6533 111.745 80.2 113.119 80.2C113.879 80.2 114.619 80.38 115.339 80.74L117.419 81.9C117.805 81.9 118.059 81.74 118.179 81.42C118.299 81.0867 118.359 80.68 118.359 80.2H118.739V85.5H118.379C118.312 85.2733 118.172 84.8867 117.959 84.34C117.759 83.7933 117.359 83.18 116.759 82.5C116.172 81.82 115.585 81.3333 114.999 81.04C114.425 80.7333 113.732 80.58 112.919 80.58C112.372 80.58 111.865 80.74 111.399 81.06C110.932 81.38 110.699 81.78 110.699 82.26C110.699 82.7667 110.872 83.1933 111.219 83.54C111.579 83.8733 111.985 84.14 112.439 84.34C112.905 84.54 113.545 84.7933 114.359 85.1C115.172 85.4067 116.012 85.7667 116.879 86.18C117.759 86.58 118.479 87.1733 119.039 87.96C119.599 88.7333 119.879 89.6533 119.879 90.72ZM127.038 85.64C126.664 85.64 126.351 85.7867 126.098 86.08C125.844 86.3733 125.644 86.7333 125.498 87.16C125.364 87.5867 125.264 88.0533 125.198 88.56C125.144 89.0533 125.118 89.5333 125.118 90C125.118 91.2133 125.318 92.2733 125.718 93.18C126.131 94.0733 126.851 94.52 127.878 94.52C128.611 94.52 129.251 94.2933 129.798 93.84C130.344 93.3733 130.758 92.7867 131.038 92.08L131.338 92.24C130.444 94.2133 128.844 95.2 126.538 95.2C125.018 95.2 123.724 94.7533 122.658 93.86C121.591 92.9533 121.058 91.76 121.058 90.28C121.058 88.7867 121.578 87.5867 122.618 86.68C123.671 85.7733 124.978 85.32 126.538 85.32C127.124 85.32 127.664 85.3867 128.158 85.52C128.651 85.64 129.111 85.8133 129.538 86.04C129.978 86.2533 130.391 86.5667 130.778 86.98C131.178 87.38 131.378 87.8533 131.378 88.4C131.378 88.8933 131.224 89.2933 130.918 89.6C130.611 89.8933 130.158 90.04 129.558 90.04C129.038 90.04 128.564 89.86 128.138 89.5C127.724 89.1267 127.518 88.7067 127.518 88.24C127.518 87.88 127.591 87.5333 127.738 87.2C127.884 86.8667 127.958 86.5867 127.958 86.36C127.958 86.1467 127.878 85.9733 127.718 85.84C127.558 85.7067 127.331 85.64 127.038 85.64ZM131.642 95V94.68L132.182 94.66C132.569 94.62 132.802 94.5267 132.882 94.38C132.962 94.2333 133.002 93.9133 133.002 93.42L133.022 92.5V87.72L133.002 86.9C132.975 86.58 132.935 86.34 132.882 86.18C132.829 86.02 132.589 85.92 132.162 85.88L131.642 85.84V85.52H136.822V87.2C136.915 86.96 137.115 86.6 137.422 86.12C137.729 85.64 138.429 85.4 139.522 85.4C140.162 85.4 140.702 85.6267 141.142 86.08C141.595 86.52 141.822 87.0467 141.822 87.66C141.822 88.2733 141.609 88.7867 141.182 89.2C140.769 89.6 140.255 89.8 139.642 89.8C139.135 89.8 138.695 89.6267 138.322 89.28C137.962 88.92 137.782 88.5133 137.782 88.06C137.782 87.7267 137.842 87.42 137.962 87.14C138.095 86.8867 138.229 86.6267 138.362 86.36C138.295 86.2667 138.229 86.22 138.162 86.22C137.815 86.22 137.509 86.4267 137.242 86.84C136.989 87.2533 136.862 87.64 136.862 88V92.62L136.882 93.62C136.882 93.9933 136.929 94.2467 137.022 94.38C137.115 94.5133 137.349 94.6 137.722 94.64L138.322 94.68V95H131.642ZM154.896 95H149.656V93.72C149.35 94.2 148.97 94.5667 148.516 94.82C148.076 95.0733 147.463 95.2 146.676 95.2C145.756 95.2 144.943 94.9267 144.236 94.38C143.516 93.8467 143.156 93.1067 143.156 92.16V87.72L143.136 86.9C143.136 86.54 143.076 86.2933 142.956 86.16C142.85 86.0133 142.61 85.92 142.236 85.88L141.676 85.84V85.52H146.996V92.06L147.016 92.88C147.016 93.4267 147.11 93.84 147.296 94.12C147.496 94.3867 147.79 94.52 148.176 94.52C148.603 94.52 148.91 94.4 149.096 94.16C149.296 93.92 149.456 93.6733 149.576 93.42V88.02L149.536 87.1C149.536 86.66 149.463 86.36 149.316 86.2C149.17 86.04 148.876 85.9333 148.436 85.88L147.816 85.84V85.52H153.416V92.8L153.436 93.62C153.436 93.98 153.49 94.2333 153.596 94.38C153.716 94.5133 153.963 94.6 154.336 94.64L154.896 94.68V95ZM167.023 90.22C167.023 91.7267 166.516 92.9333 165.503 93.84C164.49 94.7467 163.203 95.2 161.643 95.2C160.616 95.2 159.816 94.9867 159.243 94.56C158.67 94.1333 158.196 93.7067 157.823 93.28H157.703C157.516 93.4667 157.316 93.7333 157.103 94.08C156.903 94.4133 156.71 94.74 156.523 95.06H156.283C156.296 94.5267 156.303 94.0267 156.303 93.56C156.316 93.08 156.33 92.5067 156.343 91.84V82.62L156.323 81.8C156.323 81.44 156.263 81.1933 156.143 81.06C156.036 80.9133 155.796 80.82 155.423 80.78L154.663 80.74V80.42H160.183V84.94L160.143 86.52C160.29 86.2533 160.523 85.9867 160.843 85.72C161.176 85.4533 161.796 85.32 162.703 85.32C163.97 85.32 165.003 85.7733 165.803 86.68C166.616 87.5733 167.023 88.7533 167.023 90.22ZM162.983 90.24C162.983 90.0533 162.97 89.7 162.943 89.18C162.916 88.6467 162.903 88.32 162.903 88.2C162.903 87.4933 162.796 86.9267 162.583 86.5C162.37 86.06 162.023 85.84 161.543 85.84C161.13 85.84 160.83 85.96 160.643 86.2C160.456 86.4267 160.336 86.6933 160.283 87C160.23 87.2933 160.196 87.7267 160.183 88.3C160.17 88.86 160.163 89.42 160.163 89.98V91.32C160.163 91.68 160.183 92.0533 160.223 92.44C160.223 93.1467 160.33 93.7333 160.543 94.2C160.77 94.6533 161.11 94.88 161.563 94.88C162.003 94.88 162.336 94.64 162.563 94.16C162.79 93.68 162.903 93.0933 162.903 92.4C162.903 92.1333 162.91 91.82 162.923 91.46C162.936 91.0867 162.956 90.68 162.983 90.24ZM179.447 90.22C179.447 91.7267 178.941 92.9333 177.927 93.84C176.914 94.7467 175.627 95.2 174.067 95.2C173.041 95.2 172.241 94.9867 171.667 94.56C171.094 94.1333 170.621 93.7067 170.247 93.28H170.127C169.941 93.4667 169.741 93.7333 169.527 94.08C169.327 94.4133 169.134 94.74 168.947 95.06H168.707C168.721 94.5267 168.727 94.0267 168.727 93.56C168.741 93.08 168.754 92.5067 168.767 91.84V82.62L168.747 81.8C168.747 81.44 168.687 81.1933 168.567 81.06C168.461 80.9133 168.221 80.82 167.847 80.78L167.087 80.74V80.42H172.607V84.94L172.567 86.52C172.714 86.2533 172.947 85.9867 173.267 85.72C173.601 85.4533 174.221 85.32 175.127 85.32C176.394 85.32 177.427 85.7733 178.227 86.68C179.041 87.5733 179.447 88.7533 179.447 90.22ZM175.407 90.24C175.407 90.0533 175.394 89.7 175.367 89.18C175.341 88.6467 175.327 88.32 175.327 88.2C175.327 87.4933 175.221 86.9267 175.007 86.5C174.794 86.06 174.447 85.84 173.967 85.84C173.554 85.84 173.254 85.96 173.067 86.2C172.881 86.4267 172.761 86.6933 172.707 87C172.654 87.2933 172.621 87.7267 172.607 88.3C172.594 88.86 172.587 89.42 172.587 89.98V91.32C172.587 91.68 172.607 92.0533 172.647 92.44C172.647 93.1467 172.754 93.7333 172.967 94.2C173.194 94.6533 173.534 94.88 173.987 94.88C174.427 94.88 174.761 94.64 174.987 94.16C175.214 93.68 175.327 93.0933 175.327 92.4C175.327 92.1333 175.334 91.82 175.347 91.46C175.361 91.0867 175.381 90.68 175.407 90.24ZM190.272 92C189.898 93 189.298 93.7867 188.472 94.36C187.645 94.92 186.672 95.2 185.552 95.2C183.978 95.2 182.685 94.7667 181.672 93.9C180.658 93.02 180.152 91.8067 180.152 90.26C180.152 88.82 180.672 87.64 181.712 86.72C182.765 85.7867 184.025 85.32 185.492 85.32C187.025 85.32 188.198 85.7533 189.012 86.62C189.825 87.4867 190.232 88.5467 190.232 89.8H184.092C184.092 90.28 184.125 90.7733 184.192 91.28C184.272 91.7733 184.412 92.2533 184.612 92.72C184.825 93.1867 185.118 93.5667 185.492 93.86C185.878 94.14 186.358 94.28 186.932 94.28C187.745 94.28 188.385 94.0533 188.852 93.6C189.332 93.1333 189.698 92.5533 189.952 91.86L190.272 92ZM186.752 89.4C186.738 89.2533 186.725 89.08 186.712 88.88C186.712 88.68 186.712 88.4267 186.712 88.12C186.712 87.3067 186.612 86.6933 186.412 86.28C186.212 85.8533 185.865 85.64 185.372 85.64C184.945 85.64 184.645 85.8467 184.472 86.26C184.312 86.66 184.198 87.28 184.132 88.12L184.092 89.4H186.752ZM203.777 88.04L203.357 86.88C203.25 86.6133 203.15 86.3933 203.057 86.22C202.964 86.0333 202.817 85.92 202.617 85.88L202.177 85.84V85.52H208.297V85.84H207.997C207.89 85.84 207.744 85.86 207.557 85.9C207.37 85.94 207.277 86.1 207.277 86.38C207.277 86.4733 207.284 86.5667 207.297 86.66C207.31 86.7533 207.377 87.0067 207.497 87.42C207.63 87.82 207.837 88.42 208.117 89.22C208.397 90.02 208.624 90.6533 208.797 91.12L210.177 87.52C210.35 87 210.437 86.6267 210.437 86.4C210.437 86.2 210.39 86.0733 210.297 86.02C210.204 85.9667 210.077 85.9267 209.917 85.9C209.757 85.8733 209.617 85.86 209.497 85.86C209.39 85.8467 209.284 85.84 209.177 85.84V85.52H212.517V85.84L211.797 85.92C211.397 85.9867 211.024 86.4467 210.677 87.3L207.717 95.08H206.277L203.957 88.52L201.377 95.08H199.957C199.757 94.5067 199.55 93.92 199.337 93.32C199.124 92.72 198.737 91.64 198.177 90.08C197.63 88.5067 197.264 87.4867 197.077 87.02C196.904 86.5533 196.777 86.26 196.697 86.14C196.617 86.02 196.497 85.9467 196.337 85.92C196.177 85.88 196.017 85.86 195.857 85.86C195.71 85.8467 195.57 85.84 195.437 85.84V85.52H201.737V85.84H201.597C201.544 85.84 201.424 85.86 201.237 85.9C201.064 85.94 200.977 86.1 200.977 86.38C200.977 86.4733 200.984 86.5667 200.997 86.66C201.01 86.7533 201.07 86.9667 201.177 87.3C201.284 87.62 201.464 88.1533 201.717 88.9C201.97 89.6467 202.237 90.4 202.517 91.16L203.777 88.04ZM212.088 95V94.68L212.628 94.66C213.015 94.62 213.248 94.5267 213.328 94.38C213.408 94.2333 213.448 93.9133 213.448 93.42L213.468 92.5V87.72L213.448 86.9C213.421 86.58 213.381 86.34 213.328 86.18C213.275 86.02 213.035 85.92 212.608 85.88L212.088 85.84V85.52H217.268V87.2C217.361 86.96 217.561 86.6 217.868 86.12C218.175 85.64 218.875 85.4 219.968 85.4C220.608 85.4 221.148 85.6267 221.588 86.08C222.041 86.52 222.268 87.0467 222.268 87.66C222.268 88.2733 222.055 88.7867 221.628 89.2C221.215 89.6 220.701 89.8 220.088 89.8C219.581 89.8 219.141 89.6267 218.768 89.28C218.408 88.92 218.228 88.5133 218.228 88.06C218.228 87.7267 218.288 87.42 218.408 87.14C218.541 86.8867 218.675 86.6267 218.808 86.36C218.741 86.2667 218.675 86.22 218.608 86.22C218.261 86.22 217.955 86.4267 217.688 86.84C217.435 87.2533 217.308 87.64 217.308 88V92.62L217.328 93.62C217.328 93.9933 217.375 94.2467 217.468 94.38C217.561 94.5133 217.795 94.6 218.168 94.64L218.768 94.68V95H212.088ZM228.942 95H222.462V94.68L222.942 94.66C223.329 94.62 223.562 94.5267 223.642 94.38C223.722 94.2333 223.762 93.9133 223.762 93.42L223.782 92.5V87.72L223.762 86.9C223.736 86.58 223.696 86.34 223.642 86.18C223.589 86.02 223.349 85.92 222.922 85.88L222.382 85.84V85.52H227.622V92.5L227.642 93.42C227.642 93.9 227.682 94.22 227.762 94.38C227.842 94.5267 228.076 94.62 228.462 94.66L228.942 94.68V95ZM223.742 82.18C223.742 81.66 223.929 81.22 224.302 80.86C224.689 80.4867 225.149 80.3 225.682 80.3C226.229 80.3 226.689 80.48 227.062 80.84C227.449 81.1867 227.642 81.6333 227.642 82.18C227.642 82.7133 227.449 83.1667 227.062 83.54C226.689 83.9 226.229 84.08 225.682 84.08C225.149 84.08 224.689 83.9 224.302 83.54C223.929 83.1667 223.742 82.7133 223.742 82.18ZM230.519 86.28H229.159V85.74C229.613 85.62 230.086 85.4 230.579 85.08C231.073 84.7467 231.539 84.3667 231.979 83.94C232.433 83.5 232.806 83.0733 233.099 82.66C233.406 82.2467 233.639 81.8733 233.799 81.54H234.359V85.52H236.979L236.699 86.28H234.359V91.72L234.399 92.74C234.399 93.3133 234.526 93.7467 234.779 94.04C235.033 94.3333 235.353 94.48 235.739 94.48C236.259 94.48 236.639 94.2667 236.879 93.84C237.119 93.4 237.239 92.9133 237.239 92.38H237.519C237.519 93.1267 237.299 93.7867 236.859 94.36C236.419 94.92 235.473 95.2 234.019 95.2C233.099 95.2 232.286 94.96 231.579 94.48C230.873 94 230.519 93.3267 230.519 92.46V86.28ZM247.786 92C247.412 93 246.812 93.7867 245.986 94.36C245.159 94.92 244.186 95.2 243.066 95.2C241.492 95.2 240.199 94.7667 239.186 93.9C238.172 93.02 237.666 91.8067 237.666 90.26C237.666 88.82 238.186 87.64 239.226 86.72C240.279 85.7867 241.539 85.32 243.006 85.32C244.539 85.32 245.712 85.7533 246.526 86.62C247.339 87.4867 247.746 88.5467 247.746 89.8H241.606C241.606 90.28 241.639 90.7733 241.706 91.28C241.786 91.7733 241.926 92.2533 242.126 92.72C242.339 93.1867 242.632 93.5667 243.006 93.86C243.392 94.14 243.872 94.28 244.446 94.28C245.259 94.28 245.899 94.0533 246.366 93.6C246.846 93.1333 247.212 92.5533 247.466 91.86L247.786 92ZM244.266 89.4C244.252 89.2533 244.239 89.08 244.226 88.88C244.226 88.68 244.226 88.4267 244.226 88.12C244.226 87.3067 244.126 86.6933 243.926 86.28C243.726 85.8533 243.379 85.64 242.886 85.64C242.459 85.64 242.159 85.8467 241.986 86.26C241.826 86.66 241.712 87.28 241.646 88.12L241.606 89.4H244.266ZM254.491 86.28H253.131V85.74C253.584 85.62 254.058 85.4 254.551 85.08C255.044 84.7467 255.511 84.3667 255.951 83.94C256.404 83.5 256.778 83.0733 257.071 82.66C257.378 82.2467 257.611 81.8733 257.771 81.54H258.331V85.52H260.951L260.671 86.28H258.331V91.72L258.371 92.74C258.371 93.3133 258.498 93.7467 258.751 94.04C259.004 94.3333 259.324 94.48 259.711 94.48C260.231 94.48 260.611 94.2667 260.851 93.84C261.091 93.4 261.211 92.9133 261.211 92.38H261.491C261.491 93.1267 261.271 93.7867 260.831 94.36C260.391 94.92 259.444 95.2 257.991 95.2C257.071 95.2 256.258 94.96 255.551 94.48C254.844 94 254.491 93.3267 254.491 92.46V86.28ZM266.517 87C266.771 86.4667 267.124 86.0533 267.577 85.76C268.031 85.4667 268.677 85.32 269.517 85.32C270.437 85.32 271.251 85.5733 271.957 86.08C272.664 86.5733 273.017 87.2133 273.017 88V92.5L273.037 93.42C273.037 93.9 273.077 94.22 273.157 94.38C273.237 94.5267 273.471 94.62 273.857 94.66L274.297 94.68V95H268.117V94.68L268.377 94.66C268.737 94.66 268.957 94.58 269.037 94.42C269.117 94.26 269.157 93.9267 269.157 93.42L269.177 92.5V88.42L269.157 87.6C269.157 87.04 269.064 86.64 268.877 86.4C268.691 86.16 268.411 86.04 268.037 86.04C267.584 86.04 267.257 86.1867 267.057 86.48C266.871 86.7733 266.717 87.0733 266.597 87.38V92.5L266.617 93.42C266.617 93.94 266.651 94.28 266.717 94.44C266.797 94.5867 267.024 94.66 267.397 94.66L267.657 94.68V95H261.457V94.68L261.917 94.66C262.304 94.62 262.537 94.5267 262.617 94.38C262.697 94.2333 262.737 93.9133 262.737 93.42L262.757 92.5V82.62L262.737 81.8C262.737 81.44 262.677 81.1933 262.557 81.06C262.451 80.9133 262.211 80.82 261.837 80.78L261.077 80.74V80.42H266.597V85.16C266.597 85.6 266.591 85.9733 266.577 86.28C266.564 86.5733 266.544 86.8133 266.517 87ZM284.846 92C284.472 93 283.872 93.7867 283.046 94.36C282.219 94.92 281.246 95.2 280.126 95.2C278.552 95.2 277.259 94.7667 276.246 93.9C275.232 93.02 274.726 91.8067 274.726 90.26C274.726 88.82 275.246 87.64 276.286 86.72C277.339 85.7867 278.599 85.32 280.066 85.32C281.599 85.32 282.772 85.7533 283.586 86.62C284.399 87.4867 284.806 88.5467 284.806 89.8H278.666C278.666 90.28 278.699 90.7733 278.766 91.28C278.846 91.7733 278.986 92.2533 279.186 92.72C279.399 93.1867 279.692 93.5667 280.066 93.86C280.452 94.14 280.932 94.28 281.506 94.28C282.319 94.28 282.959 94.0533 283.426 93.6C283.906 93.1333 284.272 92.5533 284.526 91.86L284.846 92ZM281.326 89.4C281.312 89.2533 281.299 89.08 281.286 88.88C281.286 88.68 281.286 88.4267 281.286 88.12C281.286 87.3067 281.186 86.6933 280.986 86.28C280.786 85.8533 280.439 85.64 279.946 85.64C279.519 85.64 279.219 85.8467 279.046 86.26C278.886 86.66 278.772 87.28 278.706 88.12L278.666 89.4H281.326ZM295.411 87C295.665 86.4667 296.018 86.0533 296.471 85.76C296.925 85.4667 297.571 85.32 298.411 85.32C299.331 85.32 300.145 85.5733 300.851 86.08C301.558 86.5733 301.911 87.2133 301.911 88V92.5L301.931 93.42C301.931 93.9 301.971 94.22 302.051 94.38C302.131 94.5267 302.365 94.62 302.751 94.66L303.191 94.68V95H297.011V94.68L297.271 94.66C297.631 94.66 297.851 94.58 297.931 94.42C298.011 94.26 298.051 93.9267 298.051 93.42L298.071 92.5V88.42L298.051 87.6C298.051 87.04 297.958 86.64 297.771 86.4C297.585 86.16 297.305 86.04 296.931 86.04C296.478 86.04 296.151 86.1867 295.951 86.48C295.765 86.7733 295.611 87.0733 295.491 87.38V92.5L295.511 93.42C295.511 93.94 295.545 94.28 295.611 94.44C295.691 94.5867 295.918 94.66 296.291 94.66L296.551 94.68V95H290.351V94.68L290.811 94.66C291.198 94.62 291.431 94.5267 291.511 94.38C291.591 94.2333 291.631 93.9133 291.631 93.42L291.651 92.5V82.62L291.631 81.8C291.631 81.44 291.571 81.1933 291.451 81.06C291.345 80.9133 291.105 80.82 290.731 80.78L289.971 80.74V80.42H295.491V85.16C295.491 85.6 295.485 85.9733 295.471 86.28C295.458 86.5733 295.438 86.8133 295.411 87ZM313.92 94C314.24 94 314.46 93.8067 314.58 93.42C314.713 93.02 314.78 92.5467 314.78 92H315.06C315.06 93.1733 314.846 93.9467 314.42 94.32C314.006 94.6933 313.633 94.9267 313.3 95.02C312.966 95.1267 312.54 95.18 312.02 95.18C311.446 95.18 310.933 95.0333 310.48 94.74C310.04 94.4467 309.773 94.0533 309.68 93.56C309.466 94.1067 309.106 94.52 308.6 94.8C308.106 95.0667 307.46 95.2 306.66 95.2C305.806 95.2 305.113 94.9667 304.58 94.5C304.046 94.0333 303.78 93.3867 303.78 92.56C303.78 91.8933 303.946 91.36 304.28 90.96C304.613 90.5467 304.953 90.2933 305.3 90.2C305.646 90.1067 306.18 90.0267 306.9 89.96C307.62 89.8933 308.146 89.82 308.48 89.74C308.826 89.6467 309.073 89.5533 309.22 89.46C309.366 89.3533 309.44 89.18 309.44 88.94L309.42 87.12C309.42 86.6 309.353 86.2267 309.22 86C309.086 85.7733 308.806 85.66 308.38 85.66C308.113 85.66 307.886 85.72 307.7 85.84C307.526 85.96 307.44 86.1133 307.44 86.3C307.44 86.4467 307.58 86.6333 307.86 86.86C308.153 87.0733 308.3 87.4 308.3 87.84C308.3 88.2533 308.113 88.62 307.74 88.94C307.38 89.26 306.786 89.42 305.96 89.42C305.506 89.42 305.106 89.3 304.76 89.06C304.426 88.8067 304.26 88.4733 304.26 88.06C304.26 87.2333 304.72 86.5733 305.64 86.08C306.573 85.5867 307.68 85.34 308.96 85.34C310.04 85.34 311.033 85.5667 311.94 86.02C312.846 86.46 313.3 87.1467 313.3 88.08V92.66C313.3 93.0867 313.34 93.4133 313.42 93.64C313.486 93.88 313.653 94 313.92 94ZM309.44 93.42V89.6L309.38 89.58C309.26 89.74 309.033 89.8933 308.7 90.04C308.38 90.1733 308.153 90.3067 308.02 90.44C307.9 90.5733 307.8 90.8333 307.72 91.22C307.653 91.5933 307.62 91.98 307.62 92.38C307.62 92.98 307.666 93.46 307.76 93.82C307.853 94.18 308.066 94.36 308.4 94.36C308.653 94.36 308.873 94.26 309.06 94.06C309.26 93.86 309.386 93.6467 309.44 93.42ZM322.843 88.42L322.823 87.6C322.823 86.56 322.457 86.04 321.723 86.04C321.257 86.04 320.923 86.1867 320.723 86.48C320.537 86.7733 320.383 87.0733 320.263 87.38V92.5L320.283 93.42C320.283 93.9667 320.33 94.3133 320.423 94.46C320.53 94.6067 320.83 94.68 321.323 94.68V95H315.103V94.68L315.583 94.66C315.97 94.62 316.203 94.5267 316.283 94.38C316.363 94.2333 316.403 93.9133 316.403 93.42L316.423 92.5V87.72L316.403 86.9C316.377 86.58 316.337 86.34 316.283 86.18C316.23 86.02 315.99 85.92 315.563 85.88L315.103 85.84V85.52H320.183V87.02C320.33 86.6467 320.59 86.2733 320.963 85.9C321.35 85.5133 322.09 85.32 323.183 85.32C324.13 85.32 324.95 85.5867 325.643 86.12C326.337 86.6533 326.683 87.28 326.683 88V92.5L326.703 93.42C326.703 93.9 326.743 94.22 326.823 94.38C326.903 94.5267 327.137 94.62 327.523 94.66L327.963 94.68V95H321.783V94.68C322.263 94.68 322.557 94.6067 322.663 94.46C322.77 94.3 322.823 93.9533 322.823 93.42L322.843 92.5V88.42ZM335.17 86.9C335.117 86.5667 334.97 86.3133 334.73 86.14C334.49 85.9667 334.21 85.88 333.89 85.88C333.477 85.88 333.163 86.08 332.95 86.48C332.75 86.8667 332.617 87.3133 332.55 87.82C332.497 88.3133 332.463 88.7667 332.45 89.18C332.437 89.58 332.43 89.9533 332.43 90.3V91.2C332.43 91.4533 332.457 91.8933 332.51 92.52C332.577 93.1467 332.71 93.66 332.91 94.06C333.123 94.46 333.443 94.66 333.87 94.66C334.603 94.66 335.03 94.3067 335.15 93.6C335.177 93.2933 335.197 92.7533 335.21 91.98C335.223 91.1933 335.23 90.6067 335.23 90.22V88.38C335.23 87.82 335.21 87.3267 335.17 86.9ZM335.23 85.46V82.9L335.19 81.98C335.19 81.54 335.123 81.2467 334.99 81.1C334.857 80.9533 334.57 80.8533 334.13 80.8L333.19 80.74V80.42H339.07V92.8L339.09 93.62C339.09 93.98 339.15 94.2333 339.27 94.38C339.403 94.5133 339.65 94.6 340.01 94.64L340.65 94.68V95H335.27V94C335.123 94.2667 334.883 94.5333 334.55 94.8C334.23 95.0667 333.617 95.2 332.71 95.2C331.43 95.2 330.39 94.7533 329.59 93.86C328.79 92.9667 328.39 91.7533 328.39 90.22C328.39 88.74 328.79 87.5533 329.59 86.66C330.39 85.7667 331.43 85.32 332.71 85.32C333.643 85.32 334.263 85.4467 334.57 85.7C334.877 85.9533 335.103 86.22 335.25 86.5L335.23 85.46ZM351.712 90.26C351.712 91.6733 351.172 92.8533 350.092 93.8C349.025 94.7333 347.765 95.2 346.312 95.2C344.778 95.2 343.492 94.7333 342.452 93.8C341.425 92.8533 340.912 91.6733 340.912 90.26C340.912 88.8467 341.432 87.6733 342.472 86.74C343.525 85.7933 344.805 85.32 346.312 85.32C347.792 85.32 349.058 85.7867 350.112 86.72C351.178 87.6533 351.712 88.8333 351.712 90.26ZM347.732 90.24C347.732 90.0533 347.718 89.68 347.692 89.12C347.665 88.56 347.652 88.2267 347.652 88.12C347.652 87.4 347.538 86.8067 347.312 86.34C347.098 85.8733 346.758 85.64 346.292 85.64C345.865 85.64 345.538 85.8867 345.312 86.38C345.085 86.86 344.972 87.44 344.972 88.12C344.972 88.3733 344.958 88.6867 344.932 89.06C344.918 89.42 344.905 89.8133 344.892 90.24C344.892 90.4267 344.905 90.8133 344.932 91.4C344.958 91.9733 344.972 92.3067 344.972 92.4C344.972 93.12 345.078 93.7133 345.292 94.18C345.518 94.6467 345.858 94.88 346.312 94.88C346.752 94.88 347.085 94.64 347.312 94.16C347.538 93.68 347.652 93.0933 347.652 92.4C347.652 92.1333 347.658 91.82 347.672 91.46C347.685 91.0867 347.705 90.68 347.732 90.24ZM358.358 85.84C358.278 85.84 358.198 85.8467 358.118 85.86C358.038 85.86 357.891 85.88 357.678 85.92C357.478 85.9467 357.378 86.1 357.378 86.38C357.378 86.5267 357.391 86.6533 357.418 86.76C357.445 86.8667 357.491 87 357.558 87.16L359.078 91.2L360.498 87.52C360.658 87.0533 360.738 86.6867 360.738 86.42C360.738 86.2333 360.691 86.1067 360.598 86.04C360.505 85.9733 360.358 85.92 360.158 85.88L359.518 85.84V85.52H362.858V85.84L362.118 85.92C361.905 85.96 361.711 86.0867 361.538 86.3C361.365 86.5 361.185 86.84 360.998 87.32C360.811 87.7867 360.445 88.72 359.898 90.12C359.365 91.52 358.958 92.5867 358.678 93.32C358.398 94.0533 358.178 94.64 358.018 95.08H356.598C356.371 94.5067 356.091 93.7867 355.758 92.92C355.425 92.04 355.005 90.9533 354.498 89.66C353.991 88.3533 353.645 87.4733 353.458 87.02C353.271 86.5667 353.131 86.28 353.038 86.16C352.958 86.0267 352.831 85.9467 352.658 85.92C352.485 85.88 352.325 85.86 352.178 85.86C352.031 85.8467 351.925 85.84 351.858 85.84V85.52H358.358V85.84ZM372.736 92C372.362 93 371.762 93.7867 370.936 94.36C370.109 94.92 369.136 95.2 368.016 95.2C366.442 95.2 365.149 94.7667 364.136 93.9C363.122 93.02 362.616 91.8067 362.616 90.26C362.616 88.82 363.136 87.64 364.176 86.72C365.229 85.7867 366.489 85.32 367.956 85.32C369.489 85.32 370.662 85.7533 371.476 86.62C372.289 87.4867 372.696 88.5467 372.696 89.8H366.556C366.556 90.28 366.589 90.7733 366.656 91.28C366.736 91.7733 366.876 92.2533 367.076 92.72C367.289 93.1867 367.582 93.5667 367.956 93.86C368.342 94.14 368.822 94.28 369.396 94.28C370.209 94.28 370.849 94.0533 371.316 93.6C371.796 93.1333 372.162 92.5533 372.416 91.86L372.736 92ZM369.216 89.4C369.202 89.2533 369.189 89.08 369.176 88.88C369.176 88.68 369.176 88.4267 369.176 88.12C369.176 87.3067 369.076 86.6933 368.876 86.28C368.676 85.8533 368.329 85.64 367.836 85.64C367.409 85.64 367.109 85.8467 366.936 86.26C366.776 86.66 366.662 87.28 366.596 88.12L366.556 89.4H369.216ZM373.141 95V94.68L373.681 94.66C374.068 94.62 374.301 94.5267 374.381 94.38C374.461 94.2333 374.501 93.9133 374.501 93.42L374.521 92.5V87.72L374.501 86.9C374.474 86.58 374.434 86.34 374.381 86.18C374.328 86.02 374.088 85.92 373.661 85.88L373.141 85.84V85.52H378.321V87.2C378.414 86.96 378.614 86.6 378.921 86.12C379.228 85.64 379.928 85.4 381.021 85.4C381.661 85.4 382.201 85.6267 382.641 86.08C383.094 86.52 383.321 87.0467 383.321 87.66C383.321 88.2733 383.108 88.7867 382.681 89.2C382.268 89.6 381.754 89.8 381.141 89.8C380.634 89.8 380.194 89.6267 379.821 89.28C379.461 88.92 379.281 88.5133 379.281 88.06C379.281 87.7267 379.341 87.42 379.461 87.14C379.594 86.8867 379.728 86.6267 379.861 86.36C379.794 86.2667 379.728 86.22 379.661 86.22C379.314 86.22 379.008 86.4267 378.741 86.84C378.488 87.2533 378.361 87.64 378.361 88V92.62L378.381 93.62C378.381 93.9933 378.428 94.2467 378.521 94.38C378.614 94.5133 378.848 94.6 379.221 94.64L379.821 94.68V95H373.141Z" fill="white"/>
<path d="M66.936 121V112.48H69.288C70.98 112.48 72.408 113.272 72.408 115.168C72.408 117.028 70.872 117.832 69.156 117.832C68.748 117.832 68.34 117.796 67.944 117.736V121H66.936ZM67.944 113.38V116.836C68.328 116.908 68.736 116.932 69.132 116.932C70.296 116.932 71.376 116.476 71.376 115.156C71.376 113.932 70.428 113.38 69.276 113.38H67.944ZM73.7075 114.808H74.6675V118.324C74.6675 119.344 75.1475 120.304 76.2995 120.304C77.4515 120.304 77.9315 119.392 77.9315 118.324V114.808H78.8915V118.312C78.8915 119.896 77.9915 121.18 76.2755 121.18C74.5835 121.18 73.7075 119.956 73.7075 118.312V114.808ZM80.5889 121V112.096H81.5489V121H80.5889ZM83.2856 121V112.096H84.2456V121H83.2856ZM88.3673 119.26C88.3673 117.844 89.6633 117.268 90.9233 117.268C91.4513 117.268 92.1233 117.388 92.5913 117.616V117.16C92.5913 116.212 92.0393 115.48 91.0313 115.48C90.3353 115.48 89.7113 115.828 89.4353 116.488L88.5953 116.2C88.9433 115.168 90.0113 114.64 91.0433 114.64C92.5553 114.64 93.5153 115.648 93.5153 117.184V121H92.6753L92.6153 120.04C92.2193 120.808 91.4273 121.18 90.5873 121.18C89.4473 121.18 88.3673 120.52 88.3673 119.26ZM89.3393 119.224C89.3393 120.016 90.0473 120.376 90.7673 120.376C91.7753 120.376 92.5913 119.632 92.5913 118.588V118.36C92.0873 118.156 91.5713 118.024 91.0313 118.024C90.2753 118.024 89.3393 118.312 89.3393 119.224ZM100.557 121.18C98.7688 121.18 97.5808 119.704 97.5808 117.952C97.5808 116.224 98.7568 114.628 100.605 114.628C101.721 114.628 102.645 115.24 103.077 116.284L102.201 116.584C101.865 115.948 101.313 115.504 100.569 115.504C99.2728 115.504 98.5648 116.752 98.5648 117.94C98.5648 118.78 98.9368 119.776 99.7648 120.124C100.005 120.244 100.269 120.304 100.557 120.304C101.289 120.304 101.961 119.908 102.273 119.236L103.149 119.536C102.729 120.592 101.673 121.18 100.557 121.18ZM107.228 121.18C105.404 121.18 104.168 119.704 104.168 117.904C104.168 116.14 105.392 114.628 107.252 114.628C109.088 114.628 110.312 116.08 110.312 117.904C110.312 119.68 109.1 121.18 107.228 121.18ZM105.152 117.904C105.152 118.516 105.32 119.164 105.752 119.62C106.124 120.064 106.664 120.304 107.24 120.304C108.56 120.304 109.328 119.164 109.328 117.904C109.328 117.268 109.16 116.668 108.74 116.176C108.332 115.744 107.84 115.504 107.24 115.504C105.92 115.504 105.152 116.656 105.152 117.904ZM111.735 114.808H112.599L112.647 115.756C113.031 115.012 113.739 114.628 114.567 114.628C115.503 114.628 116.211 115.132 116.547 115.996C116.895 115.12 117.735 114.628 118.671 114.628C120.243 114.628 120.927 115.852 120.927 117.328V121H119.967V117.388C119.967 116.416 119.643 115.504 118.515 115.504C117.519 115.504 116.811 116.284 116.811 117.28V121H115.851V117.388C115.851 116.404 115.491 115.504 114.375 115.504C113.367 115.504 112.695 116.284 112.695 117.28V121H111.735V114.808ZM122.624 114.808H123.488L123.536 115.984C124.004 115.12 124.832 114.628 125.816 114.628C127.592 114.628 128.72 116.188 128.72 117.892C128.72 119.584 127.592 121.18 125.768 121.18C124.844 121.18 124.04 120.748 123.584 119.944V123.448H122.624V114.808ZM123.56 117.904C123.56 118.516 123.728 119.164 124.16 119.62C124.532 120.064 125.072 120.304 125.648 120.304C126.968 120.304 127.736 119.164 127.736 117.904C127.736 117.268 127.568 116.668 127.148 116.176C126.74 115.744 126.248 115.504 125.648 115.504C124.328 115.504 123.56 116.656 123.56 117.904ZM130.148 121V112.096H131.108V121H130.148ZM132.533 117.916C132.533 116.2 133.661 114.64 135.497 114.64C137.213 114.64 138.341 115.996 138.341 117.7V118.096H133.529C133.625 119.296 134.297 120.328 135.629 120.328C136.385 120.328 136.997 120.004 137.405 119.356L138.221 119.728C137.717 120.688 136.721 121.18 135.653 121.18C133.793 121.18 132.533 119.776 132.533 117.916ZM135.497 115.456C134.417 115.456 133.745 116.344 133.577 117.352H137.333C137.237 116.344 136.601 115.456 135.497 115.456ZM139.101 114.808H140.241V112.732H141.201V114.808H143.145V115.624H141.201V119.152C141.201 119.776 141.453 120.316 142.149 120.316C142.473 120.316 142.845 120.208 143.121 120.028L143.409 120.772C143.001 121.06 142.557 121.18 142.065 121.18C140.865 121.18 140.241 120.388 140.241 119.2V115.624H139.101V114.808ZM144.278 117.916C144.278 116.2 145.406 114.64 147.242 114.64C148.958 114.64 150.086 115.996 150.086 117.7V118.096H145.274C145.37 119.296 146.042 120.328 147.374 120.328C148.13 120.328 148.742 120.004 149.15 119.356L149.966 119.728C149.462 120.688 148.466 121.18 147.398 121.18C145.538 121.18 144.278 119.776 144.278 117.916ZM147.242 115.456C146.162 115.456 145.49 116.344 145.322 117.352H149.078C148.982 116.344 148.346 115.456 147.242 115.456ZM153.794 119.692L154.658 119.38C154.958 119.968 155.486 120.34 156.158 120.34C156.77 120.34 157.49 120.028 157.49 119.32C157.49 118.804 157.118 118.468 156.362 118.312L155.894 118.216C154.946 118.024 153.974 117.592 153.974 116.476C153.974 115.252 155.018 114.628 156.158 114.628C157.166 114.628 158.018 115.12 158.378 116.104L157.514 116.392C157.382 116.092 157.202 115.864 156.974 115.696C156.734 115.54 156.458 115.456 156.146 115.456C155.594 115.456 154.934 115.732 154.934 116.38C154.934 117.052 155.642 117.256 156.182 117.352L156.65 117.448C157.61 117.64 158.474 118.132 158.474 119.224C158.474 120.496 157.346 121.18 156.158 121.18C155.138 121.18 154.19 120.676 153.794 119.692ZM159.805 121V112.096H160.765V115.708C161.161 114.988 161.917 114.628 162.721 114.628C164.317 114.628 165.049 115.876 165.049 117.376V121H164.089V117.436C164.089 116.416 163.693 115.504 162.541 115.504C161.485 115.504 160.765 116.26 160.765 117.328V121H159.805ZM167.704 121H166.744V114.808H167.704V121ZM167.224 113.656C166.876 113.656 166.564 113.344 166.564 112.996C166.564 112.636 166.864 112.336 167.224 112.336C167.596 112.336 167.884 112.612 167.884 112.996C167.884 113.356 167.584 113.656 167.224 113.656ZM168.793 114.808H169.933V114.232C169.933 112.984 170.617 111.976 171.973 111.976C172.405 111.976 172.789 112.084 173.137 112.288L172.861 113.032C172.597 112.9 172.321 112.816 172.033 112.816C171.157 112.816 170.893 113.488 170.893 114.256V114.808H172.849V115.624H170.893V121H169.933V115.624H168.793V114.808ZM173.505 114.808H174.645V112.732H175.605V114.808H177.549V115.624H175.605V119.152C175.605 119.776 175.857 120.316 176.553 120.316C176.877 120.316 177.249 120.208 177.525 120.028L177.813 120.772C177.405 121.06 176.961 121.18 176.469 121.18C175.269 121.18 174.645 120.388 174.645 119.2V115.624H173.505V114.808ZM181.389 119.692L182.253 119.38C182.553 119.968 183.081 120.34 183.753 120.34C184.365 120.34 185.085 120.028 185.085 119.32C185.085 118.804 184.713 118.468 183.957 118.312L183.489 118.216C182.541 118.024 181.569 117.592 181.569 116.476C181.569 115.252 182.613 114.628 183.753 114.628C184.761 114.628 185.613 115.12 185.973 116.104L185.109 116.392C184.977 116.092 184.797 115.864 184.569 115.696C184.329 115.54 184.053 115.456 183.741 115.456C183.189 115.456 182.529 115.732 182.529 116.38C182.529 117.052 183.237 117.256 183.777 117.352L184.245 117.448C185.205 117.64 186.069 118.132 186.069 119.224C186.069 120.496 184.941 121.18 183.753 121.18C182.733 121.18 181.785 120.676 181.389 119.692ZM187.352 114.808H188.312V118.324C188.312 119.344 188.792 120.304 189.944 120.304C191.096 120.304 191.576 119.392 191.576 118.324V114.808H192.536V118.312C192.536 119.896 191.636 121.18 189.92 121.18C188.228 121.18 187.352 119.956 187.352 118.312V114.808ZM194.233 114.808H195.097L195.145 115.756C195.529 115.012 196.237 114.628 197.065 114.628C198.001 114.628 198.709 115.132 199.045 115.996C199.393 115.12 200.233 114.628 201.169 114.628C202.741 114.628 203.425 115.852 203.425 117.328V121H202.465V117.388C202.465 116.416 202.141 115.504 201.013 115.504C200.017 115.504 199.309 116.284 199.309 117.28V121H198.349V117.388C198.349 116.404 197.989 115.504 196.873 115.504C195.865 115.504 195.193 116.284 195.193 117.28V121H194.233V114.808ZM205.121 114.808H205.985L206.033 115.756C206.417 115.012 207.125 114.628 207.953 114.628C208.889 114.628 209.597 115.132 209.933 115.996C210.281 115.12 211.121 114.628 212.057 114.628C213.629 114.628 214.313 115.852 214.313 117.328V121H213.353V117.388C213.353 116.416 213.029 115.504 211.901 115.504C210.905 115.504 210.197 116.284 210.197 117.28V121H209.237V117.388C209.237 116.404 208.877 115.504 207.761 115.504C206.753 115.504 206.081 116.284 206.081 117.28V121H205.121V114.808ZM215.709 119.26C215.709 117.844 217.005 117.268 218.265 117.268C218.793 117.268 219.465 117.388 219.933 117.616V117.16C219.933 116.212 219.381 115.48 218.373 115.48C217.677 115.48 217.053 115.828 216.777 116.488L215.937 116.2C216.285 115.168 217.353 114.64 218.385 114.64C219.897 114.64 220.857 115.648 220.857 117.184V121H220.017L219.957 120.04C219.561 120.808 218.769 121.18 217.929 121.18C216.789 121.18 215.709 120.52 215.709 119.26ZM216.681 119.224C216.681 120.016 217.389 120.376 218.109 120.376C219.117 120.376 219.933 119.632 219.933 118.588V118.36C219.429 118.156 218.913 118.024 218.373 118.024C217.617 118.024 216.681 118.312 216.681 119.224ZM222.55 114.808H223.414L223.474 115.96C223.786 115.192 224.386 114.724 225.226 114.724C225.358 114.724 225.49 114.736 225.598 114.748C225.706 114.772 225.79 114.796 225.874 114.832L225.754 115.744C225.574 115.672 225.382 115.66 225.19 115.66C224.038 115.66 223.51 116.656 223.51 117.712V121H222.55V114.808ZM226.626 114.808H227.682L229.662 119.896L231.45 114.808H232.47L229.71 121.972C229.374 122.872 228.81 123.568 227.778 123.568C227.418 123.568 227.178 123.508 226.866 123.34L227.142 122.572C227.322 122.668 227.526 122.716 227.73 122.716C228.342 122.716 228.666 122.272 228.87 121.744L229.194 120.94L226.626 114.808ZM235.653 114.808H236.709L238.593 119.968L240.477 114.808H241.497L239.073 121H238.077L235.653 114.808ZM243.578 121H242.618V114.808H243.578V121ZM243.098 113.656C242.75 113.656 242.438 113.344 242.438 112.996C242.438 112.636 242.738 112.336 243.098 112.336C243.47 112.336 243.758 112.612 243.758 112.996C243.758 113.356 243.458 113.656 243.098 113.656ZM245.015 119.26C245.015 117.844 246.311 117.268 247.571 117.268C248.099 117.268 248.771 117.388 249.239 117.616V117.16C249.239 116.212 248.687 115.48 247.679 115.48C246.983 115.48 246.359 115.828 246.083 116.488L245.243 116.2C245.591 115.168 246.659 114.64 247.691 114.64C249.203 114.64 250.163 115.648 250.163 117.184V121H249.323L249.263 120.04C248.867 120.808 248.075 121.18 247.235 121.18C246.095 121.18 245.015 120.52 245.015 119.26ZM245.987 119.224C245.987 120.016 246.695 120.376 247.415 120.376C248.423 120.376 249.239 119.632 249.239 118.588V118.36C248.735 118.156 248.219 118.024 247.679 118.024C246.923 118.024 245.987 118.312 245.987 119.224ZM253.976 121L257.408 112.48H258.476L261.908 121H260.828L259.88 118.576H255.968L255.02 121H253.976ZM257.924 113.596L256.328 117.652H259.508L257.924 113.596ZM263.181 121V112.48H265.533C267.225 112.48 268.653 113.272 268.653 115.168C268.653 117.028 267.117 117.832 265.401 117.832C264.993 117.832 264.585 117.796 264.189 117.736V121H263.181ZM264.189 113.38V116.836C264.573 116.908 264.981 116.932 265.377 116.932C266.541 116.932 267.621 116.476 267.621 115.156C267.621 113.932 266.673 113.38 265.521 113.38H264.189ZM270.096 121V112.48H271.104V121H270.096ZM275.328 119.26C275.328 117.844 276.624 117.268 277.884 117.268C278.412 117.268 279.084 117.388 279.552 117.616V117.16C279.552 116.212 279 115.48 277.992 115.48C277.296 115.48 276.672 115.828 276.396 116.488L275.556 116.2C275.904 115.168 276.972 114.64 278.004 114.64C279.516 114.64 280.476 115.648 280.476 117.184V121H279.636L279.576 120.04C279.18 120.808 278.388 121.18 277.548 121.18C276.408 121.18 275.328 120.52 275.328 119.26ZM276.3 119.224C276.3 120.016 277.008 120.376 277.728 120.376C278.736 120.376 279.552 119.632 279.552 118.588V118.36C279.048 118.156 278.532 118.024 277.992 118.024C277.236 118.024 276.3 118.312 276.3 119.224ZM282.168 114.808H283.032L283.08 115.792C283.476 115.036 284.244 114.628 285.084 114.628C286.68 114.628 287.412 115.876 287.412 117.376V121H286.452V117.436C286.452 116.416 286.056 115.504 284.904 115.504C283.848 115.504 283.128 116.26 283.128 117.328V121H282.168V114.808ZM291.699 121.18C289.935 121.18 288.795 119.608 288.795 117.916C288.795 116.224 289.923 114.628 291.747 114.628C292.671 114.628 293.463 115.06 293.931 115.864V112.096H294.891V121H294.027L293.979 119.824C293.499 120.7 292.695 121.18 291.699 121.18ZM289.779 117.904C289.779 118.516 289.947 119.164 290.379 119.62C290.751 120.064 291.291 120.304 291.867 120.304C293.187 120.304 293.955 119.164 293.955 117.904C293.955 117.268 293.787 116.668 293.367 116.176C292.959 115.744 292.467 115.504 291.867 115.504C290.547 115.504 289.779 116.656 289.779 117.904ZM299.317 114.808H300.181L300.229 115.984C300.697 115.12 301.525 114.628 302.509 114.628C304.285 114.628 305.413 116.188 305.413 117.892C305.413 119.584 304.285 121.18 302.461 121.18C301.537 121.18 300.733 120.748 300.277 119.944V123.448H299.317V114.808ZM300.253 117.904C300.253 118.516 300.421 119.164 300.853 119.62C301.225 120.064 301.765 120.304 302.341 120.304C303.661 120.304 304.429 119.164 304.429 117.904C304.429 117.268 304.261 116.668 303.841 116.176C303.433 115.744 302.941 115.504 302.341 115.504C301.021 115.504 300.253 116.656 300.253 117.904ZM306.794 114.808H307.754V118.324C307.754 119.344 308.234 120.304 309.386 120.304C310.538 120.304 311.018 119.392 311.018 118.324V114.808H311.978V118.312C311.978 119.896 311.078 121.18 309.362 121.18C307.67 121.18 306.794 119.956 306.794 118.312V114.808ZM313.267 119.692L314.131 119.38C314.431 119.968 314.959 120.34 315.631 120.34C316.243 120.34 316.963 120.028 316.963 119.32C316.963 118.804 316.591 118.468 315.835 118.312L315.367 118.216C314.419 118.024 313.447 117.592 313.447 116.476C313.447 115.252 314.491 114.628 315.631 114.628C316.639 114.628 317.491 115.12 317.851 116.104L316.987 116.392C316.855 116.092 316.675 115.864 316.447 115.696C316.207 115.54 315.931 115.456 315.619 115.456C315.067 115.456 314.407 115.732 314.407 116.38C314.407 117.052 315.115 117.256 315.655 117.352L316.123 117.448C317.083 117.64 317.947 118.132 317.947 119.224C317.947 120.496 316.819 121.18 315.631 121.18C314.611 121.18 313.663 120.676 313.267 119.692ZM319.278 121V112.096H320.238V115.708C320.634 114.988 321.39 114.628 322.194 114.628C323.79 114.628 324.522 115.876 324.522 117.376V121H323.562V117.436C323.562 116.416 323.166 115.504 322.014 115.504C320.958 115.504 320.238 116.26 320.238 117.328V121H319.278ZM329.862 121H328.902V114.808H329.862V121ZM329.382 113.656C329.034 113.656 328.722 113.344 328.722 112.996C328.722 112.636 329.022 112.336 329.382 112.336C329.754 112.336 330.042 112.612 330.042 112.996C330.042 113.356 329.742 113.656 329.382 113.656ZM330.951 114.808H332.091V112.732H333.051V114.808H334.995V115.624H333.051V119.152C333.051 119.776 333.303 120.316 333.999 120.316C334.323 120.316 334.695 120.208 334.971 120.028L335.259 120.772C334.851 121.06 334.407 121.18 333.915 121.18C332.715 121.18 332.091 120.388 332.091 119.2V115.624H330.951V114.808ZM340.202 121H339.242V114.808H340.202V121ZM339.722 113.656C339.374 113.656 339.062 113.344 339.062 112.996C339.062 112.636 339.362 112.336 339.722 112.336C340.094 112.336 340.382 112.612 340.382 112.996C340.382 113.356 340.082 113.656 339.722 113.656ZM341.939 114.808H342.803L342.851 115.792C343.247 115.036 344.015 114.628 344.855 114.628C346.451 114.628 347.183 115.876 347.183 117.376V121H346.223V117.436C346.223 116.416 345.827 115.504 344.675 115.504C343.619 115.504 342.899 116.26 342.899 117.328V121H341.939V114.808ZM348.054 114.808H349.194V112.732H350.154V114.808H352.098V115.624H350.154V119.152C350.154 119.776 350.406 120.316 351.102 120.316C351.426 120.316 351.798 120.208 352.074 120.028L352.362 120.772C351.954 121.06 351.51 121.18 351.018 121.18C349.818 121.18 349.194 120.388 349.194 119.2V115.624H348.054V114.808ZM356.291 121.18C354.467 121.18 353.231 119.704 353.231 117.904C353.231 116.14 354.455 114.628 356.315 114.628C358.151 114.628 359.375 116.08 359.375 117.904C359.375 119.68 358.163 121.18 356.291 121.18ZM354.215 117.904C354.215 118.516 354.383 119.164 354.815 119.62C355.187 120.064 355.727 120.304 356.303 120.304C357.623 120.304 358.391 119.164 358.391 117.904C358.391 117.268 358.223 116.668 357.803 116.176C357.395 115.744 356.903 115.504 356.303 115.504C354.983 115.504 354.215 116.656 354.215 117.904ZM363.076 119.26L364.024 118.96C364.324 119.776 365.044 120.28 365.92 120.28C366.856 120.28 367.732 119.692 367.732 118.672C367.732 117.736 366.988 117.34 366.172 117.16L365.644 117.04C364.408 116.752 363.292 116.104 363.292 114.7C363.292 113.248 364.492 112.3 365.908 112.3C367.156 112.3 368.236 112.984 368.62 114.208L367.672 114.508C367.372 113.716 366.772 113.2 365.908 113.2C365.068 113.2 364.312 113.716 364.312 114.628C364.312 115.564 365.188 115.912 365.968 116.092L366.496 116.212C367.756 116.512 368.752 117.208 368.752 118.612C368.752 120.196 367.48 121.18 365.932 121.18C364.672 121.18 363.496 120.508 363.076 119.26ZM370.153 121V112.096H371.113V121H370.153ZM372.55 119.26C372.55 117.844 373.846 117.268 375.106 117.268C375.634 117.268 376.306 117.388 376.774 117.616V117.16C376.774 116.212 376.222 115.48 375.214 115.48C374.518 115.48 373.894 115.828 373.618 116.488L372.778 116.2C373.126 115.168 374.194 114.64 375.226 114.64C376.738 114.64 377.698 115.648 377.698 117.184V121H376.858L376.798 120.04C376.402 120.808 375.61 121.18 374.77 121.18C373.63 121.18 372.55 120.52 372.55 119.26ZM373.522 119.224C373.522 120.016 374.23 120.376 374.95 120.376C375.958 120.376 376.774 119.632 376.774 118.588V118.36C376.27 118.156 375.754 118.024 375.214 118.024C374.458 118.024 373.522 118.312 373.522 119.224ZM382.054 121.18C380.266 121.18 379.078 119.704 379.078 117.952C379.078 116.224 380.254 114.628 382.102 114.628C383.218 114.628 384.142 115.24 384.574 116.284L383.698 116.584C383.362 115.948 382.81 115.504 382.066 115.504C380.77 115.504 380.062 116.752 380.062 117.94C380.062 118.78 380.434 119.776 381.262 120.124C381.502 120.244 381.766 120.304 382.054 120.304C382.786 120.304 383.458 119.908 383.77 119.236L384.646 119.536C384.226 120.592 383.17 121.18 382.054 121.18ZM386.001 112.096H386.961V117.4L389.889 114.808H391.125L387.957 117.58L391.413 121H390.093L386.961 117.832V121H386.001V112.096ZM392.461 123.16L392.197 122.572C392.761 122.296 393.241 121.828 393.241 121.156C393.241 120.976 393.205 120.82 393.145 120.688C393.061 120.784 392.941 120.832 392.797 120.832C392.641 120.832 392.497 120.772 392.389 120.652C392.269 120.532 392.209 120.388 392.209 120.22C392.209 119.848 392.557 119.596 392.905 119.596C393.637 119.596 393.973 120.436 393.973 121.06C393.973 122.044 393.349 122.788 392.461 123.16ZM397.646 117.916C397.646 116.2 398.774 114.64 400.61 114.64C402.326 114.64 403.454 115.996 403.454 117.7V118.096H398.642C398.738 119.296 399.41 120.328 400.742 120.328C401.498 120.328 402.11 120.004 402.518 119.356L403.334 119.728C402.83 120.688 401.834 121.18 400.766 121.18C398.906 121.18 397.646 119.776 397.646 117.916ZM400.61 115.456C399.53 115.456 398.858 116.344 398.69 117.352H402.446C402.35 116.344 401.714 115.456 400.61 115.456ZM404.886 114.808H405.75L405.798 115.756C406.182 115.012 406.89 114.628 407.718 114.628C408.654 114.628 409.362 115.132 409.698 115.996C410.046 115.12 410.886 114.628 411.822 114.628C413.394 114.628 414.078 115.852 414.078 117.328V121H413.118V117.388C413.118 116.416 412.794 115.504 411.666 115.504C410.67 115.504 409.962 116.284 409.962 117.28V121H409.002V117.388C409.002 116.404 408.642 115.504 407.526 115.504C406.518 115.504 405.846 116.284 405.846 117.28V121H404.886V114.808ZM415.474 119.26C415.474 117.844 416.77 117.268 418.03 117.268C418.558 117.268 419.23 117.388 419.698 117.616V117.16C419.698 116.212 419.146 115.48 418.138 115.48C417.442 115.48 416.818 115.828 416.542 116.488L415.702 116.2C416.05 115.168 417.118 114.64 418.15 114.64C419.662 114.64 420.622 115.648 420.622 117.184V121H419.782L419.722 120.04C419.326 120.808 418.534 121.18 417.694 121.18C416.554 121.18 415.474 120.52 415.474 119.26ZM416.446 119.224C416.446 120.016 417.154 120.376 417.874 120.376C418.882 120.376 419.698 119.632 419.698 118.588V118.36C419.194 118.156 418.678 118.024 418.138 118.024C417.382 118.024 416.446 118.312 416.446 119.224ZM423.274 121H422.314V114.808H423.274V121ZM422.794 113.656C422.446 113.656 422.134 113.344 422.134 112.996C422.134 112.636 422.434 112.336 422.794 112.336C423.166 112.336 423.454 112.612 423.454 112.996C423.454 113.356 423.154 113.656 422.794 113.656ZM425.011 121V112.096H425.971V121H425.011ZM427.756 123.16L427.492 122.572C428.056 122.296 428.536 121.828 428.536 121.156C428.536 120.976 428.5 120.82 428.44 120.688C428.356 120.784 428.236 120.832 428.092 120.832C427.936 120.832 427.792 120.772 427.684 120.652C427.564 120.532 427.504 120.388 427.504 120.22C427.504 119.848 427.852 119.596 428.2 119.596C428.932 119.596 429.268 120.436 429.268 121.06C429.268 122.044 428.644 122.788 427.756 123.16ZM436.001 121.18C434.177 121.18 432.941 119.704 432.941 117.904C432.941 116.14 434.165 114.628 436.025 114.628C437.861 114.628 439.085 116.08 439.085 117.904C439.085 119.68 437.873 121.18 436.001 121.18ZM433.925 117.904C433.925 118.516 434.093 119.164 434.525 119.62C434.897 120.064 435.437 120.304 436.013 120.304C437.333 120.304 438.101 119.164 438.101 117.904C438.101 117.268 437.933 116.668 437.513 116.176C437.105 115.744 436.613 115.504 436.013 115.504C434.693 115.504 433.925 116.656 433.925 117.904ZM440.509 114.808H441.373L441.433 115.96C441.745 115.192 442.345 114.724 443.185 114.724C443.317 114.724 443.449 114.736 443.557 114.748C443.665 114.772 443.749 114.796 443.833 114.832L443.713 115.744C443.533 115.672 443.341 115.66 443.149 115.66C441.997 115.66 441.469 116.656 441.469 117.712V121H440.509V114.808ZM447.13 114.808H448.186L450.166 119.896L451.954 114.808H452.974L450.214 121.972C449.878 122.872 449.314 123.568 448.282 123.568C447.922 123.568 447.682 123.508 447.37 123.34L447.646 122.572C447.826 122.668 448.03 122.716 448.234 122.716C448.846 122.716 449.17 122.272 449.374 121.744L449.698 120.94L447.13 114.808ZM456.702 121.18C454.878 121.18 453.642 119.704 453.642 117.904C453.642 116.14 454.866 114.628 456.726 114.628C458.562 114.628 459.786 116.08 459.786 117.904C459.786 119.68 458.574 121.18 456.702 121.18ZM454.626 117.904C454.626 118.516 454.794 119.164 455.226 119.62C455.598 120.064 456.138 120.304 456.714 120.304C458.034 120.304 458.802 119.164 458.802 117.904C458.802 117.268 458.634 116.668 458.214 116.176C457.806 115.744 457.314 115.504 456.714 115.504C455.394 115.504 454.626 116.656 454.626 117.904ZM461.162 114.808H462.122V118.324C462.122 119.344 462.602 120.304 463.754 120.304C464.906 120.304 465.386 119.392 465.386 118.324V114.808H466.346V118.312C466.346 119.896 465.446 121.18 463.73 121.18C462.038 121.18 461.162 119.956 461.162 118.312V114.808ZM468.043 114.808H468.907L468.967 115.96C469.279 115.192 469.879 114.724 470.719 114.724C470.851 114.724 470.983 114.736 471.091 114.748C471.199 114.772 471.283 114.796 471.367 114.832L471.247 115.744C471.067 115.672 470.875 115.66 470.683 115.66C469.531 115.66 469.003 116.656 469.003 117.712V121H468.043V114.808ZM478.036 121.18C476.212 121.18 474.976 119.704 474.976 117.904C474.976 116.14 476.2 114.628 478.06 114.628C479.896 114.628 481.12 116.08 481.12 117.904C481.12 119.68 479.908 121.18 478.036 121.18ZM475.96 117.904C475.96 118.516 476.128 119.164 476.56 119.62C476.932 120.064 477.472 120.304 478.048 120.304C479.368 120.304 480.136 119.164 480.136 117.904C480.136 117.268 479.968 116.668 479.548 116.176C479.14 115.744 478.648 115.504 478.048 115.504C476.728 115.504 475.96 116.656 475.96 117.904ZM483.867 121L481.779 114.808H482.787L484.335 119.824L485.931 114.808H486.795L488.379 119.824L489.927 114.808H490.911L488.823 121H487.899L486.351 116.044L484.791 121H483.867ZM492.025 114.808H492.889L492.937 115.792C493.333 115.036 494.101 114.628 494.941 114.628C496.537 114.628 497.269 115.876 497.269 117.376V121H496.309V117.436C496.309 116.416 495.913 115.504 494.761 115.504C493.705 115.504 492.985 116.26 492.985 117.328V121H492.025V114.808ZM69.432 139.18C67.668 139.18 66.528 137.608 66.528 135.916C66.528 134.224 67.656 132.628 69.48 132.628C70.404 132.628 71.196 133.06 71.664 133.864V130.096H72.624V139H71.76L71.712 137.824C71.232 138.7 70.428 139.18 69.432 139.18ZM67.512 135.904C67.512 136.516 67.68 137.164 68.112 137.62C68.484 138.064 69.024 138.304 69.6 138.304C70.92 138.304 71.688 137.164 71.688 135.904C71.688 135.268 71.52 134.668 71.1 134.176C70.692 133.744 70.2 133.504 69.6 133.504C68.28 133.504 67.512 134.656 67.512 135.904ZM74.0648 137.26C74.0648 135.844 75.3608 135.268 76.6208 135.268C77.1488 135.268 77.8208 135.388 78.2888 135.616V135.16C78.2888 134.212 77.7368 133.48 76.7288 133.48C76.0328 133.48 75.4088 133.828 75.1328 134.488L74.2928 134.2C74.6408 133.168 75.7088 132.64 76.7408 132.64C78.2528 132.64 79.2128 133.648 79.2128 135.184V139H78.3728L78.3128 138.04C77.9168 138.808 77.1248 139.18 76.2848 139.18C75.1448 139.18 74.0648 138.52 74.0648 137.26ZM75.0368 137.224C75.0368 138.016 75.7448 138.376 76.4648 138.376C77.4728 138.376 78.2888 137.632 78.2888 136.588V136.36C77.7848 136.156 77.2688 136.024 76.7288 136.024C75.9728 136.024 75.0368 136.312 75.0368 137.224ZM80.4973 137.692L81.3613 137.38C81.6613 137.968 82.1893 138.34 82.8613 138.34C83.4733 138.34 84.1933 138.028 84.1933 137.32C84.1933 136.804 83.8213 136.468 83.0653 136.312L82.5973 136.216C81.6493 136.024 80.6773 135.592 80.6773 134.476C80.6773 133.252 81.7213 132.628 82.8613 132.628C83.8693 132.628 84.7213 133.12 85.0813 134.104L84.2173 134.392C84.0853 134.092 83.9053 133.864 83.6773 133.696C83.4373 133.54 83.1613 133.456 82.8493 133.456C82.2973 133.456 81.6373 133.732 81.6373 134.38C81.6373 135.052 82.3453 135.256 82.8853 135.352L83.3533 135.448C84.3133 135.64 85.1773 136.132 85.1773 137.224C85.1773 138.496 84.0493 139.18 82.8613 139.18C81.8413 139.18 80.8933 138.676 80.4973 137.692ZM86.5083 139V130.096H87.4683V133.708C87.8643 132.988 88.6203 132.628 89.4243 132.628C91.0203 132.628 91.7523 133.876 91.7523 135.376V139H90.7923V135.436C90.7923 134.416 90.3963 133.504 89.2443 133.504C88.1883 133.504 87.4683 134.26 87.4683 135.328V139H86.5083ZM93.4472 130.096H94.4072V133.9C94.8872 133.072 95.6912 132.628 96.6392 132.628C98.4152 132.628 99.5432 134.188 99.5432 135.892C99.5432 137.584 98.4152 139.18 96.5912 139.18C95.6432 139.18 94.8272 138.7 94.3592 137.872L94.3112 139H93.4472V130.096ZM96.4712 133.504C95.1512 133.504 94.3832 134.656 94.3832 135.904C94.3832 136.516 94.5512 137.164 94.9832 137.62C95.3552 138.064 95.8952 138.304 96.4712 138.304C97.7912 138.304 98.5592 137.164 98.5592 135.904C98.5592 135.268 98.3912 134.668 97.9712 134.176C97.5632 133.744 97.0712 133.504 96.4712 133.504ZM103.779 139.18C101.955 139.18 100.719 137.704 100.719 135.904C100.719 134.14 101.943 132.628 103.803 132.628C105.639 132.628 106.863 134.08 106.863 135.904C106.863 137.68 105.651 139.18 103.779 139.18ZM101.703 135.904C101.703 136.516 101.871 137.164 102.303 137.62C102.675 138.064 103.215 138.304 103.791 138.304C105.111 138.304 105.879 137.164 105.879 135.904C105.879 135.268 105.711 134.668 105.291 134.176C104.883 133.744 104.391 133.504 103.791 133.504C102.471 133.504 101.703 134.656 101.703 135.904ZM107.986 137.26C107.986 135.844 109.282 135.268 110.542 135.268C111.07 135.268 111.742 135.388 112.21 135.616V135.16C112.21 134.212 111.658 133.48 110.65 133.48C109.954 133.48 109.33 133.828 109.054 134.488L108.214 134.2C108.562 133.168 109.63 132.64 110.662 132.64C112.174 132.64 113.134 133.648 113.134 135.184V139H112.294L112.234 138.04C111.838 138.808 111.046 139.18 110.206 139.18C109.066 139.18 107.986 138.52 107.986 137.26ZM108.958 137.224C108.958 138.016 109.666 138.376 110.386 138.376C111.394 138.376 112.21 137.632 112.21 136.588V136.36C111.706 136.156 111.19 136.024 110.65 136.024C109.894 136.024 108.958 136.312 108.958 137.224ZM114.826 132.808H115.69L115.75 133.96C116.062 133.192 116.662 132.724 117.502 132.724C117.634 132.724 117.766 132.736 117.874 132.748C117.982 132.772 118.066 132.796 118.15 132.832L118.03 133.744C117.85 133.672 117.658 133.66 117.466 133.66C116.314 133.66 115.786 134.656 115.786 135.712V139H114.826V132.808ZM121.756 139.18C119.992 139.18 118.852 137.608 118.852 135.916C118.852 134.224 119.98 132.628 121.804 132.628C122.728 132.628 123.52 133.06 123.988 133.864V130.096H124.948V139H124.084L124.036 137.824C123.556 138.7 122.752 139.18 121.756 139.18ZM119.836 135.904C119.836 136.516 120.004 137.164 120.436 137.62C120.808 138.064 121.348 138.304 121.924 138.304C123.244 138.304 124.012 137.164 124.012 135.904C124.012 135.268 123.844 134.668 123.424 134.176C123.016 133.744 122.524 133.504 121.924 133.504C120.604 133.504 119.836 134.656 119.836 135.904ZM126.281 137.692L127.145 137.38C127.445 137.968 127.973 138.34 128.645 138.34C129.257 138.34 129.977 138.028 129.977 137.32C129.977 136.804 129.605 136.468 128.849 136.312L128.381 136.216C127.433 136.024 126.461 135.592 126.461 134.476C126.461 133.252 127.505 132.628 128.645 132.628C129.653 132.628 130.505 133.12 130.865 134.104L130.001 134.392C129.869 134.092 129.689 133.864 129.461 133.696C129.221 133.54 128.945 133.456 128.633 133.456C128.081 133.456 127.421 133.732 127.421 134.38C127.421 135.052 128.129 135.256 128.669 135.352L129.137 135.448C130.097 135.64 130.961 136.132 130.961 137.224C130.961 138.496 129.833 139.18 128.645 139.18C127.625 139.18 126.677 138.676 126.281 137.692ZM132.136 138.316C132.136 137.92 132.436 137.596 132.844 137.596C133.108 137.596 133.324 137.728 133.468 137.944C133.528 138.052 133.564 138.184 133.564 138.316C133.564 138.448 133.528 138.568 133.468 138.676C133.324 138.904 133.12 139.036 132.844 139.036C132.46 139.036 132.136 138.7 132.136 138.316Z" fill="#E5E7EB"/>
<rect x="60" y="162" width="509" height="379" rx="12" fill="#0F1010"/>
<path d="M75.504 187.18C73.716 187.18 72.528 185.704 72.528 183.952C72.528 182.224 73.704 180.628 75.552 180.628C76.668 180.628 77.592 181.24 78.024 182.284L77.148 182.584C76.812 181.948 76.26 181.504 75.516 181.504C74.22 181.504 73.512 182.752 73.512 183.94C73.512 184.78 73.884 185.776 74.712 186.124C74.952 186.244 75.216 186.304 75.504 186.304C76.236 186.304 76.908 185.908 77.22 185.236L78.096 185.536C77.676 186.592 76.62 187.18 75.504 187.18ZM79.4028 180.808H80.3628V184.324C80.3628 185.344 80.8428 186.304 81.9948 186.304C83.1468 186.304 83.6268 185.392 83.6268 184.324V180.808H84.5868V184.312C84.5868 185.896 83.6868 187.18 81.9708 187.18C80.2788 187.18 79.4028 185.956 79.4028 184.312V180.808ZM86.2842 180.808H87.1482L87.2082 181.96C87.5202 181.192 88.1202 180.724 88.9602 180.724C89.0922 180.724 89.2242 180.736 89.3322 180.748C89.4402 180.772 89.5242 180.796 89.6082 180.832L89.4882 181.744C89.3082 181.672 89.1162 181.66 88.9242 181.66C87.7722 181.66 87.2442 182.656 87.2442 183.712V187H86.2842V180.808ZM90.8442 187V178.096H91.8042V187H90.8442ZM96.2259 187V178.096H97.1859V181.708C97.5819 180.988 98.3379 180.628 99.1419 180.628C100.738 180.628 101.47 181.876 101.47 183.376V187H100.51V183.436C100.51 182.416 100.114 181.504 98.9619 181.504C97.9059 181.504 97.1859 182.26 97.1859 183.328V187H96.2259ZM102.341 180.808H103.481V178.732H104.441V180.808H106.385V181.624H104.441V185.152C104.441 185.776 104.693 186.316 105.389 186.316C105.713 186.316 106.085 186.208 106.361 186.028L106.649 186.772C106.241 187.06 105.797 187.18 105.305 187.18C104.105 187.18 103.481 186.388 103.481 185.2V181.624H102.341V180.808ZM107.299 180.808H108.439V178.732H109.399V180.808H111.343V181.624H109.399V185.152C109.399 185.776 109.651 186.316 110.347 186.316C110.671 186.316 111.043 186.208 111.319 186.028L111.607 186.772C111.199 187.06 110.755 187.18 110.263 187.18C109.063 187.18 108.439 186.388 108.439 185.2V181.624H107.299V180.808ZM112.906 180.808H113.77L113.818 181.984C114.286 181.12 115.114 180.628 116.098 180.628C117.874 180.628 119.002 182.188 119.002 183.892C119.002 185.584 117.874 187.18 116.05 187.18C115.126 187.18 114.322 186.748 113.866 185.944V189.448H112.906V180.808ZM113.842 183.904C113.842 184.516 114.01 185.164 114.442 185.62C114.814 186.064 115.354 186.304 115.93 186.304C117.25 186.304 118.018 185.164 118.018 183.904C118.018 183.268 117.85 182.668 117.43 182.176C117.022 181.744 116.53 181.504 115.93 181.504C114.61 181.504 113.842 182.656 113.842 183.904ZM120.023 185.692L120.887 185.38C121.187 185.968 121.715 186.34 122.387 186.34C122.999 186.34 123.719 186.028 123.719 185.32C123.719 184.804 123.347 184.468 122.591 184.312L122.123 184.216C121.175 184.024 120.203 183.592 120.203 182.476C120.203 181.252 121.247 180.628 122.387 180.628C123.395 180.628 124.247 181.12 124.607 182.104L123.743 182.392C123.611 182.092 123.431 181.864 123.203 181.696C122.963 181.54 122.687 181.456 122.375 181.456C121.823 181.456 121.163 181.732 121.163 182.38C121.163 183.052 121.871 183.256 122.411 183.352L122.879 183.448C123.839 183.64 124.703 184.132 124.703 185.224C124.703 186.496 123.575 187.18 122.387 187.18C121.367 187.18 120.419 186.676 120.023 185.692ZM125.878 181.492C125.878 181.096 126.178 180.772 126.586 180.772C126.85 180.772 127.066 180.904 127.21 181.12C127.27 181.228 127.306 181.36 127.306 181.492C127.306 181.624 127.27 181.744 127.21 181.852C127.066 182.08 126.862 182.212 126.586 182.212C126.202 182.212 125.878 181.876 125.878 181.492ZM126.586 187.036C126.202 187.036 125.878 186.7 125.878 186.316C125.878 185.92 126.178 185.596 126.586 185.596C126.85 185.596 127.066 185.728 127.21 185.944C127.27 186.052 127.306 186.184 127.306 186.316C127.306 186.448 127.27 186.568 127.21 186.676C127.066 186.904 126.862 187.036 126.586 187.036ZM128.211 188.26L132.099 177.964H132.999L129.111 188.26H128.211ZM133.368 188.26L137.256 177.964H138.156L134.268 188.26H133.368ZM138.265 185.26C138.265 183.844 139.561 183.268 140.821 183.268C141.349 183.268 142.021 183.388 142.489 183.616V183.16C142.489 182.212 141.937 181.48 140.929 181.48C140.233 181.48 139.609 181.828 139.333 182.488L138.493 182.2C138.841 181.168 139.909 180.64 140.941 180.64C142.453 180.64 143.413 181.648 143.413 183.184V187H142.573L142.513 186.04C142.117 186.808 141.325 187.18 140.485 187.18C139.345 187.18 138.265 186.52 138.265 185.26ZM139.237 185.224C139.237 186.016 139.945 186.376 140.665 186.376C141.673 186.376 142.489 185.632 142.489 184.588V184.36C141.985 184.156 141.469 184.024 140.929 184.024C140.173 184.024 139.237 184.312 139.237 185.224ZM145.106 180.808H145.97L146.018 181.984C146.486 181.12 147.314 180.628 148.298 180.628C150.074 180.628 151.202 182.188 151.202 183.892C151.202 185.584 150.074 187.18 148.25 187.18C147.326 187.18 146.522 186.748 146.066 185.944V189.448H145.106V180.808ZM146.042 183.904C146.042 184.516 146.21 185.164 146.642 185.62C147.014 186.064 147.554 186.304 148.13 186.304C149.45 186.304 150.218 185.164 150.218 183.904C150.218 183.268 150.05 182.668 149.63 182.176C149.222 181.744 148.73 181.504 148.13 181.504C146.81 181.504 146.042 182.656 146.042 183.904ZM153.591 187H152.631V180.808H153.591V187ZM153.111 179.656C152.763 179.656 152.451 179.344 152.451 178.996C152.451 178.636 152.751 178.336 153.111 178.336C153.483 178.336 153.771 178.612 153.771 178.996C153.771 179.356 153.471 179.656 153.111 179.656ZM155.171 186.316C155.171 185.92 155.471 185.596 155.879 185.596C156.143 185.596 156.359 185.728 156.503 185.944C156.563 186.052 156.599 186.184 156.599 186.316C156.599 186.448 156.563 186.568 156.503 186.676C156.359 186.904 156.155 187.036 155.879 187.036C155.495 187.036 155.171 186.7 155.171 186.316ZM157.78 185.692L158.644 185.38C158.944 185.968 159.472 186.34 160.144 186.34C160.756 186.34 161.476 186.028 161.476 185.32C161.476 184.804 161.104 184.468 160.348 184.312L159.88 184.216C158.932 184.024 157.96 183.592 157.96 182.476C157.96 181.252 159.004 180.628 160.144 180.628C161.152 180.628 162.004 181.12 162.364 182.104L161.5 182.392C161.368 182.092 161.188 181.864 160.96 181.696C160.72 181.54 160.444 181.456 160.132 181.456C159.58 181.456 158.92 181.732 158.92 182.38C158.92 183.052 159.628 183.256 160.168 183.352L160.636 183.448C161.596 183.64 162.46 184.132 162.46 185.224C162.46 186.496 161.332 187.18 160.144 187.18C159.124 187.18 158.176 186.676 157.78 185.692ZM166.455 187.18C164.667 187.18 163.479 185.704 163.479 183.952C163.479 182.224 164.655 180.628 166.503 180.628C167.619 180.628 168.543 181.24 168.975 182.284L168.099 182.584C167.763 181.948 167.211 181.504 166.467 181.504C165.171 181.504 164.463 182.752 164.463 183.94C164.463 184.78 164.835 185.776 165.663 186.124C165.903 186.244 166.167 186.304 166.455 186.304C167.187 186.304 167.859 185.908 168.171 185.236L169.047 185.536C168.627 186.592 167.571 187.18 166.455 187.18ZM170.402 180.808H171.266L171.326 181.96C171.638 181.192 172.238 180.724 173.078 180.724C173.21 180.724 173.342 180.736 173.45 180.748C173.558 180.772 173.642 180.796 173.726 180.832L173.606 181.744C173.426 181.672 173.234 181.66 173.042 181.66C171.89 181.66 171.362 182.656 171.362 183.712V187H170.402V180.808ZM174.914 180.808H175.874V184.324C175.874 185.344 176.354 186.304 177.506 186.304C178.658 186.304 179.138 185.392 179.138 184.324V180.808H180.098V184.312C180.098 185.896 179.198 187.18 177.482 187.18C175.79 187.18 174.914 185.956 174.914 184.312V180.808ZM181.795 178.096H182.755V181.9C183.235 181.072 184.039 180.628 184.987 180.628C186.763 180.628 187.891 182.188 187.891 183.892C187.891 185.584 186.763 187.18 184.939 187.18C183.991 187.18 183.175 186.7 182.707 185.872L182.659 187H181.795V178.096ZM184.819 181.504C183.499 181.504 182.731 182.656 182.731 183.904C182.731 184.516 182.899 185.164 183.331 185.62C183.703 186.064 184.243 186.304 184.819 186.304C186.139 186.304 186.907 185.164 186.907 183.904C186.907 183.268 186.739 182.668 186.319 182.176C185.911 181.744 185.419 181.504 184.819 181.504ZM189.32 178.096H190.28V181.9C190.76 181.072 191.564 180.628 192.512 180.628C194.288 180.628 195.416 182.188 195.416 183.892C195.416 185.584 194.288 187.18 192.464 187.18C191.516 187.18 190.7 186.7 190.232 185.872L190.184 187H189.32V178.096ZM192.344 181.504C191.024 181.504 190.256 182.656 190.256 183.904C190.256 184.516 190.424 185.164 190.856 185.62C191.228 186.064 191.768 186.304 192.344 186.304C193.664 186.304 194.432 185.164 194.432 183.904C194.432 183.268 194.264 182.668 193.844 182.176C193.436 181.744 192.944 181.504 192.344 181.504ZM196.592 183.916C196.592 182.2 197.72 180.64 199.556 180.64C201.272 180.64 202.4 181.996 202.4 183.7V184.096H197.588C197.684 185.296 198.356 186.328 199.688 186.328C200.444 186.328 201.056 186.004 201.464 185.356L202.28 185.728C201.776 186.688 200.78 187.18 199.712 187.18C197.852 187.18 196.592 185.776 196.592 183.916ZM199.556 181.456C198.476 181.456 197.804 182.344 197.636 183.352H201.392C201.296 182.344 200.66 181.456 199.556 181.456ZM203.675 186.316C203.675 185.92 203.975 185.596 204.383 185.596C204.647 185.596 204.863 185.728 205.007 185.944C205.067 186.052 205.103 186.184 205.103 186.316C205.103 186.448 205.067 186.568 205.007 186.676C204.863 186.904 204.659 187.036 204.383 187.036C203.999 187.036 203.675 186.7 203.675 186.316ZM209.18 187.18C207.392 187.18 206.204 185.704 206.204 183.952C206.204 182.224 207.38 180.628 209.228 180.628C210.344 180.628 211.268 181.24 211.7 182.284L210.824 182.584C210.488 181.948 209.936 181.504 209.192 181.504C207.896 181.504 207.188 182.752 207.188 183.94C207.188 184.78 207.56 185.776 208.388 186.124C208.628 186.244 208.892 186.304 209.18 186.304C209.912 186.304 210.584 185.908 210.896 185.236L211.772 185.536C211.352 186.592 210.296 187.18 209.18 187.18ZM215.851 187.18C214.027 187.18 212.791 185.704 212.791 183.904C212.791 182.14 214.015 180.628 215.875 180.628C217.711 180.628 218.935 182.08 218.935 183.904C218.935 185.68 217.723 187.18 215.851 187.18ZM213.775 183.904C213.775 184.516 213.943 185.164 214.375 185.62C214.747 186.064 215.287 186.304 215.863 186.304C217.183 186.304 217.951 185.164 217.951 183.904C217.951 183.268 217.783 182.668 217.363 182.176C216.955 181.744 216.463 181.504 215.863 181.504C214.543 181.504 213.775 182.656 213.775 183.904ZM220.358 180.808H221.222L221.27 181.756C221.654 181.012 222.362 180.628 223.19 180.628C224.126 180.628 224.834 181.132 225.17 181.996C225.518 181.12 226.358 180.628 227.294 180.628C228.866 180.628 229.55 181.852 229.55 183.328V187H228.59V183.388C228.59 182.416 228.266 181.504 227.138 181.504C226.142 181.504 225.434 182.284 225.434 183.28V187H224.474V183.388C224.474 182.404 224.114 181.504 222.998 181.504C221.99 181.504 221.318 182.284 221.318 183.28V187H220.358V180.808ZM230.563 188.26L234.451 177.964H235.351L231.463 188.26H230.563ZM235.64 180.808H236.696L238.58 185.968L240.464 180.808H241.484L239.06 187H238.064L235.64 180.808ZM244.405 187V179.812L242.437 180.916L242.041 180.124L244.585 178.72H245.389V187H244.405ZM246.961 188.26L250.849 177.964H251.749L247.861 188.26H246.961ZM252.803 187V178.096H253.763V181.708C254.159 180.988 254.915 180.628 255.719 180.628C257.315 180.628 258.047 181.876 258.047 183.376V187H257.087V183.436C257.087 182.416 256.691 181.504 255.539 181.504C254.483 181.504 253.763 182.26 253.763 183.328V187H252.803ZM259.442 185.26C259.442 183.844 260.738 183.268 261.998 183.268C262.526 183.268 263.198 183.388 263.666 183.616V183.16C263.666 182.212 263.114 181.48 262.106 181.48C261.41 181.48 260.786 181.828 260.51 182.488L259.67 182.2C260.018 181.168 261.086 180.64 262.118 180.64C263.63 180.64 264.59 181.648 264.59 183.184V187H263.75L263.69 186.04C263.294 186.808 262.502 187.18 261.662 187.18C260.522 187.18 259.442 186.52 259.442 185.26ZM260.414 185.224C260.414 186.016 261.122 186.376 261.842 186.376C262.85 186.376 263.666 185.632 263.666 184.588V184.36C263.162 184.156 262.646 184.024 262.106 184.024C261.35 184.024 260.414 184.312 260.414 185.224ZM266.282 180.808H267.146L267.194 181.792C267.59 181.036 268.358 180.628 269.198 180.628C270.794 180.628 271.526 181.876 271.526 183.376V187H270.566V183.436C270.566 182.416 270.17 181.504 269.018 181.504C267.962 181.504 267.242 182.26 267.242 183.328V187H266.282V180.808ZM275.813 187.18C274.049 187.18 272.909 185.608 272.909 183.916C272.909 182.224 274.037 180.628 275.861 180.628C276.785 180.628 277.577 181.06 278.045 181.864V178.096H279.005V187H278.141L278.093 185.824C277.613 186.7 276.809 187.18 275.813 187.18ZM273.893 183.904C273.893 184.516 274.061 185.164 274.493 185.62C274.865 186.064 275.405 186.304 275.981 186.304C277.301 186.304 278.069 185.164 278.069 183.904C278.069 183.268 277.901 182.668 277.481 182.176C277.073 181.744 276.581 181.504 275.981 181.504C274.661 181.504 273.893 182.656 273.893 183.904ZM283.494 187.18C281.67 187.18 280.434 185.704 280.434 183.904C280.434 182.14 281.658 180.628 283.518 180.628C285.354 180.628 286.578 182.08 286.578 183.904C286.578 185.68 285.366 187.18 283.494 187.18ZM281.418 183.904C281.418 184.516 281.586 185.164 282.018 185.62C282.39 186.064 282.93 186.304 283.506 186.304C284.826 186.304 285.594 185.164 285.594 183.904C285.594 183.268 285.426 182.668 285.006 182.176C284.598 181.744 284.106 181.504 283.506 181.504C282.186 181.504 281.418 182.656 281.418 183.904ZM287.237 180.808H288.293L290.177 185.968L292.061 180.808H293.081L290.657 187H289.661L287.237 180.808ZM293.749 183.916C293.749 182.2 294.877 180.64 296.713 180.64C298.429 180.64 299.557 181.996 299.557 183.7V184.096H294.745C294.841 185.296 295.513 186.328 296.845 186.328C297.601 186.328 298.213 186.004 298.621 185.356L299.437 185.728C298.933 186.688 297.937 187.18 296.869 187.18C295.009 187.18 293.749 185.776 293.749 183.916ZM296.713 181.456C295.633 181.456 294.961 182.344 294.793 183.352H298.549C298.453 182.344 297.817 181.456 296.713 181.456ZM300.989 180.808H301.853L301.913 181.96C302.225 181.192 302.825 180.724 303.665 180.724C303.797 180.724 303.929 180.736 304.037 180.748C304.145 180.772 304.229 180.796 304.313 180.832L304.193 181.744C304.013 181.672 303.821 181.66 303.629 181.66C302.477 181.66 301.949 182.656 301.949 183.712V187H300.989V180.808ZM305.141 185.692L306.005 185.38C306.305 185.968 306.833 186.34 307.505 186.34C308.117 186.34 308.837 186.028 308.837 185.32C308.837 184.804 308.465 184.468 307.709 184.312L307.241 184.216C306.293 184.024 305.321 183.592 305.321 182.476C305.321 181.252 306.365 180.628 307.505 180.628C308.513 180.628 309.365 181.12 309.725 182.104L308.861 182.392C308.729 182.092 308.549 181.864 308.321 181.696C308.081 181.54 307.805 181.456 307.493 181.456C306.941 181.456 306.281 181.732 306.281 182.38C306.281 183.052 306.989 183.256 307.529 183.352L307.997 183.448C308.957 183.64 309.821 184.132 309.821 185.224C309.821 186.496 308.693 187.18 307.505 187.18C306.485 187.18 305.537 186.676 305.141 185.692ZM310.585 188.26L314.473 177.964H315.373L311.485 188.26H310.585ZM318.446 187.18C316.658 187.18 315.47 185.704 315.47 183.952C315.47 182.224 316.646 180.628 318.494 180.628C319.61 180.628 320.534 181.24 320.966 182.284L320.09 182.584C319.754 181.948 319.202 181.504 318.458 181.504C317.162 181.504 316.454 182.752 316.454 183.94C316.454 184.78 316.826 185.776 317.654 186.124C317.894 186.244 318.158 186.304 318.446 186.304C319.178 186.304 319.85 185.908 320.162 185.236L321.038 185.536C320.618 186.592 319.562 187.18 318.446 187.18ZM322.345 180.808H323.305V184.324C323.305 185.344 323.785 186.304 324.937 186.304C326.089 186.304 326.569 185.392 326.569 184.324V180.808H327.529V184.312C327.529 185.896 326.629 187.18 324.913 187.18C323.221 187.18 322.345 185.956 322.345 184.312V180.808ZM329.226 180.808H330.09L330.15 181.96C330.462 181.192 331.062 180.724 331.902 180.724C332.034 180.724 332.166 180.736 332.274 180.748C332.382 180.772 332.466 180.796 332.55 180.832L332.43 181.744C332.25 181.672 332.058 181.66 331.866 181.66C330.714 181.66 330.186 182.656 330.186 183.712V187H329.226V180.808ZM333.786 180.808H334.65L334.71 181.96C335.022 181.192 335.622 180.724 336.462 180.724C336.594 180.724 336.726 180.736 336.834 180.748C336.942 180.772 337.026 180.796 337.11 180.832L336.99 181.744C336.81 181.672 336.618 181.66 336.426 181.66C335.274 181.66 334.746 182.656 334.746 183.712V187H333.786V180.808ZM337.811 183.916C337.811 182.2 338.939 180.64 340.775 180.64C342.491 180.64 343.619 181.996 343.619 183.7V184.096H338.807C338.903 185.296 339.575 186.328 340.907 186.328C341.663 186.328 342.275 186.004 342.683 185.356L343.499 185.728C342.995 186.688 341.999 187.18 340.931 187.18C339.071 187.18 337.811 185.776 337.811 183.916ZM340.775 181.456C339.695 181.456 339.023 182.344 338.855 183.352H342.611C342.515 182.344 341.879 181.456 340.775 181.456ZM345.051 180.808H345.915L345.963 181.792C346.359 181.036 347.127 180.628 347.967 180.628C349.563 180.628 350.295 181.876 350.295 183.376V187H349.335V183.436C349.335 182.416 348.939 181.504 347.787 181.504C346.731 181.504 346.011 182.26 346.011 183.328V187H345.051V180.808ZM351.166 180.808H352.306V178.732H353.266V180.808H355.21V181.624H353.266V185.152C353.266 185.776 353.518 186.316 354.214 186.316C354.538 186.316 354.91 186.208 355.186 186.028L355.474 186.772C355.066 187.06 354.622 187.18 354.13 187.18C352.93 187.18 352.306 186.388 352.306 185.2V181.624H351.166V180.808ZM362.661 188.26L358.773 177.964H359.673L363.561 188.26H362.661ZM72.588 202.132V201.256H75.888V202.132H72.588Z" fill="#61C8AF"/>
<path d="M77.4726 196.48H78.4806V200.104H83.2086V196.48H84.2166V205H83.2086V201.028H78.4806V205H77.4726V196.48ZM90.6548 196.48H91.5308L91.4948 199.588H90.6908L90.6548 196.48ZM88.6028 196.48H89.4788L89.4428 199.588H88.6388L88.6028 196.48ZM91.8168 205L95.2488 196.48H96.3168L99.7488 205H98.6688L97.7208 202.576H93.8088L92.8608 205H91.8168ZM95.7648 197.596L94.1688 201.652H97.3488L95.7648 197.596ZM100.737 198.808H101.697V202.324C101.697 203.344 102.177 204.304 103.329 204.304C104.481 204.304 104.961 203.392 104.961 202.324V198.808H105.921V202.312C105.921 203.896 105.021 205.18 103.305 205.18C101.613 205.18 100.737 203.956 100.737 202.312V198.808ZM106.97 198.808H108.11V196.732H109.07V198.808H111.014V199.624H109.07V203.152C109.07 203.776 109.322 204.316 110.018 204.316C110.342 204.316 110.714 204.208 110.99 204.028L111.278 204.772C110.87 205.06 110.426 205.18 109.934 205.18C108.734 205.18 108.11 204.388 108.11 203.2V199.624H106.97V198.808ZM112.576 205V196.096H113.536V199.708C113.932 198.988 114.688 198.628 115.492 198.628C117.088 198.628 117.82 199.876 117.82 201.376V205H116.86V201.436C116.86 200.416 116.464 199.504 115.312 199.504C114.256 199.504 113.536 200.26 113.536 201.328V205H112.576ZM122.263 205.18C120.439 205.18 119.203 203.704 119.203 201.904C119.203 200.14 120.427 198.628 122.287 198.628C124.123 198.628 125.347 200.08 125.347 201.904C125.347 203.68 124.135 205.18 122.263 205.18ZM120.187 201.904C120.187 202.516 120.355 203.164 120.787 203.62C121.159 204.064 121.699 204.304 122.275 204.304C123.595 204.304 124.363 203.164 124.363 201.904C124.363 201.268 124.195 200.668 123.775 200.176C123.367 199.744 122.875 199.504 122.275 199.504C120.955 199.504 120.187 200.656 120.187 201.904ZM126.771 198.808H127.635L127.695 199.96C128.007 199.192 128.607 198.724 129.447 198.724C129.579 198.724 129.711 198.736 129.819 198.748C129.927 198.772 130.011 198.796 130.095 198.832L129.975 199.744C129.795 199.672 129.603 199.66 129.411 199.66C128.259 199.66 127.731 200.656 127.731 201.712V205H126.771V198.808ZM132.291 205H131.331V198.808H132.291V205ZM131.811 197.656C131.463 197.656 131.151 197.344 131.151 196.996C131.151 196.636 131.451 196.336 131.811 196.336C132.183 196.336 132.471 196.612 132.471 196.996C132.471 197.356 132.171 197.656 131.811 197.656ZM133.715 205V204.328L137.219 199.624H133.799V198.808H138.407V199.468L134.879 204.184H138.611V205H133.715ZM139.74 203.26C139.74 201.844 141.036 201.268 142.296 201.268C142.824 201.268 143.496 201.388 143.964 201.616V201.16C143.964 200.212 143.412 199.48 142.404 199.48C141.708 199.48 141.084 199.828 140.808 200.488L139.968 200.2C140.316 199.168 141.384 198.64 142.416 198.64C143.928 198.64 144.888 199.648 144.888 201.184V205H144.048L143.988 204.04C143.592 204.808 142.8 205.18 141.96 205.18C140.82 205.18 139.74 204.52 139.74 203.26ZM140.712 203.224C140.712 204.016 141.42 204.376 142.14 204.376C143.148 204.376 143.964 203.632 143.964 202.588V202.36C143.46 202.156 142.944 202.024 142.404 202.024C141.648 202.024 140.712 202.312 140.712 203.224ZM145.745 198.808H146.885V196.732H147.845V198.808H149.789V199.624H147.845V203.152C147.845 203.776 148.097 204.316 148.793 204.316C149.117 204.316 149.489 204.208 149.765 204.028L150.053 204.772C149.645 205.06 149.201 205.18 148.709 205.18C147.509 205.18 146.885 204.388 146.885 203.2V199.624H145.745V198.808ZM152.312 205H151.352V198.808H152.312V205ZM151.832 197.656C151.484 197.656 151.172 197.344 151.172 196.996C151.172 196.636 151.472 196.336 151.832 196.336C152.204 196.336 152.492 196.612 152.492 196.996C152.492 197.356 152.192 197.656 151.832 197.656ZM156.797 205.18C154.973 205.18 153.737 203.704 153.737 201.904C153.737 200.14 154.961 198.628 156.821 198.628C158.657 198.628 159.881 200.08 159.881 201.904C159.881 203.68 158.669 205.18 156.797 205.18ZM154.721 201.904C154.721 202.516 154.889 203.164 155.321 203.62C155.693 204.064 156.233 204.304 156.809 204.304C158.129 204.304 158.897 203.164 158.897 201.904C158.897 201.268 158.729 200.668 158.309 200.176C157.901 199.744 157.409 199.504 156.809 199.504C155.489 199.504 154.721 200.656 154.721 201.904ZM161.304 198.808H162.168L162.216 199.792C162.612 199.036 163.38 198.628 164.22 198.628C165.816 198.628 166.548 199.876 166.548 201.376V205H165.588V201.436C165.588 200.416 165.192 199.504 164.04 199.504C162.984 199.504 162.264 200.26 162.264 201.328V205H161.304V198.808ZM168.087 199.492C168.087 199.096 168.387 198.772 168.795 198.772C169.059 198.772 169.275 198.904 169.419 199.12C169.479 199.228 169.515 199.36 169.515 199.492C169.515 199.624 169.479 199.744 169.419 199.852C169.275 200.08 169.071 200.212 168.795 200.212C168.411 200.212 168.087 199.876 168.087 199.492ZM168.795 205.036C168.411 205.036 168.087 204.7 168.087 204.316C168.087 203.92 168.387 203.596 168.795 203.596C169.059 203.596 169.275 203.728 169.419 203.944C169.479 204.052 169.515 204.184 169.515 204.316C169.515 204.448 169.479 204.568 169.419 204.676C169.275 204.904 169.071 205.036 168.795 205.036ZM173.885 196.48H176.609C177.965 196.48 179.225 197.116 179.225 198.652C179.225 199.48 178.817 200.116 178.073 200.476C179.045 200.788 179.585 201.604 179.585 202.612C179.585 204.256 178.181 205 176.669 205H173.885V196.48ZM174.893 204.1H176.645C177.653 204.1 178.553 203.68 178.553 202.552C178.553 201.4 177.677 200.98 176.645 200.98H174.893V204.1ZM174.893 200.104H176.561C177.461 200.104 178.193 199.744 178.193 198.748C178.193 197.764 177.461 197.38 176.561 197.38H174.893V200.104ZM180.779 201.916C180.779 200.2 181.907 198.64 183.743 198.64C185.459 198.64 186.587 199.996 186.587 201.7V202.096H181.775C181.871 203.296 182.543 204.328 183.875 204.328C184.631 204.328 185.243 204.004 185.651 203.356L186.467 203.728C185.963 204.688 184.967 205.18 183.899 205.18C182.039 205.18 180.779 203.776 180.779 201.916ZM183.743 199.456C182.663 199.456 181.991 200.344 181.823 201.352H185.579C185.483 200.344 184.847 199.456 183.743 199.456ZM187.718 203.26C187.718 201.844 189.014 201.268 190.274 201.268C190.802 201.268 191.474 201.388 191.942 201.616V201.16C191.942 200.212 191.39 199.48 190.382 199.48C189.686 199.48 189.062 199.828 188.786 200.488L187.946 200.2C188.294 199.168 189.362 198.64 190.394 198.64C191.906 198.64 192.866 199.648 192.866 201.184V205H192.026L191.966 204.04C191.57 204.808 190.778 205.18 189.938 205.18C188.798 205.18 187.718 204.52 187.718 203.26ZM188.69 203.224C188.69 204.016 189.398 204.376 190.118 204.376C191.126 204.376 191.942 203.632 191.942 202.588V202.36C191.438 202.156 190.922 202.024 190.382 202.024C189.626 202.024 188.69 202.312 188.69 203.224ZM194.558 198.808H195.422L195.482 199.96C195.794 199.192 196.394 198.724 197.234 198.724C197.366 198.724 197.498 198.736 197.606 198.748C197.714 198.772 197.798 198.796 197.882 198.832L197.762 199.744C197.582 199.672 197.39 199.66 197.198 199.66C196.046 199.66 195.518 200.656 195.518 201.712V205H194.558V198.808ZM198.584 201.916C198.584 200.2 199.712 198.64 201.548 198.64C203.264 198.64 204.392 199.996 204.392 201.7V202.096H199.58C199.676 203.296 200.348 204.328 201.68 204.328C202.436 204.328 203.048 204.004 203.456 203.356L204.272 203.728C203.768 204.688 202.772 205.18 201.704 205.18C199.844 205.18 198.584 203.776 198.584 201.916ZM201.548 199.456C200.468 199.456 199.796 200.344 199.628 201.352H203.384C203.288 200.344 202.652 199.456 201.548 199.456ZM205.823 198.808H206.687L206.747 199.96C207.059 199.192 207.659 198.724 208.499 198.724C208.631 198.724 208.763 198.736 208.871 198.748C208.979 198.772 209.063 198.796 209.147 198.832L209.027 199.744C208.847 199.672 208.655 199.66 208.463 199.66C207.311 199.66 206.783 200.656 206.783 201.712V205H205.823V198.808ZM212.948 203.02L213.836 202.804C214.16 203.656 214.712 204.136 215.504 204.256V201.1H215.48C214.268 200.872 213.152 200.248 213.152 198.88C213.152 197.536 214.208 196.708 215.504 196.612V195.16H216.2V196.624C217.376 196.768 218.228 197.488 218.54 198.64L217.664 198.856C217.388 198.124 217.016 197.62 216.2 197.476V200.308L216.404 200.344C217.652 200.572 218.636 201.28 218.636 202.66C218.636 204.052 217.556 205.012 216.2 205.108V206.68H215.504V205.096C214.256 204.976 213.344 204.196 212.948 203.02ZM216.2 201.232V204.256C217.052 204.16 217.712 203.632 217.712 202.708C217.712 201.82 216.98 201.4 216.2 201.232ZM214.088 198.832C214.088 199.66 214.784 200.008 215.504 200.164V197.452C214.736 197.536 214.088 198.004 214.088 198.832ZM219.845 203.26L220.793 202.96C221.093 203.776 221.813 204.28 222.689 204.28C223.625 204.28 224.501 203.692 224.501 202.672C224.501 201.736 223.757 201.34 222.941 201.16L222.413 201.04C221.177 200.752 220.061 200.104 220.061 198.7C220.061 197.248 221.261 196.3 222.677 196.3C223.925 196.3 225.005 196.984 225.389 198.208L224.441 198.508C224.141 197.716 223.541 197.2 222.677 197.2C221.837 197.2 221.081 197.716 221.081 198.628C221.081 199.564 221.957 199.912 222.737 200.092L223.265 200.212C224.525 200.512 225.521 201.208 225.521 202.612C225.521 204.196 224.249 205.18 222.701 205.18C221.441 205.18 220.265 204.508 219.845 203.26ZM230.774 205.24C228.314 205.24 226.73 203.212 226.73 200.812C226.73 198.484 228.242 196.24 230.762 196.24C232.214 196.24 233.594 197.008 234.158 198.4L233.234 198.748C232.742 197.752 231.902 197.164 230.774 197.164C228.842 197.164 227.762 199.024 227.762 200.8C227.762 202.588 228.818 204.316 230.798 204.316C231.95 204.316 232.79 203.728 233.318 202.732L234.242 203.08C233.642 204.472 232.274 205.24 230.774 205.24ZM235.762 205V196.48H238.078C239.674 196.48 241.246 197.2 241.246 199.036C241.246 200.14 240.61 200.98 239.59 201.376L241.654 205H240.478L238.63 201.64C238.39 201.664 238.15 201.676 237.91 201.676C237.538 201.676 237.142 201.64 236.77 201.58V205H235.762ZM236.77 197.38V200.68C237.154 200.752 237.562 200.776 237.946 200.776C239.062 200.776 240.214 200.392 240.214 199.084C240.214 197.824 239.194 197.38 238.078 197.38H236.77ZM242.874 196.48H243.882V201.664C243.882 203.116 244.65 204.316 246.246 204.316C247.806 204.316 248.61 203.176 248.61 201.664V196.48H249.618V201.7C249.618 203.728 248.382 205.24 246.234 205.24C244.146 205.24 242.874 203.812 242.874 201.7V196.48ZM251.433 196.48H254.157C255.513 196.48 256.773 197.116 256.773 198.652C256.773 199.48 256.365 200.116 255.621 200.476C256.593 200.788 257.133 201.604 257.133 202.612C257.133 204.256 255.729 205 254.217 205H251.433V196.48ZM252.441 204.1H254.193C255.201 204.1 256.101 203.68 256.101 202.552C256.101 201.4 255.225 200.98 254.193 200.98H252.441V204.1ZM252.441 200.104H254.109C255.009 200.104 255.741 199.744 255.741 198.748C255.741 197.764 255.009 197.38 254.109 197.38H252.441V200.104ZM258.711 196.48H261.435C262.791 196.48 264.051 197.116 264.051 198.652C264.051 199.48 263.643 200.116 262.899 200.476C263.871 200.788 264.411 201.604 264.411 202.612C264.411 204.256 263.007 205 261.495 205H258.711V196.48ZM259.719 204.1H261.471C262.479 204.1 263.379 203.68 263.379 202.552C263.379 201.4 262.503 200.98 261.471 200.98H259.719V204.1ZM259.719 200.104H261.387C262.287 200.104 263.019 199.744 263.019 198.748C263.019 197.764 262.287 197.38 261.387 197.38H259.719V200.104ZM265.99 196.48H270.898V197.38H266.998V200.116H270.562V201.028H266.998V204.088H271.018V205H265.99V196.48ZM272.201 206.584V205.828H278.033V206.584H272.201ZM279.028 197.404V196.48H285.244V197.404H282.64V205H281.632V197.404H279.028ZM286.038 200.752C286.038 198.328 287.646 196.24 290.226 196.24C292.77 196.24 294.366 198.244 294.366 200.74C294.366 203.164 292.758 205.252 290.178 205.252C287.658 205.252 286.038 203.224 286.038 200.752ZM287.07 200.74C287.07 202.576 288.186 204.328 290.202 204.328C292.182 204.328 293.334 202.636 293.334 200.74C293.334 198.892 292.23 197.164 290.202 197.164C288.234 197.164 287.07 198.856 287.07 200.74ZM295.984 196.48H296.992V200.332L300.904 196.48H302.224L298.096 200.5L302.656 205H301.204L296.992 200.812V205H295.984V196.48ZM303.814 196.48H308.722V197.38H304.822V200.116H308.386V201.028H304.822V204.088H308.842V205H303.814V196.48ZM310.6 196.48H311.488L316.24 203.308V196.48H317.224V205H316.336L311.584 198.172V205H310.6V196.48ZM320.98 196.48H321.856L321.82 199.588H321.016L320.98 196.48ZM318.928 196.48H319.804L319.768 199.588H318.964L318.928 196.48Z" fill="#FC8986"/>
<defs>
<linearGradient id="paint0_linear_8829_11448" x1="310.5" y1="0" x2="310.5" y2="592" gradientUnits="userSpaceOnUse">
<stop offset="0.0184502" stop-color="#0F0F0F"/>
<stop offset="1" stop-color="#023439"/>
</linearGradient>
<linearGradient id="paint1_linear_8829_11448" x1="314" y1="31" x2="314" y2="560" gradientUnits="userSpaceOnUse">
<stop stop-color="#5FDDEA"/>
<stop offset="1" stop-color="#03353B"/>
</linearGradient>
</defs>
</svg>
