<svg width="1342" height="260" viewBox="0 0 1342 260" fill="none" xmlns="http://www.w3.org/2000/svg">
<mask id="path-1-outside-1_8870_10605" maskUnits="userSpaceOnUse" x="0" y="0" width="1342" height="260" fill="black">
<rect fill="white" width="1342" height="260"/>
<path d="M91.8645 71.9644C91.8645 78.4624 93.9459 83.7928 98.1086 87.9556C102.271 92.1183 107.805 95.6719 114.709 98.6163C121.613 101.459 129.177 104.2 137.401 106.84C145.625 109.48 153.849 112.475 162.073 115.826C170.297 119.075 177.861 123.187 184.765 128.162C191.669 133.035 197.203 139.279 201.366 146.894C205.528 154.509 207.61 163.951 207.61 175.221C207.61 190.451 203.701 203.752 195.883 215.123C188.167 226.494 177.252 235.328 163.139 241.623C149.026 247.917 132.477 251.065 113.491 251.065C97.2456 251.065 84.0466 249.085 73.8935 245.125C63.842 241.166 56.1256 235.988 50.7445 229.591C49.12 227.561 48.0032 226.545 47.394 226.545C46.8863 226.545 45.7187 227.713 43.8912 230.048L33.9919 242.993C32.9766 244.313 31.8598 245.328 30.6414 246.039C29.5245 246.75 27.697 247.105 25.1587 247.105H14.3457C11.7059 247.105 9.92909 246.902 9.01531 246.496C8 246.191 7.74617 244.973 8.25383 242.841L26.6817 168.063C27.0878 166.236 27.697 165.017 28.5092 164.408C29.423 163.698 30.9967 163.342 33.2304 163.342H45.1095C47.2417 163.342 48.5616 163.799 49.0692 164.713C49.5769 165.525 49.78 166.896 49.6784 168.825C47.7493 180.704 48.2062 190.552 51.0491 198.37C53.9935 206.188 58.5624 212.382 64.7558 216.951C70.9491 221.418 78.0055 224.565 85.9249 226.393C93.8444 228.22 101.815 229.134 109.835 229.134C121.308 229.134 130.599 227.764 137.706 225.022C144.914 222.179 150.448 218.524 154.306 214.057C158.164 209.59 160.804 204.868 162.225 199.893C163.647 194.817 164.358 190.045 164.358 185.577C164.358 177.658 162.276 171.16 158.113 166.084C153.951 160.905 148.468 156.641 141.665 153.291C134.863 149.839 127.35 146.793 119.126 144.153C111.003 141.412 102.83 138.518 94.6058 135.472C86.4834 132.426 79.0208 128.72 72.2183 124.354C65.4157 119.989 59.933 114.455 55.7703 107.754C51.6075 101.053 49.5261 92.5752 49.5261 82.3206C49.5261 70.8476 52.1152 60.7453 57.2932 52.0136C62.5728 43.282 69.4769 35.921 78.0055 29.9307C86.5341 23.8388 95.9257 19.2699 106.18 16.224C116.536 13.1781 126.69 11.6551 136.64 11.6551C148.417 11.6551 158.824 13.3811 167.86 16.8332C176.998 20.2852 184.714 25.1587 191.009 31.4536C193.142 33.4843 194.715 34.7026 195.731 35.1087C196.746 35.4133 198.218 34.195 200.147 31.4536L208.98 20.7929C210.097 19.473 211.113 18.5592 212.026 18.0516C212.94 17.4424 214.615 17.1378 217.052 17.1378H226.342C229.896 17.1378 231.977 17.4931 232.586 18.2039C233.297 18.9146 233.348 20.7421 232.739 23.6865L218.423 91.0015C217.915 93.7428 217.052 95.3165 215.834 95.7227C214.615 96.1288 212.382 96.3319 209.133 96.3319H200.604C197.355 96.3319 195.426 95.9257 194.817 95.1135C194.309 94.1997 194.208 92.4229 194.512 89.7831C195.528 79.0208 193.903 69.4769 189.639 61.1514C185.374 52.7243 178.927 46.1248 170.297 41.3529C161.667 36.5809 151.26 34.195 139.076 34.195C129.939 34.195 121.816 35.8702 114.709 39.2207C107.602 42.5713 102.018 47.0894 97.9564 52.7751C93.8951 58.4608 91.8645 64.8573 91.8645 71.9644Z"/>
<path d="M391.039 128.466C391.039 135.269 389.668 140.701 386.927 144.762C384.287 148.823 380.886 151.818 376.723 153.748C372.662 155.575 368.448 156.489 364.082 156.489C358.396 156.489 353.472 154.763 349.309 151.311C345.147 147.859 343.065 142.681 343.065 135.777C343.065 131.715 343.928 128.466 345.654 126.03C347.482 123.593 349.259 121.512 350.985 119.785C352.812 117.958 353.726 115.978 353.726 113.846C353.726 110.394 352.609 107.602 350.376 105.47C348.243 103.236 344.284 102.119 338.496 102.119C330.577 102.119 322.81 104.505 315.195 109.277C307.58 113.947 300.727 120.445 294.635 128.771C288.543 136.995 283.67 146.539 280.015 157.403C276.36 168.165 274.532 179.689 274.532 191.974C274.532 199.487 275.293 206.036 276.816 211.62C278.339 217.103 280.827 221.316 284.279 224.261C287.833 227.205 292.655 228.677 298.747 228.677C305.448 228.677 311.946 227.205 318.241 224.261C324.536 221.215 330.323 217.306 335.603 212.534C340.984 207.66 345.553 202.482 349.309 197C350.325 195.578 351.289 194.563 352.203 193.954C353.117 193.243 354.843 192.888 357.381 192.888H367.28C370.326 192.888 372.357 193.243 373.372 193.954C374.489 194.664 374.388 196.137 373.068 198.37C368.194 206.797 361.849 214.971 354.031 222.89C346.314 230.708 337.278 237.104 326.922 242.079C316.566 247.054 304.89 249.542 291.894 249.542C280.116 249.542 269.709 247.613 260.673 243.755C251.738 239.896 244.733 233.754 239.656 225.327C234.681 216.9 232.194 205.782 232.194 191.974C232.194 176.744 234.986 162.581 240.57 149.483C246.256 136.284 253.921 124.71 263.567 114.76C273.314 104.81 284.279 97.0933 296.463 91.6107C308.646 86.0265 321.338 83.2344 334.537 83.2344C346.822 83.2344 357.127 85.1635 365.453 89.0216C373.88 92.7783 380.226 98.0579 384.49 104.86C388.856 111.663 391.039 119.532 391.039 128.466Z"/>
<path d="M421.622 87.1941H472.184C475.941 87.1941 478.479 87.6002 479.799 88.4124C481.119 89.1232 481.423 91.0522 480.713 94.1997L476.601 112.171C475.585 116.232 475.281 118.567 475.687 119.176C476.093 119.785 477.819 117.806 480.865 113.237C486.957 104.404 493.912 97.1441 501.729 91.4584C509.649 85.7726 518.634 82.9298 528.686 82.9298C539.042 82.9298 547.469 85.8234 553.967 91.6107C560.567 97.2964 563.866 105.013 563.866 114.76C563.866 123.491 561.379 130.649 556.404 136.233C551.429 141.818 545.235 144.61 537.824 144.61C533.458 144.61 529.498 143.747 525.945 142.021C522.493 140.193 519.7 137.807 517.568 134.863C515.436 131.817 514.37 128.416 514.37 124.659C514.37 120.192 514.979 116.841 516.198 114.607C517.416 112.272 518.584 110.597 519.7 109.582C520.919 108.465 521.528 107.399 521.528 106.383C521.528 104.353 520.056 103.337 517.111 103.337C512.339 103.337 507.212 105.774 501.729 110.648C496.247 115.521 490.866 121.968 485.586 129.989C480.306 137.909 475.535 146.59 471.27 156.032C467.107 165.373 464.011 174.511 461.98 183.445L449.187 238.729C448.578 241.572 447.918 243.45 447.207 244.364C446.497 245.176 444.314 245.582 440.659 245.582H416.9C413.347 245.582 411.316 245.125 410.809 244.212C410.301 243.196 410.352 241.419 410.961 238.881L439.593 115.826C440.303 112.577 440.354 110.546 439.745 109.734C439.237 108.922 436.953 108.516 432.892 108.516H421.774C419.033 108.516 417.408 108.059 416.9 107.145C416.393 106.231 416.139 104.404 416.139 101.662V92.5245C416.139 90.1892 416.545 88.717 417.357 88.1079C418.17 87.4987 419.591 87.1941 421.622 87.1941Z"/>
<path d="M576.547 132.121C582.944 117.704 591.371 105.977 601.829 96.941C612.286 87.8033 623.658 83.2344 635.943 83.2344C647.314 83.2344 655.183 86.4834 659.549 92.9813C664.016 99.4793 664.778 107.906 661.833 118.263L643.558 185.882C641.121 193.801 639.446 200.807 638.532 206.899C637.72 212.991 638.177 217.763 639.903 221.215C641.73 224.667 645.436 226.393 651.02 226.393C656.808 226.393 663.001 223.804 669.6 218.626C676.2 213.448 682.647 206.594 688.942 198.066C695.237 189.436 700.872 179.993 705.847 169.739C710.822 159.484 714.477 149.28 716.812 139.127L727.473 91.763C727.778 90.24 728.285 89.1232 728.996 88.4124C729.707 87.6002 731.027 87.1941 732.956 87.1941H762.501C764.938 87.1941 766.41 87.3971 766.918 87.8033C767.527 88.1079 767.578 89.2247 767.07 91.1538L737.068 212.839C736.459 215.377 736.255 217.864 736.459 220.301C736.763 222.636 738.438 223.804 741.484 223.804C745.647 223.804 750.216 221.063 755.191 215.58C760.268 210.097 764.735 203.193 768.593 194.868C769.608 192.532 770.421 191.009 771.03 190.299C771.741 189.588 773.365 189.689 775.903 190.603L781.995 193.345C784.838 194.36 786.259 195.477 786.259 196.695C786.361 197.812 785.853 199.64 784.736 202.178C778.137 216.494 769.659 228.068 759.303 236.901C748.947 245.633 737.677 249.999 725.493 249.999C716.152 249.999 709.045 247.308 704.172 241.927C699.4 236.444 697.775 229.337 699.298 220.606L702.344 207.965C702.75 205.934 702.649 204.868 702.04 204.767C701.43 204.665 700.618 205.376 699.603 206.899C691.582 220.098 682.292 230.454 671.733 237.967C661.173 245.481 650.36 249.237 639.294 249.237C632.694 249.237 626.602 248.273 621.018 246.344C615.535 244.516 611.017 241.419 607.464 237.054C603.91 232.586 601.778 226.647 601.067 219.235C600.356 211.722 601.575 202.33 604.722 191.06L624.216 121.765C625.028 119.024 625.384 116.283 625.282 113.541C625.282 110.8 623.607 109.429 620.256 109.429C616.094 109.429 611.474 112.12 606.398 117.501C601.422 122.882 596.955 129.939 592.995 138.67C591.98 140.802 591.117 142.224 590.406 142.935C589.797 143.645 588.274 143.544 585.838 142.63L577.918 139.279C575.583 138.366 574.517 137.503 574.72 136.69C575.024 135.777 575.634 134.254 576.547 132.121Z"/>
<path d="M844.327 208.422C845.343 214.209 847.728 218.93 851.485 222.585C855.242 226.139 860.42 227.916 867.019 227.916C874.939 227.916 882.401 225.581 889.407 220.91C896.514 216.138 902.809 209.742 908.292 201.721C913.774 193.598 918.089 184.511 921.237 174.46C924.384 164.307 925.958 153.9 925.958 143.239C925.958 132.274 924.638 123.187 921.998 115.978C919.46 108.668 914.739 105.013 907.835 105.013C900.423 105.013 892.961 107.449 885.447 112.323C878.035 117.196 871.385 123.897 865.496 132.426C859.608 140.853 855.394 150.499 852.856 161.362L844.479 198.37C844.073 200.096 843.82 201.772 843.718 203.396C843.718 205.021 843.921 206.696 844.327 208.422ZM805.796 200.655L843.413 35.5656C844.124 32.8243 844.226 31.0983 843.718 30.3875C843.312 29.6768 841.332 29.3215 837.778 29.3215H824.376C822.143 29.3215 820.772 28.8138 820.264 27.7985C819.858 26.6817 819.655 25.1079 819.655 23.0773V13.3304C819.655 11.1982 819.909 9.77678 820.417 9.06607C820.924 8.35536 822.143 8 824.072 8H881.64C884.584 8 886.31 8.30459 886.818 8.91378C887.427 9.52296 887.427 10.9952 886.818 13.3304L866.258 103.337C865.446 107.094 865.293 109.328 865.801 110.039C866.41 110.749 868.238 109.531 871.284 106.383C878.086 99.2762 885.396 93.692 893.214 89.6308C901.134 85.5696 909.307 83.539 917.734 83.539C932.659 83.539 944.944 88.4632 954.59 98.3117C964.337 108.16 969.21 123.745 969.21 145.067C969.21 159.484 966.52 173.038 961.138 185.73C955.757 198.421 948.295 209.59 938.751 219.235C929.207 228.88 918.191 236.444 905.703 241.927C893.214 247.308 879.863 249.999 865.649 249.999C854.683 249.999 845.444 248.527 837.931 245.582C830.519 242.536 824.376 238.475 819.503 233.399C814.629 228.322 810.568 222.687 807.319 216.494C805.796 213.549 804.933 211.062 804.73 209.031C804.629 207 804.984 204.208 805.796 200.655Z"/>
<path d="M1032.39 208.422C1033.4 214.209 1035.79 218.93 1039.55 222.585C1043.3 226.139 1048.48 227.916 1055.08 227.916C1063 227.916 1070.46 225.581 1077.47 220.91C1084.58 216.138 1090.87 209.742 1096.35 201.721C1101.84 193.598 1106.15 184.511 1109.3 174.46C1112.45 164.307 1114.02 153.9 1114.02 143.239C1114.02 132.274 1112.7 123.187 1110.06 115.978C1107.52 108.668 1102.8 105.013 1095.9 105.013C1088.49 105.013 1081.02 107.449 1073.51 112.323C1066.1 117.196 1059.45 123.897 1053.56 132.426C1047.67 140.853 1043.46 150.499 1040.92 161.362L1032.54 198.37C1032.14 200.096 1031.88 201.772 1031.78 203.396C1031.78 205.021 1031.98 206.696 1032.39 208.422ZM993.858 200.655L1031.48 35.5656C1032.19 32.8243 1032.29 31.0983 1031.78 30.3875C1031.37 29.6768 1029.39 29.3215 1025.84 29.3215H1012.44C1010.2 29.3215 1008.83 28.8138 1008.33 27.7985C1007.92 26.6817 1007.72 25.1079 1007.72 23.0773V13.3304C1007.72 11.1982 1007.97 9.77678 1008.48 9.06607C1008.99 8.35536 1010.2 8 1012.13 8H1069.7C1072.65 8 1074.37 8.30459 1074.88 8.91378C1075.49 9.52296 1075.49 10.9952 1074.88 13.3304L1054.32 103.337C1053.51 107.094 1053.36 109.328 1053.86 110.039C1054.47 110.749 1056.3 109.531 1059.35 106.383C1066.15 99.2762 1073.46 93.692 1081.28 89.6308C1089.2 85.5696 1097.37 83.539 1105.8 83.539C1120.72 83.539 1133.01 88.4632 1142.65 98.3117C1152.4 108.16 1157.27 123.745 1157.27 145.067C1157.27 159.484 1154.58 173.038 1149.2 185.73C1143.82 198.421 1136.36 209.59 1126.81 219.235C1117.27 228.88 1106.25 236.444 1093.76 241.927C1081.28 247.308 1067.93 249.999 1053.71 249.999C1042.75 249.999 1033.51 248.527 1025.99 245.582C1018.58 242.536 1012.44 238.475 1007.56 233.399C1002.69 228.322 998.63 222.687 995.381 216.494C993.858 213.549 992.995 211.062 992.792 209.031C992.691 207 993.046 204.208 993.858 200.655Z"/>
<path d="M1173.99 191.974C1173.99 177.252 1176.89 163.342 1182.67 150.245C1188.56 137.147 1196.43 125.573 1206.28 115.521C1216.23 105.47 1227.45 97.601 1239.94 91.9153C1252.53 86.128 1265.47 83.2344 1278.77 83.2344C1297.15 83.2344 1310.91 86.3818 1320.04 92.6767C1329.28 98.9717 1333.9 108.363 1333.9 120.852C1333.9 130.192 1331.47 138.213 1326.59 144.914C1321.82 151.615 1315.42 157.25 1307.4 161.819C1299.38 166.287 1290.5 169.891 1280.75 172.632C1271 175.374 1261.21 177.506 1251.36 179.029C1241.51 180.45 1232.32 181.465 1223.79 182.075C1220.85 182.278 1218.87 183.141 1217.85 184.664C1216.84 186.085 1216.33 188.776 1216.33 192.735C1216.33 204.005 1218.41 212.839 1222.57 219.235C1226.84 225.53 1233.54 228.677 1242.68 228.677C1249.48 228.677 1255.88 227.154 1261.87 224.108C1267.96 220.961 1273.49 216.951 1278.47 212.077C1283.44 207.204 1287.81 201.975 1291.56 196.391C1292.48 194.969 1293.39 194.055 1294.31 193.649C1295.32 193.142 1297.15 192.888 1299.79 192.888H1309.84C1313.29 192.888 1315.32 193.294 1315.93 194.106C1316.54 194.817 1316.08 196.492 1314.56 199.132C1309.69 207.457 1303.49 215.478 1295.98 223.195C1288.57 230.911 1279.84 237.257 1269.79 242.232C1259.84 247.105 1248.52 249.542 1235.82 249.542C1224.05 249.542 1213.49 247.613 1204.15 243.755C1194.81 239.896 1187.44 233.754 1182.06 225.327C1176.68 216.9 1173.99 205.782 1173.99 191.974ZM1226.69 164.408C1234.3 163.495 1242.07 162.073 1249.99 160.144C1258.01 158.215 1265.42 155.626 1272.22 152.377C1279.03 149.026 1284.51 144.813 1288.67 139.736C1292.93 134.558 1295.07 128.263 1295.07 120.852C1295.07 113.846 1293.59 109.023 1290.65 106.383C1287.81 103.642 1283.39 102.271 1277.4 102.271C1270.09 102.271 1262.78 104.505 1255.47 108.972C1248.26 113.338 1241.71 119.532 1235.82 127.553C1230.04 135.472 1225.37 144.813 1221.81 155.575C1220.7 159.027 1220.34 161.464 1220.75 162.885C1221.25 164.307 1223.23 164.814 1226.69 164.408Z"/>
</mask>
<path d="M91.8645 71.9644C91.8645 78.4624 93.9459 83.7928 98.1086 87.9556C102.271 92.1183 107.805 95.6719 114.709 98.6163C121.613 101.459 129.177 104.2 137.401 106.84C145.625 109.48 153.849 112.475 162.073 115.826C170.297 119.075 177.861 123.187 184.765 128.162C191.669 133.035 197.203 139.279 201.366 146.894C205.528 154.509 207.61 163.951 207.61 175.221C207.61 190.451 203.701 203.752 195.883 215.123C188.167 226.494 177.252 235.328 163.139 241.623C149.026 247.917 132.477 251.065 113.491 251.065C97.2456 251.065 84.0466 249.085 73.8935 245.125C63.842 241.166 56.1256 235.988 50.7445 229.591C49.12 227.561 48.0032 226.545 47.394 226.545C46.8863 226.545 45.7187 227.713 43.8912 230.048L33.9919 242.993C32.9766 244.313 31.8598 245.328 30.6414 246.039C29.5245 246.75 27.697 247.105 25.1587 247.105H14.3457C11.7059 247.105 9.92909 246.902 9.01531 246.496C8 246.191 7.74617 244.973 8.25383 242.841L26.6817 168.063C27.0878 166.236 27.697 165.017 28.5092 164.408C29.423 163.698 30.9967 163.342 33.2304 163.342H45.1095C47.2417 163.342 48.5616 163.799 49.0692 164.713C49.5769 165.525 49.78 166.896 49.6784 168.825C47.7493 180.704 48.2062 190.552 51.0491 198.37C53.9935 206.188 58.5624 212.382 64.7558 216.951C70.9491 221.418 78.0055 224.565 85.9249 226.393C93.8444 228.22 101.815 229.134 109.835 229.134C121.308 229.134 130.599 227.764 137.706 225.022C144.914 222.179 150.448 218.524 154.306 214.057C158.164 209.59 160.804 204.868 162.225 199.893C163.647 194.817 164.358 190.045 164.358 185.577C164.358 177.658 162.276 171.16 158.113 166.084C153.951 160.905 148.468 156.641 141.665 153.291C134.863 149.839 127.35 146.793 119.126 144.153C111.003 141.412 102.83 138.518 94.6058 135.472C86.4834 132.426 79.0208 128.72 72.2183 124.354C65.4157 119.989 59.933 114.455 55.7703 107.754C51.6075 101.053 49.5261 92.5752 49.5261 82.3206C49.5261 70.8476 52.1152 60.7453 57.2932 52.0136C62.5728 43.282 69.4769 35.921 78.0055 29.9307C86.5341 23.8388 95.9257 19.2699 106.18 16.224C116.536 13.1781 126.69 11.6551 136.64 11.6551C148.417 11.6551 158.824 13.3811 167.86 16.8332C176.998 20.2852 184.714 25.1587 191.009 31.4536C193.142 33.4843 194.715 34.7026 195.731 35.1087C196.746 35.4133 198.218 34.195 200.147 31.4536L208.98 20.7929C210.097 19.473 211.113 18.5592 212.026 18.0516C212.94 17.4424 214.615 17.1378 217.052 17.1378H226.342C229.896 17.1378 231.977 17.4931 232.586 18.2039C233.297 18.9146 233.348 20.7421 232.739 23.6865L218.423 91.0015C217.915 93.7428 217.052 95.3165 215.834 95.7227C214.615 96.1288 212.382 96.3319 209.133 96.3319H200.604C197.355 96.3319 195.426 95.9257 194.817 95.1135C194.309 94.1997 194.208 92.4229 194.512 89.7831C195.528 79.0208 193.903 69.4769 189.639 61.1514C185.374 52.7243 178.927 46.1248 170.297 41.3529C161.667 36.5809 151.26 34.195 139.076 34.195C129.939 34.195 121.816 35.8702 114.709 39.2207C107.602 42.5713 102.018 47.0894 97.9564 52.7751C93.8951 58.4608 91.8645 64.8573 91.8645 71.9644Z" stroke="#06EEFD" stroke-opacity="0.15" stroke-width="16" mask="url(#path-1-outside-1_8870_10605)"/>
<path d="M391.039 128.466C391.039 135.269 389.668 140.701 386.927 144.762C384.287 148.823 380.886 151.818 376.723 153.748C372.662 155.575 368.448 156.489 364.082 156.489C358.396 156.489 353.472 154.763 349.309 151.311C345.147 147.859 343.065 142.681 343.065 135.777C343.065 131.715 343.928 128.466 345.654 126.03C347.482 123.593 349.259 121.512 350.985 119.785C352.812 117.958 353.726 115.978 353.726 113.846C353.726 110.394 352.609 107.602 350.376 105.47C348.243 103.236 344.284 102.119 338.496 102.119C330.577 102.119 322.81 104.505 315.195 109.277C307.58 113.947 300.727 120.445 294.635 128.771C288.543 136.995 283.67 146.539 280.015 157.403C276.36 168.165 274.532 179.689 274.532 191.974C274.532 199.487 275.293 206.036 276.816 211.62C278.339 217.103 280.827 221.316 284.279 224.261C287.833 227.205 292.655 228.677 298.747 228.677C305.448 228.677 311.946 227.205 318.241 224.261C324.536 221.215 330.323 217.306 335.603 212.534C340.984 207.66 345.553 202.482 349.309 197C350.325 195.578 351.289 194.563 352.203 193.954C353.117 193.243 354.843 192.888 357.381 192.888H367.28C370.326 192.888 372.357 193.243 373.372 193.954C374.489 194.664 374.388 196.137 373.068 198.37C368.194 206.797 361.849 214.971 354.031 222.89C346.314 230.708 337.278 237.104 326.922 242.079C316.566 247.054 304.89 249.542 291.894 249.542C280.116 249.542 269.709 247.613 260.673 243.755C251.738 239.896 244.733 233.754 239.656 225.327C234.681 216.9 232.194 205.782 232.194 191.974C232.194 176.744 234.986 162.581 240.57 149.483C246.256 136.284 253.921 124.71 263.567 114.76C273.314 104.81 284.279 97.0933 296.463 91.6107C308.646 86.0265 321.338 83.2344 334.537 83.2344C346.822 83.2344 357.127 85.1635 365.453 89.0216C373.88 92.7783 380.226 98.0579 384.49 104.86C388.856 111.663 391.039 119.532 391.039 128.466Z" stroke="#06EEFD" stroke-opacity="0.15" stroke-width="16" mask="url(#path-1-outside-1_8870_10605)"/>
<path d="M421.622 87.1941H472.184C475.941 87.1941 478.479 87.6002 479.799 88.4124C481.119 89.1232 481.423 91.0522 480.713 94.1997L476.601 112.171C475.585 116.232 475.281 118.567 475.687 119.176C476.093 119.785 477.819 117.806 480.865 113.237C486.957 104.404 493.912 97.1441 501.729 91.4584C509.649 85.7726 518.634 82.9298 528.686 82.9298C539.042 82.9298 547.469 85.8234 553.967 91.6107C560.567 97.2964 563.866 105.013 563.866 114.76C563.866 123.491 561.379 130.649 556.404 136.233C551.429 141.818 545.235 144.61 537.824 144.61C533.458 144.61 529.498 143.747 525.945 142.021C522.493 140.193 519.7 137.807 517.568 134.863C515.436 131.817 514.37 128.416 514.37 124.659C514.37 120.192 514.979 116.841 516.198 114.607C517.416 112.272 518.584 110.597 519.7 109.582C520.919 108.465 521.528 107.399 521.528 106.383C521.528 104.353 520.056 103.337 517.111 103.337C512.339 103.337 507.212 105.774 501.729 110.648C496.247 115.521 490.866 121.968 485.586 129.989C480.306 137.909 475.535 146.59 471.27 156.032C467.107 165.373 464.011 174.511 461.98 183.445L449.187 238.729C448.578 241.572 447.918 243.45 447.207 244.364C446.497 245.176 444.314 245.582 440.659 245.582H416.9C413.347 245.582 411.316 245.125 410.809 244.212C410.301 243.196 410.352 241.419 410.961 238.881L439.593 115.826C440.303 112.577 440.354 110.546 439.745 109.734C439.237 108.922 436.953 108.516 432.892 108.516H421.774C419.033 108.516 417.408 108.059 416.9 107.145C416.393 106.231 416.139 104.404 416.139 101.662V92.5245C416.139 90.1892 416.545 88.717 417.357 88.1079C418.17 87.4987 419.591 87.1941 421.622 87.1941Z" stroke="#06EEFD" stroke-opacity="0.15" stroke-width="16" mask="url(#path-1-outside-1_8870_10605)"/>
<path d="M576.547 132.121C582.944 117.704 591.371 105.977 601.829 96.941C612.286 87.8033 623.658 83.2344 635.943 83.2344C647.314 83.2344 655.183 86.4834 659.549 92.9813C664.016 99.4793 664.778 107.906 661.833 118.263L643.558 185.882C641.121 193.801 639.446 200.807 638.532 206.899C637.72 212.991 638.177 217.763 639.903 221.215C641.73 224.667 645.436 226.393 651.02 226.393C656.808 226.393 663.001 223.804 669.6 218.626C676.2 213.448 682.647 206.594 688.942 198.066C695.237 189.436 700.872 179.993 705.847 169.739C710.822 159.484 714.477 149.28 716.812 139.127L727.473 91.763C727.778 90.24 728.285 89.1232 728.996 88.4124C729.707 87.6002 731.027 87.1941 732.956 87.1941H762.501C764.938 87.1941 766.41 87.3971 766.918 87.8033C767.527 88.1079 767.578 89.2247 767.07 91.1538L737.068 212.839C736.459 215.377 736.255 217.864 736.459 220.301C736.763 222.636 738.438 223.804 741.484 223.804C745.647 223.804 750.216 221.063 755.191 215.58C760.268 210.097 764.735 203.193 768.593 194.868C769.608 192.532 770.421 191.009 771.03 190.299C771.741 189.588 773.365 189.689 775.903 190.603L781.995 193.345C784.838 194.36 786.259 195.477 786.259 196.695C786.361 197.812 785.853 199.64 784.736 202.178C778.137 216.494 769.659 228.068 759.303 236.901C748.947 245.633 737.677 249.999 725.493 249.999C716.152 249.999 709.045 247.308 704.172 241.927C699.4 236.444 697.775 229.337 699.298 220.606L702.344 207.965C702.75 205.934 702.649 204.868 702.04 204.767C701.43 204.665 700.618 205.376 699.603 206.899C691.582 220.098 682.292 230.454 671.733 237.967C661.173 245.481 650.36 249.237 639.294 249.237C632.694 249.237 626.602 248.273 621.018 246.344C615.535 244.516 611.017 241.419 607.464 237.054C603.91 232.586 601.778 226.647 601.067 219.235C600.356 211.722 601.575 202.33 604.722 191.06L624.216 121.765C625.028 119.024 625.384 116.283 625.282 113.541C625.282 110.8 623.607 109.429 620.256 109.429C616.094 109.429 611.474 112.12 606.398 117.501C601.422 122.882 596.955 129.939 592.995 138.67C591.98 140.802 591.117 142.224 590.406 142.935C589.797 143.645 588.274 143.544 585.838 142.63L577.918 139.279C575.583 138.366 574.517 137.503 574.72 136.69C575.024 135.777 575.634 134.254 576.547 132.121Z" stroke="#06EEFD" stroke-opacity="0.15" stroke-width="16" mask="url(#path-1-outside-1_8870_10605)"/>
<path d="M844.327 208.422C845.343 214.209 847.728 218.93 851.485 222.585C855.242 226.139 860.42 227.916 867.019 227.916C874.939 227.916 882.401 225.581 889.407 220.91C896.514 216.138 902.809 209.742 908.292 201.721C913.774 193.598 918.089 184.511 921.237 174.46C924.384 164.307 925.958 153.9 925.958 143.239C925.958 132.274 924.638 123.187 921.998 115.978C919.46 108.668 914.739 105.013 907.835 105.013C900.423 105.013 892.961 107.449 885.447 112.323C878.035 117.196 871.385 123.897 865.496 132.426C859.608 140.853 855.394 150.499 852.856 161.362L844.479 198.37C844.073 200.096 843.82 201.772 843.718 203.396C843.718 205.021 843.921 206.696 844.327 208.422ZM805.796 200.655L843.413 35.5656C844.124 32.8243 844.226 31.0983 843.718 30.3875C843.312 29.6768 841.332 29.3215 837.778 29.3215H824.376C822.143 29.3215 820.772 28.8138 820.264 27.7985C819.858 26.6817 819.655 25.1079 819.655 23.0773V13.3304C819.655 11.1982 819.909 9.77678 820.417 9.06607C820.924 8.35536 822.143 8 824.072 8H881.64C884.584 8 886.31 8.30459 886.818 8.91378C887.427 9.52296 887.427 10.9952 886.818 13.3304L866.258 103.337C865.446 107.094 865.293 109.328 865.801 110.039C866.41 110.749 868.238 109.531 871.284 106.383C878.086 99.2762 885.396 93.692 893.214 89.6308C901.134 85.5696 909.307 83.539 917.734 83.539C932.659 83.539 944.944 88.4632 954.59 98.3117C964.337 108.16 969.21 123.745 969.21 145.067C969.21 159.484 966.52 173.038 961.138 185.73C955.757 198.421 948.295 209.59 938.751 219.235C929.207 228.88 918.191 236.444 905.703 241.927C893.214 247.308 879.863 249.999 865.649 249.999C854.683 249.999 845.444 248.527 837.931 245.582C830.519 242.536 824.376 238.475 819.503 233.399C814.629 228.322 810.568 222.687 807.319 216.494C805.796 213.549 804.933 211.062 804.73 209.031C804.629 207 804.984 204.208 805.796 200.655Z" stroke="#06EEFD" stroke-opacity="0.15" stroke-width="16" mask="url(#path-1-outside-1_8870_10605)"/>
<path d="M1032.39 208.422C1033.4 214.209 1035.79 218.93 1039.55 222.585C1043.3 226.139 1048.48 227.916 1055.08 227.916C1063 227.916 1070.46 225.581 1077.47 220.91C1084.58 216.138 1090.87 209.742 1096.35 201.721C1101.84 193.598 1106.15 184.511 1109.3 174.46C1112.45 164.307 1114.02 153.9 1114.02 143.239C1114.02 132.274 1112.7 123.187 1110.06 115.978C1107.52 108.668 1102.8 105.013 1095.9 105.013C1088.49 105.013 1081.02 107.449 1073.51 112.323C1066.1 117.196 1059.45 123.897 1053.56 132.426C1047.67 140.853 1043.46 150.499 1040.92 161.362L1032.54 198.37C1032.14 200.096 1031.88 201.772 1031.78 203.396C1031.78 205.021 1031.98 206.696 1032.39 208.422ZM993.858 200.655L1031.48 35.5656C1032.19 32.8243 1032.29 31.0983 1031.78 30.3875C1031.37 29.6768 1029.39 29.3215 1025.84 29.3215H1012.44C1010.2 29.3215 1008.83 28.8138 1008.33 27.7985C1007.92 26.6817 1007.72 25.1079 1007.72 23.0773V13.3304C1007.72 11.1982 1007.97 9.77678 1008.48 9.06607C1008.99 8.35536 1010.2 8 1012.13 8H1069.7C1072.65 8 1074.37 8.30459 1074.88 8.91378C1075.49 9.52296 1075.49 10.9952 1074.88 13.3304L1054.32 103.337C1053.51 107.094 1053.36 109.328 1053.86 110.039C1054.47 110.749 1056.3 109.531 1059.35 106.383C1066.15 99.2762 1073.46 93.692 1081.28 89.6308C1089.2 85.5696 1097.37 83.539 1105.8 83.539C1120.72 83.539 1133.01 88.4632 1142.65 98.3117C1152.4 108.16 1157.27 123.745 1157.27 145.067C1157.27 159.484 1154.58 173.038 1149.2 185.73C1143.82 198.421 1136.36 209.59 1126.81 219.235C1117.27 228.88 1106.25 236.444 1093.76 241.927C1081.28 247.308 1067.93 249.999 1053.71 249.999C1042.75 249.999 1033.51 248.527 1025.99 245.582C1018.58 242.536 1012.44 238.475 1007.56 233.399C1002.69 228.322 998.63 222.687 995.381 216.494C993.858 213.549 992.995 211.062 992.792 209.031C992.691 207 993.046 204.208 993.858 200.655Z" stroke="#06EEFD" stroke-opacity="0.15" stroke-width="16" mask="url(#path-1-outside-1_8870_10605)"/>
<path d="M1173.99 191.974C1173.99 177.252 1176.89 163.342 1182.67 150.245C1188.56 137.147 1196.43 125.573 1206.28 115.521C1216.23 105.47 1227.45 97.601 1239.94 91.9153C1252.53 86.128 1265.47 83.2344 1278.77 83.2344C1297.15 83.2344 1310.91 86.3818 1320.04 92.6767C1329.28 98.9717 1333.9 108.363 1333.9 120.852C1333.9 130.192 1331.47 138.213 1326.59 144.914C1321.82 151.615 1315.42 157.25 1307.4 161.819C1299.38 166.287 1290.5 169.891 1280.75 172.632C1271 175.374 1261.21 177.506 1251.36 179.029C1241.51 180.45 1232.32 181.465 1223.79 182.075C1220.85 182.278 1218.87 183.141 1217.85 184.664C1216.84 186.085 1216.33 188.776 1216.33 192.735C1216.33 204.005 1218.41 212.839 1222.57 219.235C1226.84 225.53 1233.54 228.677 1242.68 228.677C1249.48 228.677 1255.88 227.154 1261.87 224.108C1267.96 220.961 1273.49 216.951 1278.47 212.077C1283.44 207.204 1287.81 201.975 1291.56 196.391C1292.48 194.969 1293.39 194.055 1294.31 193.649C1295.32 193.142 1297.15 192.888 1299.79 192.888H1309.84C1313.29 192.888 1315.32 193.294 1315.93 194.106C1316.54 194.817 1316.08 196.492 1314.56 199.132C1309.69 207.457 1303.49 215.478 1295.98 223.195C1288.57 230.911 1279.84 237.257 1269.79 242.232C1259.84 247.105 1248.52 249.542 1235.82 249.542C1224.05 249.542 1213.49 247.613 1204.15 243.755C1194.81 239.896 1187.44 233.754 1182.06 225.327C1176.68 216.9 1173.99 205.782 1173.99 191.974ZM1226.69 164.408C1234.3 163.495 1242.07 162.073 1249.99 160.144C1258.01 158.215 1265.42 155.626 1272.22 152.377C1279.03 149.026 1284.51 144.813 1288.67 139.736C1292.93 134.558 1295.07 128.263 1295.07 120.852C1295.07 113.846 1293.59 109.023 1290.65 106.383C1287.81 103.642 1283.39 102.271 1277.4 102.271C1270.09 102.271 1262.78 104.505 1255.47 108.972C1248.26 113.338 1241.71 119.532 1235.82 127.553C1230.04 135.472 1225.37 144.813 1221.81 155.575C1220.7 159.027 1220.34 161.464 1220.75 162.885C1221.25 164.307 1223.23 164.814 1226.69 164.408Z" stroke="#06EEFD" stroke-opacity="0.15" stroke-width="16" mask="url(#path-1-outside-1_8870_10605)"/>
</svg>
