<svg width="24" height="24" viewBox="0 0 24 24" fill="none" xmlns="http://www.w3.org/2000/svg">
<path d="M10.5024 21.3991L10.4904 21.4011L10.4194 21.4361L10.3994 21.4401L10.3854 21.4361L10.3144 21.4001C10.3037 21.3974 10.2957 21.3994 10.2904 21.4061L10.2864 21.4161L10.2694 21.8441L10.2744 21.8641L10.2844 21.8771L10.3884 21.9511L10.4034 21.9551L10.4154 21.9511L10.5194 21.8771L10.5314 21.8611L10.5354 21.8441L10.5184 21.4171C10.5157 21.4064 10.5104 21.4004 10.5024 21.3991ZM10.7664 21.2861L10.7524 21.2881L10.5684 21.3811L10.5584 21.3911L10.5554 21.4021L10.5734 21.8321L10.5784 21.8441L10.5864 21.8521L10.7874 21.9441C10.8 21.9474 10.8097 21.9447 10.8164 21.9361L10.8204 21.9221L10.7864 21.3081C10.783 21.2954 10.7764 21.2881 10.7664 21.2861ZM10.0514 21.2881C10.047 21.2854 10.0417 21.2845 10.0367 21.2856C10.0316 21.2868 10.0272 21.2898 10.0244 21.2941L10.0184 21.3081L9.98438 21.9221C9.98504 21.9341 9.99071 21.9421 10.0014 21.9461L10.0164 21.9441L10.2174 21.8511L10.2274 21.8431L10.2304 21.8321L10.2484 21.4021L10.2454 21.3901L10.2354 21.3801L10.0514 21.2881Z" fill="url(#paint0_linear_9692_50789)"/>
<path d="M8.4543 4.15722C9.17526 2.04726 12.0905 1.98336 12.9452 3.96551L13.0176 4.15842L13.9905 7.00385C14.2135 7.65641 14.5738 8.25356 15.0472 8.75502C15.5205 9.25648 16.0959 9.65059 16.7345 9.91076L16.9961 10.0084L19.8414 10.9802C21.9513 11.7012 22.0152 14.6166 20.0343 15.4714L19.8414 15.5437L16.9961 16.5167C16.3434 16.7396 15.746 17.0998 15.2444 17.5732C14.7427 18.0466 14.3485 18.6221 14.0882 19.2609L13.9905 19.5213L13.0188 22.3679C12.2978 24.4779 9.38263 24.5418 8.52904 22.5609L8.4543 22.3679L7.48256 19.5225C7.25974 18.8697 6.89949 18.2724 6.42612 17.7707C5.95276 17.269 5.37729 16.8747 4.73856 16.6144L4.47815 16.5167L1.63287 15.5449C-0.478178 14.8239 -0.542075 11.9086 1.43997 11.055L1.63287 10.9802L4.47815 10.0084C5.13067 9.78544 5.72779 9.42511 6.22922 8.95172C6.73066 8.47834 7.12475 7.90292 7.38491 7.26428L7.48256 7.00385L8.4543 4.15722ZM20.3815 2.17853e-07C20.6071 -2.84509e-07 20.8281 0.0632725 21.0195 0.182628C21.2109 0.301983 21.365 0.472633 21.4642 0.675186L21.5221 0.816252L21.944 2.05329L23.1822 2.47528C23.4082 2.55208 23.6064 2.69425 23.7515 2.88379C23.8967 3.07332 23.9823 3.30168 23.9975 3.53993C24.0128 3.77818 23.9569 4.01558 23.8371 4.22207C23.7173 4.42855 23.5389 4.59481 23.3245 4.69978L23.1822 4.75765L21.9452 5.17964L21.5233 6.41788C21.4463 6.64386 21.3041 6.84192 21.1145 6.98696C20.9249 7.132 20.6965 7.21749 20.4583 7.23259C20.22 7.2477 19.9827 7.19175 19.7763 7.07182C19.5699 6.9519 19.4037 6.7734 19.2989 6.55895L19.241 6.41788L18.8191 5.18085L17.5809 4.75885C17.3548 4.68206 17.1567 4.53988 17.0115 4.35035C16.8664 4.16082 16.7808 3.93245 16.7655 3.69421C16.7503 3.45596 16.8061 3.21855 16.926 3.01207C17.0458 2.80559 17.2242 2.63933 17.4386 2.53436L17.5809 2.47649L18.8178 2.05449L19.2398 0.816252C19.3211 0.578038 19.4749 0.371242 19.6797 0.22486C19.8844 0.0784771 20.1298 -0.00015105 20.3815 2.17853e-07Z" fill="url(#paint1_linear_9692_50789)"/>
<defs>
<linearGradient id="paint0_linear_9692_50789" x1="10.4024" y1="21.2852" x2="10.4024" y2="21.9551" gradientUnits="userSpaceOnUse">
<stop stop-color="#61A5F9"/>
<stop offset="0.899117" stop-color="#153884"/>
</linearGradient>
<linearGradient id="paint1_linear_9692_50789" x1="12" y1="0" x2="12" y2="24" gradientUnits="userSpaceOnUse">
<stop stop-color="#06EEFD"/>
<stop offset="1" stop-color="#048E97"/>
</linearGradient>
</defs>
</svg>
